<mxfile host="app.diagrams.net" modified="2022-11-16T08:17:14.703Z" agent="5.0 (Windows NT 10.0; Win64; x64) AppleWebKit/537.36 (KHTML, like Gecko) Chrome/107.0.0.0 Safari/537.36" etag="EtW_R4zmNxTqE0A_aPTd" version="20.5.3" type="github" pages="5">
  <diagram id="LRee3-vCbLJE4PQT-OXH" name="USECASE DIAGRAM">
    <mxGraphModel dx="2188" dy="1222" grid="1" gridSize="10" guides="1" tooltips="1" connect="1" arrows="1" fold="1" page="1" pageScale="1" pageWidth="3300" pageHeight="4681" math="0" shadow="0">
      <root>
        <mxCell id="0" />
        <mxCell id="1" parent="0" />
        <mxCell id="YhjqENg5tmqZNu0jKvC--1" value="USECASE DIAGRAM" style="text;html=1;align=center;verticalAlign=middle;resizable=0;points=[];autosize=1;strokeColor=none;fillColor=none;" parent="1" vertex="1">
          <mxGeometry x="90" y="10" width="140" height="30" as="geometry" />
        </mxCell>
        <mxCell id="YhjqENg5tmqZNu0jKvC--2" value="호텔 예약&amp;nbsp; 프로그램" style="text;html=1;align=center;verticalAlign=middle;resizable=0;points=[];autosize=1;strokeColor=none;fillColor=none;" parent="1" vertex="1">
          <mxGeometry x="95" y="40" width="130" height="30" as="geometry" />
        </mxCell>
        <mxCell id="YhjqENg5tmqZNu0jKvC--3" value="Actor : Owner, Member, Non-Member, Credit-Card_CO" style="text;html=1;align=center;verticalAlign=middle;resizable=0;points=[];autosize=1;strokeColor=none;fillColor=none;" parent="1" vertex="1">
          <mxGeometry x="20" y="60" width="320" height="30" as="geometry" />
        </mxCell>
        <mxCell id="Wc8GbwjAeZDyRrW3RM1n-1" value="&lt;div style=&quot;text-align: left;&quot;&gt;&lt;span style=&quot;background-color: initial;&quot;&gt;Owner는 숙소등록과 멤버예약관리(조회,수정,삭제)를 할수있다.&lt;/span&gt;&lt;/div&gt;&lt;div style=&quot;text-align: left;&quot;&gt;&lt;span style=&quot;background-color: initial;&quot;&gt;Non-Member과 Member는 숙소등록과 멤버예약관리를 할수없다.&lt;/span&gt;&lt;/div&gt;&lt;div style=&quot;text-align: left;&quot;&gt;&lt;span style=&quot;background-color: initial;&quot;&gt;&lt;br&gt;&lt;/span&gt;&lt;/div&gt;&lt;div style=&quot;text-align: left;&quot;&gt;&lt;span style=&quot;background-color: initial;&quot;&gt;Owner는 회원가입을 할 수 없다.&lt;/span&gt;&lt;/div&gt;&lt;div style=&quot;text-align: left;&quot;&gt;Non-Member는 회원가입을 할 수 있다.&lt;/div&gt;&lt;div style=&quot;text-align: left;&quot;&gt;Member는 회원가입을 할 수 없다.&lt;/div&gt;&lt;div style=&quot;text-align: left;&quot;&gt;&lt;span style=&quot;background-color: initial;&quot;&gt;&lt;br&gt;&lt;/span&gt;&lt;/div&gt;&lt;div style=&quot;text-align: left;&quot;&gt;Owner는 나의정보를 확인할 수 없다.&lt;/div&gt;&lt;div style=&quot;text-align: left;&quot;&gt;Non-Member는 나의정보를 확인할 수 없다.&lt;/div&gt;&lt;div style=&quot;text-align: left;&quot;&gt;Member는 나의정보(수정,삭제)를 확인할 수 있다.&lt;/div&gt;&lt;div style=&quot;text-align: left;&quot;&gt;&lt;br&gt;&lt;/div&gt;&lt;div style=&quot;text-align: left;&quot;&gt;Owner는 숙소조회를 할 수 없다.&lt;/div&gt;&lt;div style=&quot;text-align: left;&quot;&gt;Non-Member는 숙소조회 (특가조회,전체조회,상세조회,위치검색)&lt;span style=&quot;background-color: initial;&quot;&gt;를 할 수 있다.&lt;/span&gt;&lt;/div&gt;&lt;div style=&quot;text-align: left;&quot;&gt;Member는 숙소조회(특가조회,전체조회,상세조회,위치검색)를 할 수 있다.&lt;/div&gt;&lt;div style=&quot;text-align: left;&quot;&gt;&lt;br&gt;&lt;/div&gt;&lt;div style=&quot;text-align: left;&quot;&gt;Owner는 리뷰작성을 할 수 없다.&lt;/div&gt;&lt;div style=&quot;text-align: left;&quot;&gt;Non-Member는 리뷰작성을 할 수 없다.&lt;/div&gt;&lt;div style=&quot;text-align: left;&quot;&gt;Member는 리뷰작성을 할 수 있다.&lt;/div&gt;&lt;div style=&quot;text-align: left;&quot;&gt;&lt;br&gt;&lt;/div&gt;&lt;div style=&quot;text-align: left;&quot;&gt;Owner는 숙소예약을 할수없다.&lt;/div&gt;&lt;div style=&quot;text-align: left;&quot;&gt;Non-Member는 숙소예약을 할수없다.&lt;/div&gt;&lt;div style=&quot;text-align: left;&quot;&gt;Member는 숙소예약을 할수있다.&lt;/div&gt;&lt;div style=&quot;text-align: left;&quot;&gt;&lt;br&gt;&lt;/div&gt;&lt;div style=&quot;text-align: left;&quot;&gt;Owner는 예약조회를 할 수 없다.&lt;/div&gt;&lt;div style=&quot;text-align: left;&quot;&gt;Non-Member는 예약조회를 할 수 없다.&lt;/div&gt;&lt;div style=&quot;text-align: left;&quot;&gt;Member는 예약조회를 할 수 있다.&lt;/div&gt;&lt;div style=&quot;text-align: left;&quot;&gt;&lt;br&gt;&lt;/div&gt;&lt;div style=&quot;text-align: left;&quot;&gt;Owner는 예약취소를 할 수 없다.&lt;/div&gt;&lt;div style=&quot;text-align: left;&quot;&gt;Non-Member는 예약취소를 할 수 없다.&lt;/div&gt;&lt;div style=&quot;text-align: left;&quot;&gt;Member는 예약취소를 할 수 있다.&lt;/div&gt;&lt;div style=&quot;text-align: left;&quot;&gt;&lt;br&gt;&lt;/div&gt;&lt;div style=&quot;text-align: left;&quot;&gt;리뷰작성, 숙소예약, 예약조회, 예약취소, 멤버예약관리, 숙소등록 은&lt;/div&gt;&lt;div style=&quot;text-align: left;&quot;&gt;로그인 인증 후 이용할 수 있다.&lt;/div&gt;&lt;div style=&quot;text-align: left;&quot;&gt;&lt;br&gt;&lt;/div&gt;&lt;div style=&quot;text-align: left;&quot;&gt;숙소예약은 결제 후 이용할 수 있다.&lt;/div&gt;&lt;div style=&quot;text-align: left;&quot;&gt;&lt;br&gt;&lt;/div&gt;&lt;div style=&quot;text-align: left;&quot;&gt;로그인방식에는 페이스북,Google,Apple,E-Mail등이 있다.&lt;/div&gt;&lt;div style=&quot;text-align: left;&quot;&gt;&lt;br&gt;&lt;/div&gt;&lt;div style=&quot;text-align: left;&quot;&gt;결제방식에는 무통장입금, 카드결제 가 있다.&lt;/div&gt;" style="text;html=1;align=center;verticalAlign=middle;resizable=0;points=[];autosize=1;strokeColor=none;fillColor=none;" parent="1" vertex="1">
          <mxGeometry x="10" y="90" width="440" height="570" as="geometry" />
        </mxCell>
        <mxCell id="7OgUuDvBnYVtbcTYQems-1" value="호텔 예약" style="shape=umlFrame;whiteSpace=wrap;html=1;" parent="1" vertex="1">
          <mxGeometry x="600" y="50" width="1530" height="1370" as="geometry" />
        </mxCell>
        <mxCell id="7OgUuDvBnYVtbcTYQems-2" value="Member" style="shape=umlActor;verticalLabelPosition=bottom;verticalAlign=top;html=1;" parent="1" vertex="1">
          <mxGeometry x="480" y="730" width="40" height="70" as="geometry" />
        </mxCell>
        <mxCell id="7OgUuDvBnYVtbcTYQems-3" value="Owner&lt;br&gt;" style="shape=umlActor;verticalLabelPosition=bottom;verticalAlign=top;html=1;" parent="1" vertex="1">
          <mxGeometry x="2170" y="1050" width="40" height="70" as="geometry" />
        </mxCell>
        <mxCell id="7OgUuDvBnYVtbcTYQems-4" value="Non-Member" style="shape=umlActor;verticalLabelPosition=bottom;verticalAlign=top;html=1;" parent="1" vertex="1">
          <mxGeometry x="480" y="1036" width="40" height="70" as="geometry" />
        </mxCell>
        <mxCell id="7OgUuDvBnYVtbcTYQems-5" value="" style="edgeStyle=orthogonalEdgeStyle;rounded=0;orthogonalLoop=1;jettySize=auto;html=1;startArrow=open;startFill=0;endArrow=none;endFill=0;startSize=10;endSize=10;dashed=1;entryX=0.5;entryY=0;entryDx=0;entryDy=0;" parent="1" target="7OgUuDvBnYVtbcTYQems-71" edge="1">
          <mxGeometry relative="1" as="geometry">
            <mxPoint x="1267.5" y="1249.9999999999995" as="sourcePoint" />
            <Array as="points">
              <mxPoint x="1267.5" y="1280" />
              <mxPoint x="1180.5" y="1280" />
              <mxPoint x="1180.5" y="1330" />
            </Array>
          </mxGeometry>
        </mxCell>
        <mxCell id="7OgUuDvBnYVtbcTYQems-6" value="" style="edgeStyle=orthogonalEdgeStyle;rounded=0;orthogonalLoop=1;jettySize=auto;html=1;startArrow=open;startFill=0;endArrow=none;endFill=0;startSize=10;endSize=10;dashed=1;" parent="1" source="7OgUuDvBnYVtbcTYQems-9" target="7OgUuDvBnYVtbcTYQems-70" edge="1">
          <mxGeometry relative="1" as="geometry" />
        </mxCell>
        <mxCell id="7OgUuDvBnYVtbcTYQems-7" value="" style="edgeStyle=orthogonalEdgeStyle;rounded=0;orthogonalLoop=1;jettySize=auto;html=1;startArrow=open;startFill=0;endArrow=none;endFill=0;startSize=10;endSize=10;dashed=1;" parent="1" source="7OgUuDvBnYVtbcTYQems-9" target="7OgUuDvBnYVtbcTYQems-69" edge="1">
          <mxGeometry relative="1" as="geometry" />
        </mxCell>
        <mxCell id="7OgUuDvBnYVtbcTYQems-8" value="" style="edgeStyle=orthogonalEdgeStyle;rounded=0;orthogonalLoop=1;jettySize=auto;html=1;startArrow=open;startFill=0;endArrow=none;endFill=0;startSize=10;endSize=10;dashed=1;exitX=0.5;exitY=1;exitDx=0;exitDy=0;" parent="1" source="7OgUuDvBnYVtbcTYQems-9" target="7OgUuDvBnYVtbcTYQems-68" edge="1">
          <mxGeometry relative="1" as="geometry" />
        </mxCell>
        <mxCell id="7OgUuDvBnYVtbcTYQems-9" value="회원가입" style="ellipse;whiteSpace=wrap;html=1;fillColor=#fff2cc;strokeColor=#d6b656;" parent="1" vertex="1">
          <mxGeometry x="1222.5" y="1190" width="90" height="60" as="geometry" />
        </mxCell>
        <mxCell id="7OgUuDvBnYVtbcTYQems-10" value="예약취소" style="ellipse;whiteSpace=wrap;html=1;fillColor=#fff2cc;strokeColor=#d6b656;" parent="1" vertex="1">
          <mxGeometry x="1220" y="190" width="90" height="60" as="geometry" />
        </mxCell>
        <mxCell id="7OgUuDvBnYVtbcTYQems-11" value="숙소관리" style="ellipse;whiteSpace=wrap;html=1;fillColor=#fff2cc;strokeColor=#d6b656;" parent="1" vertex="1">
          <mxGeometry x="1850" y="1020" width="90" height="60" as="geometry" />
        </mxCell>
        <mxCell id="7OgUuDvBnYVtbcTYQems-12" value="숙소예약" style="ellipse;whiteSpace=wrap;html=1;fillColor=#fff2cc;strokeColor=#d6b656;" parent="1" vertex="1">
          <mxGeometry x="1220" y="570" width="90" height="60" as="geometry" />
        </mxCell>
        <mxCell id="7OgUuDvBnYVtbcTYQems-13" value="예약조회" style="ellipse;whiteSpace=wrap;html=1;fillColor=#fff2cc;strokeColor=#d6b656;" parent="1" vertex="1">
          <mxGeometry x="1220" y="320" width="90" height="60" as="geometry" />
        </mxCell>
        <mxCell id="7OgUuDvBnYVtbcTYQems-14" value="숙소조회" style="ellipse;whiteSpace=wrap;html=1;fillColor=#fff2cc;strokeColor=#d6b656;" parent="1" vertex="1">
          <mxGeometry x="1220" y="710" width="90" height="60" as="geometry" />
        </mxCell>
        <mxCell id="7OgUuDvBnYVtbcTYQems-15" value="리뷰작성" style="ellipse;whiteSpace=wrap;html=1;fillColor=#fff2cc;strokeColor=#d6b656;" parent="1" vertex="1">
          <mxGeometry x="1220" y="900" width="90" height="60" as="geometry" />
        </mxCell>
        <mxCell id="7OgUuDvBnYVtbcTYQems-16" value="" style="edgeStyle=orthogonalEdgeStyle;rounded=0;orthogonalLoop=1;jettySize=auto;html=1;startArrow=none;startFill=0;endArrow=classic;endFill=1;startSize=10;endSize=10;" parent="1" source="7OgUuDvBnYVtbcTYQems-17" target="7OgUuDvBnYVtbcTYQems-14" edge="1">
          <mxGeometry relative="1" as="geometry">
            <Array as="points">
              <mxPoint x="1250" y="800" />
              <mxPoint x="1265" y="800" />
            </Array>
          </mxGeometry>
        </mxCell>
        <mxCell id="7OgUuDvBnYVtbcTYQems-17" value="상세조회" style="ellipse;whiteSpace=wrap;html=1;fillColor=#dae8fc;strokeColor=#6c8ebf;" parent="1" vertex="1">
          <mxGeometry x="1220" y="820" width="60" height="50" as="geometry" />
        </mxCell>
        <mxCell id="7OgUuDvBnYVtbcTYQems-18" value="로그인 인증" style="ellipse;whiteSpace=wrap;html=1;fillColor=#f8cecc;strokeColor=#b85450;" parent="1" vertex="1">
          <mxGeometry x="1590" y="440" width="90" height="60" as="geometry" />
        </mxCell>
        <mxCell id="7OgUuDvBnYVtbcTYQems-19" value="결제방식" style="ellipse;whiteSpace=wrap;html=1;fillColor=#e1d5e7;strokeColor=#9673a6;" parent="1" vertex="1">
          <mxGeometry x="1590" y="808" width="90" height="60" as="geometry" />
        </mxCell>
        <mxCell id="7OgUuDvBnYVtbcTYQems-20" value="" style="endArrow=classic;html=1;rounded=0;fontSize=12;exitX=1;exitY=0.3333333333333333;exitDx=0;exitDy=0;exitPerimeter=0;endFill=1;endSize=10;entryX=0.022;entryY=0.733;entryDx=0;entryDy=0;entryPerimeter=0;" parent="1" source="7OgUuDvBnYVtbcTYQems-2" target="7OgUuDvBnYVtbcTYQems-10" edge="1">
          <mxGeometry width="50" height="50" relative="1" as="geometry">
            <mxPoint x="1065" y="540" as="sourcePoint" />
            <mxPoint x="705" y="340" as="targetPoint" />
          </mxGeometry>
        </mxCell>
        <mxCell id="7OgUuDvBnYVtbcTYQems-21" value="" style="endArrow=classic;html=1;rounded=0;fontSize=12;exitX=1;exitY=0.3333333333333333;exitDx=0;exitDy=0;exitPerimeter=0;entryX=0.056;entryY=0.783;entryDx=0;entryDy=0;endFill=1;endSize=10;entryPerimeter=0;" parent="1" source="7OgUuDvBnYVtbcTYQems-2" target="7OgUuDvBnYVtbcTYQems-13" edge="1">
          <mxGeometry width="50" height="50" relative="1" as="geometry">
            <mxPoint x="1065" y="540" as="sourcePoint" />
            <mxPoint x="1115" y="490" as="targetPoint" />
          </mxGeometry>
        </mxCell>
        <mxCell id="7OgUuDvBnYVtbcTYQems-22" value="" style="endArrow=classic;html=1;rounded=0;fontSize=12;exitX=1;exitY=0.3333333333333333;exitDx=0;exitDy=0;exitPerimeter=0;entryX=0;entryY=0.5;entryDx=0;entryDy=0;endFill=1;endSize=10;" parent="1" source="7OgUuDvBnYVtbcTYQems-2" target="7OgUuDvBnYVtbcTYQems-12" edge="1">
          <mxGeometry width="50" height="50" relative="1" as="geometry">
            <mxPoint x="585" y="523.333333333333" as="sourcePoint" />
            <mxPoint x="715" y="440" as="targetPoint" />
          </mxGeometry>
        </mxCell>
        <mxCell id="7OgUuDvBnYVtbcTYQems-23" value="" style="endArrow=classic;html=1;rounded=0;fontSize=12;exitX=1;exitY=0.3333333333333333;exitDx=0;exitDy=0;exitPerimeter=0;entryX=0;entryY=0.5;entryDx=0;entryDy=0;endFill=1;endSize=10;" parent="1" source="7OgUuDvBnYVtbcTYQems-2" target="7OgUuDvBnYVtbcTYQems-15" edge="1">
          <mxGeometry width="50" height="50" relative="1" as="geometry">
            <mxPoint x="1065" y="540" as="sourcePoint" />
            <mxPoint x="1115" y="490" as="targetPoint" />
          </mxGeometry>
        </mxCell>
        <mxCell id="7OgUuDvBnYVtbcTYQems-24" value="" style="endArrow=classic;html=1;rounded=0;fontSize=12;exitX=1;exitY=0.3333333333333333;exitDx=0;exitDy=0;exitPerimeter=0;entryX=0;entryY=0.5;entryDx=0;entryDy=0;endFill=1;endSize=10;" parent="1" source="7OgUuDvBnYVtbcTYQems-2" target="7OgUuDvBnYVtbcTYQems-14" edge="1">
          <mxGeometry width="50" height="50" relative="1" as="geometry">
            <mxPoint x="585" y="513.333333333333" as="sourcePoint" />
            <mxPoint x="715" y="580" as="targetPoint" />
          </mxGeometry>
        </mxCell>
        <mxCell id="7OgUuDvBnYVtbcTYQems-25" value="" style="endArrow=classic;html=1;rounded=0;fontSize=12;exitX=1;exitY=0.3333333333333333;exitDx=0;exitDy=0;exitPerimeter=0;entryX=0;entryY=0.5;entryDx=0;entryDy=0;endFill=1;endSize=10;" parent="1" source="7OgUuDvBnYVtbcTYQems-4" target="7OgUuDvBnYVtbcTYQems-9" edge="1">
          <mxGeometry width="50" height="50" relative="1" as="geometry">
            <mxPoint x="1065" y="540" as="sourcePoint" />
            <mxPoint x="1115" y="490" as="targetPoint" />
          </mxGeometry>
        </mxCell>
        <mxCell id="7OgUuDvBnYVtbcTYQems-26" value="" style="endArrow=classic;html=1;rounded=0;fontSize=12;exitX=1;exitY=0.3333333333333333;exitDx=0;exitDy=0;exitPerimeter=0;entryX=-0.011;entryY=0.717;entryDx=0;entryDy=0;endFill=1;endSize=10;entryPerimeter=0;" parent="1" source="7OgUuDvBnYVtbcTYQems-4" target="7OgUuDvBnYVtbcTYQems-14" edge="1">
          <mxGeometry width="50" height="50" relative="1" as="geometry">
            <mxPoint x="585" y="773.333333333333" as="sourcePoint" />
            <mxPoint x="715" y="775" as="targetPoint" />
          </mxGeometry>
        </mxCell>
        <mxCell id="7OgUuDvBnYVtbcTYQems-27" value="&amp;lt;&amp;lt;includes&amp;gt;&amp;gt;" style="endArrow=none;dashed=1;html=1;rounded=0;fontSize=12;endFill=0;exitX=0;exitY=0.5;exitDx=0;exitDy=0;entryX=1;entryY=0.5;entryDx=0;entryDy=0;startArrow=open;startFill=0;endSize=10;startSize=10;" parent="1" source="7OgUuDvBnYVtbcTYQems-18" target="7OgUuDvBnYVtbcTYQems-12" edge="1">
          <mxGeometry width="50" height="50" relative="1" as="geometry">
            <mxPoint x="1270" y="510" as="sourcePoint" />
            <mxPoint x="1060" y="590" as="targetPoint" />
            <mxPoint as="offset" />
          </mxGeometry>
        </mxCell>
        <mxCell id="7OgUuDvBnYVtbcTYQems-28" value="" style="edgeStyle=orthogonalEdgeStyle;rounded=0;orthogonalLoop=1;jettySize=auto;html=1;endArrow=classicThin;endFill=1;endSize=10;exitX=0.5;exitY=0;exitDx=0;exitDy=0;" parent="1" source="7OgUuDvBnYVtbcTYQems-29" target="7OgUuDvBnYVtbcTYQems-14" edge="1">
          <mxGeometry relative="1" as="geometry">
            <Array as="points">
              <mxPoint x="1390" y="800" />
              <mxPoint x="1265" y="800" />
            </Array>
            <mxPoint x="1560" y="980" as="sourcePoint" />
          </mxGeometry>
        </mxCell>
        <mxCell id="7OgUuDvBnYVtbcTYQems-29" value="특가조회" style="ellipse;whiteSpace=wrap;html=1;fillColor=#dae8fc;strokeColor=#6c8ebf;" parent="1" vertex="1">
          <mxGeometry x="1360" y="820" width="60" height="50" as="geometry" />
        </mxCell>
        <mxCell id="7OgUuDvBnYVtbcTYQems-30" value="" style="edgeStyle=orthogonalEdgeStyle;rounded=0;orthogonalLoop=1;jettySize=auto;html=1;endArrow=classicThin;endFill=1;endSize=10;exitX=0.5;exitY=0;exitDx=0;exitDy=0;entryX=0.5;entryY=1;entryDx=0;entryDy=0;" parent="1" source="7OgUuDvBnYVtbcTYQems-31" target="7OgUuDvBnYVtbcTYQems-14" edge="1">
          <mxGeometry relative="1" as="geometry">
            <Array as="points">
              <mxPoint x="1320" y="800" />
              <mxPoint x="1265" y="800" />
            </Array>
          </mxGeometry>
        </mxCell>
        <mxCell id="7OgUuDvBnYVtbcTYQems-31" value="전체조회" style="ellipse;whiteSpace=wrap;html=1;fillColor=#dae8fc;strokeColor=#6c8ebf;" parent="1" vertex="1">
          <mxGeometry x="1290" y="820" width="60" height="50" as="geometry" />
        </mxCell>
        <mxCell id="7OgUuDvBnYVtbcTYQems-32" value="사진등록" style="ellipse;whiteSpace=wrap;html=1;fillColor=#dae8fc;strokeColor=#6c8ebf;" parent="1" vertex="1">
          <mxGeometry x="1350" y="1010" width="60" height="40" as="geometry" />
        </mxCell>
        <mxCell id="7OgUuDvBnYVtbcTYQems-33" value="&amp;lt;&amp;lt;extends&amp;gt;&amp;gt;" style="endArrow=open;dashed=1;html=1;rounded=0;fontSize=12;endFill=0;entryX=1;entryY=0.5;entryDx=0;entryDy=0;endSize=8;exitX=0;exitY=0;exitDx=0;exitDy=0;" parent="1" source="7OgUuDvBnYVtbcTYQems-32" target="7OgUuDvBnYVtbcTYQems-15" edge="1">
          <mxGeometry x="0.2716" y="-3" width="50" height="50" relative="1" as="geometry">
            <mxPoint x="1370" y="990" as="sourcePoint" />
            <mxPoint x="1330" y="690" as="targetPoint" />
            <mxPoint as="offset" />
          </mxGeometry>
        </mxCell>
        <mxCell id="7OgUuDvBnYVtbcTYQems-34" value="위치검색" style="ellipse;whiteSpace=wrap;html=1;fillColor=#dae8fc;strokeColor=#6c8ebf;" parent="1" vertex="1">
          <mxGeometry x="1150" y="820" width="60" height="50" as="geometry" />
        </mxCell>
        <mxCell id="7OgUuDvBnYVtbcTYQems-35" value="" style="edgeStyle=orthogonalEdgeStyle;rounded=0;orthogonalLoop=1;jettySize=auto;html=1;endArrow=classicThin;endFill=1;endSize=10;dashed=1;" parent="1" source="7OgUuDvBnYVtbcTYQems-36" target="7OgUuDvBnYVtbcTYQems-18" edge="1">
          <mxGeometry relative="1" as="geometry">
            <Array as="points">
              <mxPoint x="1725" y="410" />
              <mxPoint x="1725" y="470" />
            </Array>
          </mxGeometry>
        </mxCell>
        <mxCell id="7OgUuDvBnYVtbcTYQems-36" value="Facebook" style="ellipse;whiteSpace=wrap;html=1;fillColor=#f8cecc;strokeColor=#b85450;" parent="1" vertex="1">
          <mxGeometry x="1765" y="390" width="50" height="40" as="geometry" />
        </mxCell>
        <mxCell id="7OgUuDvBnYVtbcTYQems-37" value="" style="edgeStyle=orthogonalEdgeStyle;rounded=0;orthogonalLoop=1;jettySize=auto;html=1;endArrow=classicThin;endFill=1;endSize=10;dashed=1;" parent="1" source="7OgUuDvBnYVtbcTYQems-38" target="7OgUuDvBnYVtbcTYQems-18" edge="1">
          <mxGeometry relative="1" as="geometry">
            <Array as="points">
              <mxPoint x="1735" y="470" />
              <mxPoint x="1735" y="470" />
            </Array>
          </mxGeometry>
        </mxCell>
        <mxCell id="7OgUuDvBnYVtbcTYQems-38" value="Google" style="ellipse;whiteSpace=wrap;html=1;fillColor=#f8cecc;strokeColor=#b85450;" parent="1" vertex="1">
          <mxGeometry x="1765" y="440" width="50" height="40" as="geometry" />
        </mxCell>
        <mxCell id="7OgUuDvBnYVtbcTYQems-39" value="" style="edgeStyle=orthogonalEdgeStyle;rounded=0;orthogonalLoop=1;jettySize=auto;html=1;endArrow=classicThin;endFill=1;endSize=10;dashed=1;" parent="1" source="7OgUuDvBnYVtbcTYQems-40" target="7OgUuDvBnYVtbcTYQems-18" edge="1">
          <mxGeometry relative="1" as="geometry">
            <Array as="points">
              <mxPoint x="1725" y="510" />
              <mxPoint x="1725" y="470" />
            </Array>
          </mxGeometry>
        </mxCell>
        <mxCell id="7OgUuDvBnYVtbcTYQems-40" value="Apple" style="ellipse;whiteSpace=wrap;html=1;fillColor=#f8cecc;strokeColor=#b85450;" parent="1" vertex="1">
          <mxGeometry x="1765" y="490" width="50" height="40" as="geometry" />
        </mxCell>
        <mxCell id="7OgUuDvBnYVtbcTYQems-41" value="" style="edgeStyle=orthogonalEdgeStyle;rounded=0;orthogonalLoop=1;jettySize=auto;html=1;endArrow=classicThin;endFill=1;endSize=10;dashed=1;" parent="1" source="7OgUuDvBnYVtbcTYQems-42" target="7OgUuDvBnYVtbcTYQems-18" edge="1">
          <mxGeometry relative="1" as="geometry">
            <Array as="points">
              <mxPoint x="1725" y="560" />
              <mxPoint x="1725" y="470" />
            </Array>
          </mxGeometry>
        </mxCell>
        <mxCell id="7OgUuDvBnYVtbcTYQems-42" value="E-Mail" style="ellipse;whiteSpace=wrap;html=1;fillColor=#f8cecc;strokeColor=#b85450;" parent="1" vertex="1">
          <mxGeometry x="1765" y="540" width="50" height="40" as="geometry" />
        </mxCell>
        <mxCell id="7OgUuDvBnYVtbcTYQems-43" value="" style="edgeStyle=orthogonalEdgeStyle;rounded=0;orthogonalLoop=1;jettySize=auto;html=1;" parent="1" source="7OgUuDvBnYVtbcTYQems-44" target="7OgUuDvBnYVtbcTYQems-58" edge="1">
          <mxGeometry relative="1" as="geometry" />
        </mxCell>
        <mxCell id="7OgUuDvBnYVtbcTYQems-44" value="삼성 페이" style="ellipse;whiteSpace=wrap;html=1;fillColor=#e1d5e7;strokeColor=#9673a6;" parent="1" vertex="1">
          <mxGeometry x="1605" y="1061" width="60" height="45" as="geometry" />
        </mxCell>
        <mxCell id="7OgUuDvBnYVtbcTYQems-45" value="" style="edgeStyle=orthogonalEdgeStyle;rounded=0;orthogonalLoop=1;jettySize=auto;html=1;" parent="1" source="7OgUuDvBnYVtbcTYQems-46" target="7OgUuDvBnYVtbcTYQems-58" edge="1">
          <mxGeometry relative="1" as="geometry">
            <Array as="points">
              <mxPoint x="1710" y="1040" />
              <mxPoint x="1635" y="1040" />
            </Array>
          </mxGeometry>
        </mxCell>
        <mxCell id="7OgUuDvBnYVtbcTYQems-46" value="페이팔" style="ellipse;whiteSpace=wrap;html=1;fillColor=#e1d5e7;strokeColor=#9673a6;" parent="1" vertex="1">
          <mxGeometry x="1680" y="1061" width="60" height="45" as="geometry" />
        </mxCell>
        <mxCell id="7OgUuDvBnYVtbcTYQems-47" value="나의 정보" style="ellipse;whiteSpace=wrap;html=1;fillColor=#fff2cc;strokeColor=#d6b656;" parent="1" vertex="1">
          <mxGeometry x="1221.25" y="1020" width="90" height="60" as="geometry" />
        </mxCell>
        <mxCell id="7OgUuDvBnYVtbcTYQems-48" value="" style="endArrow=classic;html=1;rounded=0;fontSize=12;exitX=1;exitY=0.3333333333333333;exitDx=0;exitDy=0;exitPerimeter=0;entryX=0.5;entryY=0;entryDx=0;entryDy=0;endFill=1;endSize=10;" parent="1" source="7OgUuDvBnYVtbcTYQems-2" target="7OgUuDvBnYVtbcTYQems-47" edge="1">
          <mxGeometry width="50" height="50" relative="1" as="geometry">
            <mxPoint x="585" y="573.333333333333" as="sourcePoint" />
            <mxPoint x="905" y="770" as="targetPoint" />
          </mxGeometry>
        </mxCell>
        <mxCell id="7OgUuDvBnYVtbcTYQems-49" value="" style="edgeStyle=orthogonalEdgeStyle;rounded=0;orthogonalLoop=1;jettySize=auto;html=1;endArrow=classicThin;endFill=1;endSize=10;entryX=0.5;entryY=1;entryDx=0;entryDy=0;" parent="1" source="7OgUuDvBnYVtbcTYQems-50" target="7OgUuDvBnYVtbcTYQems-47" edge="1">
          <mxGeometry relative="1" as="geometry">
            <Array as="points">
              <mxPoint x="1231.25" y="1100" />
              <mxPoint x="1266.25" y="1100" />
            </Array>
          </mxGeometry>
        </mxCell>
        <mxCell id="7OgUuDvBnYVtbcTYQems-50" value="삭제" style="ellipse;whiteSpace=wrap;html=1;fillColor=#dae8fc;strokeColor=#6c8ebf;direction=south;" parent="1" vertex="1">
          <mxGeometry x="1201.25" y="1120" width="60" height="50" as="geometry" />
        </mxCell>
        <mxCell id="7OgUuDvBnYVtbcTYQems-51" value="" style="edgeStyle=orthogonalEdgeStyle;rounded=0;orthogonalLoop=1;jettySize=auto;html=1;endArrow=classicThin;endFill=1;endSize=10;" parent="1" source="7OgUuDvBnYVtbcTYQems-52" target="7OgUuDvBnYVtbcTYQems-47" edge="1">
          <mxGeometry relative="1" as="geometry">
            <Array as="points">
              <mxPoint x="1306.25" y="1100" />
              <mxPoint x="1266.25" y="1100" />
            </Array>
          </mxGeometry>
        </mxCell>
        <mxCell id="7OgUuDvBnYVtbcTYQems-52" value="수정" style="ellipse;whiteSpace=wrap;html=1;fillColor=#dae8fc;strokeColor=#6c8ebf;" parent="1" vertex="1">
          <mxGeometry x="1276.25" y="1120" width="60" height="50" as="geometry" />
        </mxCell>
        <mxCell id="7OgUuDvBnYVtbcTYQems-53" value="&amp;lt;&amp;lt;includes&amp;gt;&amp;gt;" style="endArrow=open;html=1;rounded=0;entryX=0;entryY=0;entryDx=0;entryDy=0;exitX=1;exitY=1;exitDx=0;exitDy=0;endFill=0;dashed=1;endSize=10;" parent="1" source="7OgUuDvBnYVtbcTYQems-13" target="7OgUuDvBnYVtbcTYQems-18" edge="1">
          <mxGeometry width="50" height="50" relative="1" as="geometry">
            <mxPoint x="1180" y="510" as="sourcePoint" />
            <mxPoint x="1230" y="460" as="targetPoint" />
          </mxGeometry>
        </mxCell>
        <mxCell id="7OgUuDvBnYVtbcTYQems-54" value="&amp;lt;&amp;lt;includes&amp;gt;&amp;gt;" style="endArrow=open;html=1;rounded=0;entryX=0;entryY=1;entryDx=0;entryDy=0;exitX=1;exitY=0;exitDx=0;exitDy=0;endFill=0;dashed=1;endSize=10;" parent="1" source="7OgUuDvBnYVtbcTYQems-15" target="7OgUuDvBnYVtbcTYQems-18" edge="1">
          <mxGeometry x="-0.0269" y="-7" width="50" height="50" relative="1" as="geometry">
            <mxPoint x="1066.8198051533946" y="448.78679656440363" as="sourcePoint" />
            <mxPoint x="1318.1801948466054" y="361.21320343559637" as="targetPoint" />
            <mxPoint x="-1" as="offset" />
          </mxGeometry>
        </mxCell>
        <mxCell id="7OgUuDvBnYVtbcTYQems-55" value="" style="edgeStyle=orthogonalEdgeStyle;rounded=0;orthogonalLoop=1;jettySize=auto;html=1;startArrow=none;startFill=0;endArrow=block;endFill=0;startSize=10;endSize=10;" parent="1" source="7OgUuDvBnYVtbcTYQems-56" target="7OgUuDvBnYVtbcTYQems-19" edge="1">
          <mxGeometry relative="1" as="geometry">
            <Array as="points">
              <mxPoint x="1705" y="910" />
              <mxPoint x="1635" y="910" />
            </Array>
          </mxGeometry>
        </mxCell>
        <mxCell id="7OgUuDvBnYVtbcTYQems-56" value="무통장" style="ellipse;whiteSpace=wrap;html=1;fillColor=#e1d5e7;strokeColor=#9673a6;" parent="1" vertex="1">
          <mxGeometry x="1675" y="950" width="60" height="55" as="geometry" />
        </mxCell>
        <mxCell id="7OgUuDvBnYVtbcTYQems-57" value="" style="edgeStyle=orthogonalEdgeStyle;rounded=0;orthogonalLoop=1;jettySize=auto;html=1;startArrow=none;startFill=0;endArrow=block;endFill=0;startSize=10;endSize=10;" parent="1" source="7OgUuDvBnYVtbcTYQems-58" target="7OgUuDvBnYVtbcTYQems-19" edge="1">
          <mxGeometry relative="1" as="geometry" />
        </mxCell>
        <mxCell id="7OgUuDvBnYVtbcTYQems-58" value="카드" style="ellipse;whiteSpace=wrap;html=1;fillColor=#e1d5e7;strokeColor=#9673a6;" parent="1" vertex="1">
          <mxGeometry x="1605" y="950" width="60" height="55" as="geometry" />
        </mxCell>
        <mxCell id="7OgUuDvBnYVtbcTYQems-59" value="멤버 예약 관리" style="ellipse;whiteSpace=wrap;html=1;fillColor=#fff2cc;strokeColor=#d6b656;" parent="1" vertex="1">
          <mxGeometry x="1917.5" y="190" width="90" height="60" as="geometry" />
        </mxCell>
        <mxCell id="7OgUuDvBnYVtbcTYQems-60" value="&amp;lt;&amp;lt;includes&amp;gt;&amp;gt;" style="endArrow=none;html=1;rounded=0;endSize=10;exitX=0.5;exitY=0;exitDx=0;exitDy=0;entryX=0.5;entryY=1;entryDx=0;entryDy=0;dashed=1;endFill=0;startArrow=open;startFill=0;" parent="1" source="7OgUuDvBnYVtbcTYQems-13" target="7OgUuDvBnYVtbcTYQems-10" edge="1">
          <mxGeometry width="50" height="50" relative="1" as="geometry">
            <mxPoint x="1610" y="560" as="sourcePoint" />
            <mxPoint x="1660" y="510" as="targetPoint" />
          </mxGeometry>
        </mxCell>
        <mxCell id="7OgUuDvBnYVtbcTYQems-61" value="// 멤버 자기 자신에 대한 예약 조회" style="text;html=1;align=center;verticalAlign=middle;resizable=0;points=[];autosize=1;strokeColor=none;fillColor=none;" parent="1" vertex="1">
          <mxGeometry x="1320" y="330" width="210" height="30" as="geometry" />
        </mxCell>
        <mxCell id="7OgUuDvBnYVtbcTYQems-62" value="&amp;lt;&amp;lt;extends&amp;gt;&amp;gt;" style="endArrow=open;html=1;rounded=0;dashed=1;startSize=10;endSize=10;entryX=0;entryY=1;entryDx=0;entryDy=0;exitX=0.5;exitY=0;exitDx=0;exitDy=0;endFill=0;" parent="1" source="7OgUuDvBnYVtbcTYQems-34" target="7OgUuDvBnYVtbcTYQems-14" edge="1">
          <mxGeometry width="50" height="50" relative="1" as="geometry">
            <mxPoint x="1470" y="680" as="sourcePoint" />
            <mxPoint x="1520" y="630" as="targetPoint" />
          </mxGeometry>
        </mxCell>
        <mxCell id="7OgUuDvBnYVtbcTYQems-63" value="&amp;lt;&amp;lt;includes&amp;gt;&amp;gt;" style="endArrow=open;html=1;rounded=0;dashed=1;startSize=10;endSize=10;entryX=0.719;entryY=0.981;entryDx=0;entryDy=0;exitX=0;exitY=0;exitDx=0;exitDy=0;endFill=0;entryPerimeter=0;" parent="1" source="7OgUuDvBnYVtbcTYQems-11" target="7OgUuDvBnYVtbcTYQems-18" edge="1">
          <mxGeometry x="0.1258" y="-1" width="50" height="50" relative="1" as="geometry">
            <mxPoint x="1135" y="560" as="sourcePoint" />
            <mxPoint x="1222.0298299697897" y="251.07225655907223" as="targetPoint" />
            <mxPoint as="offset" />
          </mxGeometry>
        </mxCell>
        <mxCell id="7OgUuDvBnYVtbcTYQems-64" value="&amp;lt;&amp;lt;includes&amp;gt;&amp;gt;" style="endArrow=open;html=1;rounded=0;dashed=1;startSize=10;endSize=10;entryX=0.5;entryY=0;entryDx=0;entryDy=0;exitX=0;exitY=0.5;exitDx=0;exitDy=0;endFill=0;" parent="1" source="7OgUuDvBnYVtbcTYQems-59" target="7OgUuDvBnYVtbcTYQems-18" edge="1">
          <mxGeometry width="50" height="50" relative="1" as="geometry">
            <mxPoint x="1465.0000000000173" y="240" as="sourcePoint" />
            <mxPoint x="1222.0298299697897" y="208.92774344092754" as="targetPoint" />
          </mxGeometry>
        </mxCell>
        <mxCell id="7OgUuDvBnYVtbcTYQems-65" value="" style="endArrow=classic;html=1;rounded=0;startSize=10;endSize=10;entryX=1;entryY=0.5;entryDx=0;entryDy=0;exitX=0;exitY=0.3333333333333333;exitDx=0;exitDy=0;exitPerimeter=0;" parent="1" source="7OgUuDvBnYVtbcTYQems-3" target="7OgUuDvBnYVtbcTYQems-11" edge="1">
          <mxGeometry width="50" height="50" relative="1" as="geometry">
            <mxPoint x="1454.9999999999995" y="1093.3333333333335" as="sourcePoint" />
            <mxPoint x="1324.9999999999823" y="1130" as="targetPoint" />
          </mxGeometry>
        </mxCell>
        <mxCell id="7OgUuDvBnYVtbcTYQems-66" value="// 조회, 수정, 삭제" style="text;html=1;align=center;verticalAlign=middle;resizable=0;points=[];autosize=1;strokeColor=none;fillColor=none;" parent="1" vertex="1">
          <mxGeometry x="1945" y="50" width="120" height="30" as="geometry" />
        </mxCell>
        <mxCell id="7OgUuDvBnYVtbcTYQems-67" value="Admin" style="shape=umlActor;verticalLabelPosition=bottom;verticalAlign=top;html=1;" parent="1" vertex="1">
          <mxGeometry x="2170" y="230" width="40" height="70" as="geometry" />
        </mxCell>
        <mxCell id="7OgUuDvBnYVtbcTYQems-68" value="Facebook" style="ellipse;whiteSpace=wrap;html=1;fillColor=#f8cecc;strokeColor=#b85450;" parent="1" vertex="1">
          <mxGeometry x="1327.5" y="1310" width="50" height="40" as="geometry" />
        </mxCell>
        <mxCell id="7OgUuDvBnYVtbcTYQems-69" value="Google" style="ellipse;whiteSpace=wrap;html=1;fillColor=#f8cecc;strokeColor=#b85450;" parent="1" vertex="1">
          <mxGeometry x="1272.5" y="1310" width="50" height="40" as="geometry" />
        </mxCell>
        <mxCell id="7OgUuDvBnYVtbcTYQems-70" value="Apple" style="ellipse;whiteSpace=wrap;html=1;fillColor=#f8cecc;strokeColor=#b85450;" parent="1" vertex="1">
          <mxGeometry x="1212.5" y="1310" width="50" height="40" as="geometry" />
        </mxCell>
        <mxCell id="7OgUuDvBnYVtbcTYQems-71" value="E-Mail" style="ellipse;whiteSpace=wrap;html=1;fillColor=#f8cecc;strokeColor=#b85450;" parent="1" vertex="1">
          <mxGeometry x="1155" y="1310" width="50" height="40" as="geometry" />
        </mxCell>
        <mxCell id="7OgUuDvBnYVtbcTYQems-72" value="멤버 예약" style="ellipse;whiteSpace=wrap;html=1;fillColor=#fff2cc;strokeColor=#d6b656;" parent="1" vertex="1">
          <mxGeometry x="1850" y="1150" width="90" height="60" as="geometry" />
        </mxCell>
        <mxCell id="7OgUuDvBnYVtbcTYQems-73" value="" style="endArrow=none;html=1;rounded=0;startSize=10;endSize=10;endFill=0;startArrow=classic;startFill=1;entryX=0;entryY=0.3333333333333333;entryDx=0;entryDy=0;entryPerimeter=0;" parent="1" source="7OgUuDvBnYVtbcTYQems-72" target="7OgUuDvBnYVtbcTYQems-3" edge="1">
          <mxGeometry width="50" height="50" relative="1" as="geometry">
            <mxPoint x="2180" y="1100" as="sourcePoint" />
            <mxPoint x="2100" y="900" as="targetPoint" />
          </mxGeometry>
        </mxCell>
        <mxCell id="7OgUuDvBnYVtbcTYQems-74" value="&amp;lt;&amp;lt;includes&amp;gt;&amp;gt;" style="endArrow=open;html=1;rounded=0;entryX=0.5;entryY=1;entryDx=0;entryDy=0;exitX=0.967;exitY=0.317;exitDx=0;exitDy=0;endFill=0;dashed=1;endSize=10;exitPerimeter=0;" parent="1" source="7OgUuDvBnYVtbcTYQems-47" target="7OgUuDvBnYVtbcTYQems-18" edge="1">
          <mxGeometry width="50" height="50" relative="1" as="geometry">
            <mxPoint x="1306.8198051533946" y="381.21320343559637" as="sourcePoint" />
            <mxPoint x="1613.1801948466054" y="458.78679656440363" as="targetPoint" />
          </mxGeometry>
        </mxCell>
        <mxCell id="7OgUuDvBnYVtbcTYQems-75" value="&amp;lt;&amp;lt;extends&amp;gt;&amp;gt;" style="endArrow=openThin;html=1;rounded=0;fontSize=12;endFill=0;endSize=10;entryX=1;entryY=0.5;entryDx=0;entryDy=0;exitX=-0.011;exitY=0.367;exitDx=0;exitDy=0;exitPerimeter=0;dashed=1;" parent="1" source="7OgUuDvBnYVtbcTYQems-19" target="7OgUuDvBnYVtbcTYQems-12" edge="1">
          <mxGeometry x="0.4123" y="3" width="50" height="50" relative="1" as="geometry">
            <mxPoint x="1310" y="599.5033333333331" as="sourcePoint" />
            <mxPoint x="1440" y="599" as="targetPoint" />
            <mxPoint as="offset" />
          </mxGeometry>
        </mxCell>
        <mxCell id="7OgUuDvBnYVtbcTYQems-76" value="멤버 관리" style="ellipse;whiteSpace=wrap;html=1;fillColor=#fff2cc;strokeColor=#d6b656;" parent="1" vertex="1">
          <mxGeometry x="1920" y="290" width="90" height="60" as="geometry" />
        </mxCell>
        <mxCell id="7OgUuDvBnYVtbcTYQems-77" value="" style="edgeStyle=orthogonalEdgeStyle;rounded=0;orthogonalLoop=1;jettySize=auto;html=1;startArrow=none;" parent="1" source="7OgUuDvBnYVtbcTYQems-83" edge="1">
          <mxGeometry relative="1" as="geometry">
            <mxPoint x="1960" y="190" as="targetPoint" />
            <Array as="points">
              <mxPoint x="2002.5" y="160" />
              <mxPoint x="1960.5" y="160" />
            </Array>
          </mxGeometry>
        </mxCell>
        <mxCell id="7OgUuDvBnYVtbcTYQems-78" value="" style="edgeStyle=orthogonalEdgeStyle;rounded=0;orthogonalLoop=1;jettySize=auto;html=1;entryX=0.49;entryY=0;entryDx=0;entryDy=0;entryPerimeter=0;" parent="1" source="7OgUuDvBnYVtbcTYQems-79" target="7OgUuDvBnYVtbcTYQems-59" edge="1">
          <mxGeometry relative="1" as="geometry">
            <mxPoint x="1960" y="190" as="targetPoint" />
            <Array as="points">
              <mxPoint x="2067.5" y="160" />
              <mxPoint x="1961.5" y="160" />
              <mxPoint x="1961.5" y="190" />
            </Array>
          </mxGeometry>
        </mxCell>
        <mxCell id="7OgUuDvBnYVtbcTYQems-79" value="예약 취소" style="ellipse;whiteSpace=wrap;html=1;fillColor=#fff2cc;strokeColor=#d6b656;" parent="1" vertex="1">
          <mxGeometry x="2042.5" y="80" width="60" height="60" as="geometry" />
        </mxCell>
        <mxCell id="7OgUuDvBnYVtbcTYQems-80" value="" style="edgeStyle=orthogonalEdgeStyle;rounded=0;orthogonalLoop=1;jettySize=auto;html=1;entryX=0.5;entryY=0;entryDx=0;entryDy=0;" parent="1" source="7OgUuDvBnYVtbcTYQems-81" target="7OgUuDvBnYVtbcTYQems-59" edge="1">
          <mxGeometry relative="1" as="geometry">
            <mxPoint x="1960" y="190" as="targetPoint" />
            <Array as="points">
              <mxPoint x="1937.5" y="160" />
              <mxPoint x="1962.5" y="160" />
            </Array>
          </mxGeometry>
        </mxCell>
        <mxCell id="7OgUuDvBnYVtbcTYQems-81" value="예약 조회" style="ellipse;whiteSpace=wrap;html=1;fillColor=#fff2cc;strokeColor=#d6b656;" parent="1" vertex="1">
          <mxGeometry x="1907.5" y="80" width="60" height="60" as="geometry" />
        </mxCell>
        <mxCell id="7OgUuDvBnYVtbcTYQems-82" value="" style="edgeStyle=orthogonalEdgeStyle;rounded=0;orthogonalLoop=1;jettySize=auto;html=1;startArrow=none;entryX=0.5;entryY=0;entryDx=0;entryDy=0;" parent="1" source="7OgUuDvBnYVtbcTYQems-88" target="7OgUuDvBnYVtbcTYQems-59" edge="1">
          <mxGeometry relative="1" as="geometry">
            <mxPoint x="1960" y="190" as="targetPoint" />
            <Array as="points">
              <mxPoint x="1865.5" y="160" />
              <mxPoint x="1960.5" y="160" />
              <mxPoint x="1960.5" y="180" />
              <mxPoint x="1962.5" y="180" />
            </Array>
          </mxGeometry>
        </mxCell>
        <mxCell id="7OgUuDvBnYVtbcTYQems-83" value="예약 수정" style="ellipse;whiteSpace=wrap;html=1;fillColor=#fff2cc;strokeColor=#d6b656;" parent="1" vertex="1">
          <mxGeometry x="1972.5" y="80" width="60" height="60" as="geometry" />
        </mxCell>
        <mxCell id="7OgUuDvBnYVtbcTYQems-84" value="" style="endArrow=classic;html=1;rounded=0;startSize=10;endSize=10;entryX=1;entryY=0.5;entryDx=0;entryDy=0;exitX=0;exitY=0.3333333333333333;exitDx=0;exitDy=0;exitPerimeter=0;" parent="1" source="7OgUuDvBnYVtbcTYQems-67" target="7OgUuDvBnYVtbcTYQems-59" edge="1">
          <mxGeometry width="50" height="50" relative="1" as="geometry">
            <mxPoint x="2180" y="1083.3333333333335" as="sourcePoint" />
            <mxPoint x="1950" y="1060" as="targetPoint" />
          </mxGeometry>
        </mxCell>
        <mxCell id="7OgUuDvBnYVtbcTYQems-85" value="&amp;lt;&amp;lt;includes&amp;gt;&amp;gt;" style="endArrow=open;html=1;rounded=0;dashed=1;startSize=10;endSize=10;entryX=0.5;entryY=1;entryDx=0;entryDy=0;exitX=0;exitY=0.5;exitDx=0;exitDy=0;endFill=0;" parent="1" source="7OgUuDvBnYVtbcTYQems-72" target="7OgUuDvBnYVtbcTYQems-18" edge="1">
          <mxGeometry x="0.1258" y="-1" width="50" height="50" relative="1" as="geometry">
            <mxPoint x="1873.4357633272143" y="1038.6177751571454" as="sourcePoint" />
            <mxPoint x="1664.71" y="508.8600000000001" as="targetPoint" />
            <mxPoint as="offset" />
          </mxGeometry>
        </mxCell>
        <mxCell id="7OgUuDvBnYVtbcTYQems-86" value="" style="endArrow=classic;html=1;rounded=0;startSize=10;endSize=10;entryX=1;entryY=0.5;entryDx=0;entryDy=0;exitX=0;exitY=0.3333333333333333;exitDx=0;exitDy=0;exitPerimeter=0;" parent="1" source="7OgUuDvBnYVtbcTYQems-67" target="7OgUuDvBnYVtbcTYQems-76" edge="1">
          <mxGeometry width="50" height="50" relative="1" as="geometry">
            <mxPoint x="2180" y="263.3333333333335" as="sourcePoint" />
            <mxPoint x="2017.5" y="230" as="targetPoint" />
          </mxGeometry>
        </mxCell>
        <mxCell id="7OgUuDvBnYVtbcTYQems-87" value="" style="edgeStyle=orthogonalEdgeStyle;rounded=0;orthogonalLoop=1;jettySize=auto;html=1;entryX=0.5;entryY=0;entryDx=0;entryDy=0;" parent="1" source="7OgUuDvBnYVtbcTYQems-88" target="7OgUuDvBnYVtbcTYQems-59" edge="1">
          <mxGeometry relative="1" as="geometry">
            <Array as="points">
              <mxPoint x="1865.5" y="160" />
              <mxPoint x="1962.5" y="160" />
            </Array>
          </mxGeometry>
        </mxCell>
        <mxCell id="7OgUuDvBnYVtbcTYQems-88" value="예약 승인" style="ellipse;whiteSpace=wrap;html=1;fillColor=#fff2cc;strokeColor=#d6b656;" parent="1" vertex="1">
          <mxGeometry x="1835" y="80" width="60" height="60" as="geometry" />
        </mxCell>
        <mxCell id="7OgUuDvBnYVtbcTYQems-89" value="" style="edgeStyle=orthogonalEdgeStyle;rounded=0;orthogonalLoop=1;jettySize=auto;html=1;endArrow=none;" parent="1" source="7OgUuDvBnYVtbcTYQems-83" target="7OgUuDvBnYVtbcTYQems-88" edge="1">
          <mxGeometry relative="1" as="geometry">
            <mxPoint x="1960" y="190" as="targetPoint" />
            <Array as="points">
              <mxPoint x="2002.5" y="160" />
            </Array>
            <mxPoint x="2002.5" y="140" as="sourcePoint" />
          </mxGeometry>
        </mxCell>
        <mxCell id="7OgUuDvBnYVtbcTYQems-95" value="" style="edgeStyle=orthogonalEdgeStyle;rounded=0;orthogonalLoop=1;jettySize=auto;html=1;" parent="1" source="7OgUuDvBnYVtbcTYQems-90" target="7OgUuDvBnYVtbcTYQems-11" edge="1">
          <mxGeometry relative="1" as="geometry">
            <Array as="points">
              <mxPoint x="1902.5" y="1000" />
              <mxPoint x="1895.5" y="1000" />
            </Array>
          </mxGeometry>
        </mxCell>
        <mxCell id="7OgUuDvBnYVtbcTYQems-90" value="숙소등록" style="ellipse;whiteSpace=wrap;html=1;fillColor=#fff2cc;strokeColor=#d6b656;" parent="1" vertex="1">
          <mxGeometry x="1872.5" y="930" width="60" height="60" as="geometry" />
        </mxCell>
        <mxCell id="7OgUuDvBnYVtbcTYQems-96" value="" style="edgeStyle=orthogonalEdgeStyle;rounded=0;orthogonalLoop=1;jettySize=auto;html=1;" parent="1" source="7OgUuDvBnYVtbcTYQems-91" target="7OgUuDvBnYVtbcTYQems-11" edge="1">
          <mxGeometry relative="1" as="geometry">
            <Array as="points">
              <mxPoint x="1975.5" y="1000" />
              <mxPoint x="1895.5" y="1000" />
            </Array>
          </mxGeometry>
        </mxCell>
        <mxCell id="7OgUuDvBnYVtbcTYQems-91" value="숙소 수정" style="ellipse;whiteSpace=wrap;html=1;fillColor=#fff2cc;strokeColor=#d6b656;" parent="1" vertex="1">
          <mxGeometry x="1945" y="930" width="60" height="60" as="geometry" />
        </mxCell>
        <mxCell id="7OgUuDvBnYVtbcTYQems-97" value="" style="edgeStyle=orthogonalEdgeStyle;rounded=0;orthogonalLoop=1;jettySize=auto;html=1;" parent="1" source="7OgUuDvBnYVtbcTYQems-92" target="7OgUuDvBnYVtbcTYQems-11" edge="1">
          <mxGeometry relative="1" as="geometry">
            <Array as="points">
              <mxPoint x="2040.5" y="1000" />
              <mxPoint x="1895.5" y="1000" />
            </Array>
          </mxGeometry>
        </mxCell>
        <mxCell id="7OgUuDvBnYVtbcTYQems-92" value="숙소 삭제" style="ellipse;whiteSpace=wrap;html=1;fillColor=#fff2cc;strokeColor=#d6b656;" parent="1" vertex="1">
          <mxGeometry x="2010" y="930" width="60" height="60" as="geometry" />
        </mxCell>
        <mxCell id="7OgUuDvBnYVtbcTYQems-94" value="" style="edgeStyle=orthogonalEdgeStyle;rounded=0;orthogonalLoop=1;jettySize=auto;html=1;" parent="1" source="7OgUuDvBnYVtbcTYQems-93" target="7OgUuDvBnYVtbcTYQems-72" edge="1">
          <mxGeometry relative="1" as="geometry" />
        </mxCell>
        <mxCell id="7OgUuDvBnYVtbcTYQems-93" value="예약 조회" style="ellipse;whiteSpace=wrap;html=1;fillColor=#fff2cc;strokeColor=#d6b656;" parent="1" vertex="1">
          <mxGeometry x="1865" y="1240" width="60" height="60" as="geometry" />
        </mxCell>
        <mxCell id="7OgUuDvBnYVtbcTYQems-100" value="" style="edgeStyle=orthogonalEdgeStyle;rounded=0;orthogonalLoop=1;jettySize=auto;html=1;" parent="1" source="7OgUuDvBnYVtbcTYQems-98" target="7OgUuDvBnYVtbcTYQems-76" edge="1">
          <mxGeometry relative="1" as="geometry" />
        </mxCell>
        <mxCell id="7OgUuDvBnYVtbcTYQems-98" value="멤버 조회" style="ellipse;whiteSpace=wrap;html=1;fillColor=#fff2cc;strokeColor=#d6b656;" parent="1" vertex="1">
          <mxGeometry x="1904" y="390" width="60" height="60" as="geometry" />
        </mxCell>
        <mxCell id="7OgUuDvBnYVtbcTYQems-101" value="" style="edgeStyle=orthogonalEdgeStyle;rounded=0;orthogonalLoop=1;jettySize=auto;html=1;" parent="1" source="7OgUuDvBnYVtbcTYQems-99" target="7OgUuDvBnYVtbcTYQems-76" edge="1">
          <mxGeometry relative="1" as="geometry" />
        </mxCell>
        <mxCell id="7OgUuDvBnYVtbcTYQems-99" value="멤버 삭제" style="ellipse;whiteSpace=wrap;html=1;fillColor=#fff2cc;strokeColor=#d6b656;" parent="1" vertex="1">
          <mxGeometry x="1972.5" y="390" width="60" height="60" as="geometry" />
        </mxCell>
        <mxCell id="P4YQJe9zLJnCi4vXwvvj-1" value="&amp;lt;&amp;lt;includes&amp;gt;&amp;gt;" style="endArrow=open;html=1;rounded=0;dashed=1;startSize=10;endSize=10;entryX=1;entryY=0;entryDx=0;entryDy=0;exitX=0;exitY=0.5;exitDx=0;exitDy=0;endFill=0;" edge="1" parent="1" source="7OgUuDvBnYVtbcTYQems-76" target="7OgUuDvBnYVtbcTYQems-18">
          <mxGeometry x="-0.433" y="4" width="50" height="50" relative="1" as="geometry">
            <mxPoint x="1927.5" y="230" as="sourcePoint" />
            <mxPoint x="1645" y="450" as="targetPoint" />
            <mxPoint x="-1" as="offset" />
          </mxGeometry>
        </mxCell>
      </root>
    </mxGraphModel>
  </diagram>
  <diagram id="GdRORdRjzIzfb_fSJSPl" name="CLASS DIAGRAM">
    <mxGraphModel dx="1422" dy="794" grid="1" gridSize="10" guides="1" tooltips="1" connect="1" arrows="1" fold="1" page="1" pageScale="1" pageWidth="3300" pageHeight="4681" math="0" shadow="0">
      <root>
        <mxCell id="0" />
        <mxCell id="1" parent="0" />
        <mxCell id="1U7tkj2lGaHPTDt_HG95-1" value="&lt;div style=&quot;text-align: left;&quot;&gt;&lt;span style=&quot;background-color: initial;&quot;&gt;Owner는 숙소등록과 멤버예약관리(조회,수정,삭제)를 할수있다.&lt;/span&gt;&lt;/div&gt;&lt;div style=&quot;text-align: left;&quot;&gt;&lt;span style=&quot;background-color: initial;&quot;&gt;Non-Member과 Member는 숙소등록과 멤버예약관리를 할수없다.&lt;/span&gt;&lt;/div&gt;&lt;div style=&quot;text-align: left;&quot;&gt;&lt;span style=&quot;background-color: initial;&quot;&gt;&lt;br&gt;&lt;/span&gt;&lt;/div&gt;&lt;div style=&quot;text-align: left;&quot;&gt;&lt;span style=&quot;background-color: initial;&quot;&gt;Owner는 회원가입을 할 수 없다.&lt;/span&gt;&lt;/div&gt;&lt;div style=&quot;text-align: left;&quot;&gt;Non-Member는 회원가입을 할 수 있다.&lt;/div&gt;&lt;div style=&quot;text-align: left;&quot;&gt;Member는 회원가입을 할 수 없다.&lt;/div&gt;&lt;div style=&quot;text-align: left;&quot;&gt;&lt;span style=&quot;background-color: initial;&quot;&gt;&lt;br&gt;&lt;/span&gt;&lt;/div&gt;&lt;div style=&quot;text-align: left;&quot;&gt;Owner는 나의정보를 확인할 수 없다.&lt;/div&gt;&lt;div style=&quot;text-align: left;&quot;&gt;Non-Member는 나의정보를 확인할 수 없다.&lt;/div&gt;&lt;div style=&quot;text-align: left;&quot;&gt;Member는 나의정보(수정,삭제)를 확인할 수 있다.&lt;/div&gt;&lt;div style=&quot;text-align: left;&quot;&gt;&lt;br&gt;&lt;/div&gt;&lt;div style=&quot;text-align: left;&quot;&gt;Owner는 숙소조회를 할 수 없다.&lt;/div&gt;&lt;div style=&quot;text-align: left;&quot;&gt;Non-Member는 숙소조회 (특가조회,전체조회,상세조회,위치검색)&lt;span style=&quot;background-color: initial;&quot;&gt;를 할 수 있다.&lt;/span&gt;&lt;/div&gt;&lt;div style=&quot;text-align: left;&quot;&gt;Member는 숙소조회(특가조회,전체조회,상세조회,위치검색)를 할 수 있다.&lt;/div&gt;&lt;div style=&quot;text-align: left;&quot;&gt;&lt;br&gt;&lt;/div&gt;&lt;div style=&quot;text-align: left;&quot;&gt;Owner는 리뷰작성을 할 수 없다.&lt;/div&gt;&lt;div style=&quot;text-align: left;&quot;&gt;Non-Member는 리뷰작성을 할 수 없다.&lt;/div&gt;&lt;div style=&quot;text-align: left;&quot;&gt;Member는 리뷰작성을 할 수 있다.&lt;/div&gt;&lt;div style=&quot;text-align: left;&quot;&gt;&lt;br&gt;&lt;/div&gt;&lt;div style=&quot;text-align: left;&quot;&gt;Owner는 숙소예약을 할수없다.&lt;/div&gt;&lt;div style=&quot;text-align: left;&quot;&gt;Non-Member는 숙소예약을 할수없다.&lt;/div&gt;&lt;div style=&quot;text-align: left;&quot;&gt;Member는 숙소예약을 할수있다.&lt;/div&gt;&lt;div style=&quot;text-align: left;&quot;&gt;&lt;br&gt;&lt;/div&gt;&lt;div style=&quot;text-align: left;&quot;&gt;Owner는 예약조회를 할 수 없다.&lt;/div&gt;&lt;div style=&quot;text-align: left;&quot;&gt;Non-Member는 예약조회를 할 수 없다.&lt;/div&gt;&lt;div style=&quot;text-align: left;&quot;&gt;Member는 예약조회를 할 수 있다.&lt;/div&gt;&lt;div style=&quot;text-align: left;&quot;&gt;&lt;br&gt;&lt;/div&gt;&lt;div style=&quot;text-align: left;&quot;&gt;Owner는 예약취소를 할 수 없다.&lt;/div&gt;&lt;div style=&quot;text-align: left;&quot;&gt;Non-Member는 예약취소를 할 수 없다.&lt;/div&gt;&lt;div style=&quot;text-align: left;&quot;&gt;Member는 예약취소를 할 수 있다.&lt;/div&gt;&lt;div style=&quot;text-align: left;&quot;&gt;&lt;br&gt;&lt;/div&gt;&lt;div style=&quot;text-align: left;&quot;&gt;리뷰작성, 숙소예약, 예약조회, 예약취소, 멤버예약관리, 숙소등록 은&lt;/div&gt;&lt;div style=&quot;text-align: left;&quot;&gt;로그인 인증 후 이용할 수 있다.&lt;/div&gt;&lt;div style=&quot;text-align: left;&quot;&gt;&lt;br&gt;&lt;/div&gt;&lt;div style=&quot;text-align: left;&quot;&gt;로그인방식에는 페이스북,Google,Apple,E-Mail등이 있다.&lt;/div&gt;&lt;div style=&quot;text-align: left;&quot;&gt;&lt;br&gt;&lt;/div&gt;&lt;div style=&quot;text-align: left;&quot;&gt;결제방식에는 무통장입금, 카드결제 가 있다.&lt;/div&gt;" style="text;html=1;align=center;verticalAlign=middle;resizable=0;points=[];autosize=1;strokeColor=none;fillColor=none;" parent="1" vertex="1">
          <mxGeometry x="10" y="20" width="440" height="550" as="geometry" />
        </mxCell>
        <mxCell id="HR5rdaaua7dhn80-lfWI-1" value="Member" style="swimlane;fontStyle=1;align=center;verticalAlign=top;childLayout=stackLayout;horizontal=1;startSize=26;horizontalStack=0;resizeParent=1;resizeParentMax=0;resizeLast=0;collapsible=1;marginBottom=0;" parent="1" vertex="1">
          <mxGeometry x="1060" y="590" width="160" height="398" as="geometry" />
        </mxCell>
        <mxCell id="HR5rdaaua7dhn80-lfWI-5" value="+userid : String" style="text;strokeColor=none;fillColor=none;align=left;verticalAlign=top;spacingLeft=4;spacingRight=4;overflow=hidden;rotatable=0;points=[[0,0.5],[1,0.5]];portConstraint=eastwest;" parent="HR5rdaaua7dhn80-lfWI-1" vertex="1">
          <mxGeometry y="26" width="160" height="26" as="geometry" />
        </mxCell>
        <mxCell id="HR5rdaaua7dhn80-lfWI-2" value="+memId : String" style="text;strokeColor=none;fillColor=none;align=left;verticalAlign=top;spacingLeft=4;spacingRight=4;overflow=hidden;rotatable=0;points=[[0,0.5],[1,0.5]];portConstraint=eastwest;" parent="HR5rdaaua7dhn80-lfWI-1" vertex="1">
          <mxGeometry y="52" width="160" height="26" as="geometry" />
        </mxCell>
        <mxCell id="HR5rdaaua7dhn80-lfWI-3" value="+pwd : String" style="text;strokeColor=none;fillColor=none;align=left;verticalAlign=top;spacingLeft=4;spacingRight=4;overflow=hidden;rotatable=0;points=[[0,0.5],[1,0.5]];portConstraint=eastwest;" parent="HR5rdaaua7dhn80-lfWI-1" vertex="1">
          <mxGeometry y="78" width="160" height="26" as="geometry" />
        </mxCell>
        <mxCell id="HR5rdaaua7dhn80-lfWI-4" value="+name : String" style="text;strokeColor=none;fillColor=none;align=left;verticalAlign=top;spacingLeft=4;spacingRight=4;overflow=hidden;rotatable=0;points=[[0,0.5],[1,0.5]];portConstraint=eastwest;" parent="HR5rdaaua7dhn80-lfWI-1" vertex="1">
          <mxGeometry y="104" width="160" height="26" as="geometry" />
        </mxCell>
        <mxCell id="HR5rdaaua7dhn80-lfWI-6" value="+phone : String" style="text;strokeColor=none;fillColor=none;align=left;verticalAlign=top;spacingLeft=4;spacingRight=4;overflow=hidden;rotatable=0;points=[[0,0.5],[1,0.5]];portConstraint=eastwest;" parent="HR5rdaaua7dhn80-lfWI-1" vertex="1">
          <mxGeometry y="130" width="160" height="26" as="geometry" />
        </mxCell>
        <mxCell id="HR5rdaaua7dhn80-lfWI-7" value="+addr : String" style="text;strokeColor=none;fillColor=none;align=left;verticalAlign=top;spacingLeft=4;spacingRight=4;overflow=hidden;rotatable=0;points=[[0,0.5],[1,0.5]];portConstraint=eastwest;" parent="HR5rdaaua7dhn80-lfWI-1" vertex="1">
          <mxGeometry y="156" width="160" height="26" as="geometry" />
        </mxCell>
        <mxCell id="HR5rdaaua7dhn80-lfWI-8" value="+email : String" style="text;strokeColor=none;fillColor=none;align=left;verticalAlign=top;spacingLeft=4;spacingRight=4;overflow=hidden;rotatable=0;points=[[0,0.5],[1,0.5]];portConstraint=eastwest;" parent="HR5rdaaua7dhn80-lfWI-1" vertex="1">
          <mxGeometry y="182" width="160" height="26" as="geometry" />
        </mxCell>
        <mxCell id="HR5rdaaua7dhn80-lfWI-9" value="" style="line;strokeWidth=1;fillColor=none;align=left;verticalAlign=middle;spacingTop=-1;spacingLeft=3;spacingRight=3;rotatable=0;labelPosition=right;points=[];portConstraint=eastwest;strokeColor=inherit;" parent="HR5rdaaua7dhn80-lfWI-1" vertex="1">
          <mxGeometry y="208" width="160" height="8" as="geometry" />
        </mxCell>
        <mxCell id="HR5rdaaua7dhn80-lfWI-10" value="+ ShowAllHotel() : ArrayList&lt;HotelDTO&gt;" style="text;strokeColor=none;fillColor=none;align=left;verticalAlign=top;spacingLeft=4;spacingRight=4;overflow=hidden;rotatable=0;points=[[0,0.5],[1,0.5]];portConstraint=eastwest;" parent="HR5rdaaua7dhn80-lfWI-1" vertex="1">
          <mxGeometry y="216" width="160" height="26" as="geometry" />
        </mxCell>
        <mxCell id="HR5rdaaua7dhn80-lfWI-11" value="+ RegisterMem() : boolean" style="text;strokeColor=none;fillColor=none;align=left;verticalAlign=top;spacingLeft=4;spacingRight=4;overflow=hidden;rotatable=0;points=[[0,0.5],[1,0.5]];portConstraint=eastwest;" parent="HR5rdaaua7dhn80-lfWI-1" vertex="1">
          <mxGeometry y="242" width="160" height="26" as="geometry" />
        </mxCell>
        <mxCell id="HR5rdaaua7dhn80-lfWI-12" value="+ UpdateAddress() :boolean" style="text;strokeColor=none;fillColor=none;align=left;verticalAlign=top;spacingLeft=4;spacingRight=4;overflow=hidden;rotatable=0;points=[[0,0.5],[1,0.5]];portConstraint=eastwest;" parent="HR5rdaaua7dhn80-lfWI-1" vertex="1">
          <mxGeometry y="268" width="160" height="26" as="geometry" />
        </mxCell>
        <mxCell id="HR5rdaaua7dhn80-lfWI-13" value="+ UnregisterMem() : boolean" style="text;strokeColor=none;fillColor=none;align=left;verticalAlign=top;spacingLeft=4;spacingRight=4;overflow=hidden;rotatable=0;points=[[0,0.5],[1,0.5]];portConstraint=eastwest;" parent="HR5rdaaua7dhn80-lfWI-1" vertex="1">
          <mxGeometry y="294" width="160" height="26" as="geometry" />
        </mxCell>
        <mxCell id="HR5rdaaua7dhn80-lfWI-14" value="+ ReserveHotel() : boolean" style="text;strokeColor=none;fillColor=none;align=left;verticalAlign=top;spacingLeft=4;spacingRight=4;overflow=hidden;rotatable=0;points=[[0,0.5],[1,0.5]];portConstraint=eastwest;" parent="HR5rdaaua7dhn80-lfWI-1" vertex="1">
          <mxGeometry y="320" width="160" height="26" as="geometry" />
        </mxCell>
        <mxCell id="HR5rdaaua7dhn80-lfWI-15" value="+ CancelReserve() : boolean" style="text;strokeColor=none;fillColor=none;align=left;verticalAlign=top;spacingLeft=4;spacingRight=4;overflow=hidden;rotatable=0;points=[[0,0.5],[1,0.5]];portConstraint=eastwest;" parent="HR5rdaaua7dhn80-lfWI-1" vertex="1">
          <mxGeometry y="346" width="160" height="26" as="geometry" />
        </mxCell>
        <mxCell id="HR5rdaaua7dhn80-lfWI-16" value="+ SearchReserve() : boolean" style="text;strokeColor=none;fillColor=none;align=left;verticalAlign=top;spacingLeft=4;spacingRight=4;overflow=hidden;rotatable=0;points=[[0,0.5],[1,0.5]];portConstraint=eastwest;" parent="HR5rdaaua7dhn80-lfWI-1" vertex="1">
          <mxGeometry y="372" width="160" height="26" as="geometry" />
        </mxCell>
        <mxCell id="HR5rdaaua7dhn80-lfWI-17" value="Hotel" style="swimlane;fontStyle=1;align=center;verticalAlign=top;childLayout=stackLayout;horizontal=1;startSize=26;horizontalStack=0;resizeParent=1;resizeParentMax=0;resizeLast=0;collapsible=1;marginBottom=0;" parent="1" vertex="1">
          <mxGeometry x="1060" y="40" width="160" height="164" as="geometry" />
        </mxCell>
        <mxCell id="HR5rdaaua7dhn80-lfWI-18" value="+hotelId : String" style="text;strokeColor=none;fillColor=none;align=left;verticalAlign=top;spacingLeft=4;spacingRight=4;overflow=hidden;rotatable=0;points=[[0,0.5],[1,0.5]];portConstraint=eastwest;" parent="HR5rdaaua7dhn80-lfWI-17" vertex="1">
          <mxGeometry y="26" width="160" height="26" as="geometry" />
        </mxCell>
        <mxCell id="HR5rdaaua7dhn80-lfWI-19" value="+hotelName : String" style="text;strokeColor=none;fillColor=none;align=left;verticalAlign=top;spacingLeft=4;spacingRight=4;overflow=hidden;rotatable=0;points=[[0,0.5],[1,0.5]];portConstraint=eastwest;" parent="HR5rdaaua7dhn80-lfWI-17" vertex="1">
          <mxGeometry y="52" width="160" height="26" as="geometry" />
        </mxCell>
        <mxCell id="HR5rdaaua7dhn80-lfWI-20" value="+isReserve : boolean" style="text;strokeColor=none;fillColor=none;align=left;verticalAlign=top;spacingLeft=4;spacingRight=4;overflow=hidden;rotatable=0;points=[[0,0.5],[1,0.5]];portConstraint=eastwest;" parent="HR5rdaaua7dhn80-lfWI-17" vertex="1">
          <mxGeometry y="78" width="160" height="26" as="geometry" />
        </mxCell>
        <mxCell id="HR5rdaaua7dhn80-lfWI-21" value="+price : int" style="text;strokeColor=none;fillColor=none;align=left;verticalAlign=top;spacingLeft=4;spacingRight=4;overflow=hidden;rotatable=0;points=[[0,0.5],[1,0.5]];portConstraint=eastwest;" parent="HR5rdaaua7dhn80-lfWI-17" vertex="1">
          <mxGeometry y="104" width="160" height="26" as="geometry" />
        </mxCell>
        <mxCell id="HR5rdaaua7dhn80-lfWI-22" value="" style="line;strokeWidth=1;fillColor=none;align=left;verticalAlign=middle;spacingTop=-1;spacingLeft=3;spacingRight=3;rotatable=0;labelPosition=right;points=[];portConstraint=eastwest;strokeColor=inherit;" parent="HR5rdaaua7dhn80-lfWI-17" vertex="1">
          <mxGeometry y="130" width="160" height="8" as="geometry" />
        </mxCell>
        <mxCell id="HR5rdaaua7dhn80-lfWI-23" value="+ method(type): type" style="text;strokeColor=none;fillColor=none;align=left;verticalAlign=top;spacingLeft=4;spacingRight=4;overflow=hidden;rotatable=0;points=[[0,0.5],[1,0.5]];portConstraint=eastwest;" parent="HR5rdaaua7dhn80-lfWI-17" vertex="1">
          <mxGeometry y="138" width="160" height="26" as="geometry" />
        </mxCell>
        <mxCell id="HR5rdaaua7dhn80-lfWI-24" value="Reserve" style="swimlane;fontStyle=1;align=center;verticalAlign=top;childLayout=stackLayout;horizontal=1;startSize=26;horizontalStack=0;resizeParent=1;resizeParentMax=0;resizeLast=0;collapsible=1;marginBottom=0;" parent="1" vertex="1">
          <mxGeometry x="1060" y="310" width="160" height="190" as="geometry" />
        </mxCell>
        <mxCell id="HR5rdaaua7dhn80-lfWI-25" value="+rId : String" style="text;strokeColor=none;fillColor=none;align=left;verticalAlign=top;spacingLeft=4;spacingRight=4;overflow=hidden;rotatable=0;points=[[0,0.5],[1,0.5]];portConstraint=eastwest;" parent="HR5rdaaua7dhn80-lfWI-24" vertex="1">
          <mxGeometry y="26" width="160" height="26" as="geometry" />
        </mxCell>
        <mxCell id="HR5rdaaua7dhn80-lfWI-26" value="+userid : String" style="text;strokeColor=none;fillColor=none;align=left;verticalAlign=top;spacingLeft=4;spacingRight=4;overflow=hidden;rotatable=0;points=[[0,0.5],[1,0.5]];portConstraint=eastwest;" parent="HR5rdaaua7dhn80-lfWI-24" vertex="1">
          <mxGeometry y="52" width="160" height="26" as="geometry" />
        </mxCell>
        <mxCell id="HR5rdaaua7dhn80-lfWI-27" value="+hotelId : String" style="text;strokeColor=none;fillColor=none;align=left;verticalAlign=top;spacingLeft=4;spacingRight=4;overflow=hidden;rotatable=0;points=[[0,0.5],[1,0.5]];portConstraint=eastwest;" parent="HR5rdaaua7dhn80-lfWI-24" vertex="1">
          <mxGeometry y="78" width="160" height="26" as="geometry" />
        </mxCell>
        <mxCell id="HR5rdaaua7dhn80-lfWI-28" value="+startDate : Date" style="text;strokeColor=none;fillColor=none;align=left;verticalAlign=top;spacingLeft=4;spacingRight=4;overflow=hidden;rotatable=0;points=[[0,0.5],[1,0.5]];portConstraint=eastwest;" parent="HR5rdaaua7dhn80-lfWI-24" vertex="1">
          <mxGeometry y="104" width="160" height="26" as="geometry" />
        </mxCell>
        <mxCell id="HR5rdaaua7dhn80-lfWI-29" value="+endDate : Date" style="text;strokeColor=none;fillColor=none;align=left;verticalAlign=top;spacingLeft=4;spacingRight=4;overflow=hidden;rotatable=0;points=[[0,0.5],[1,0.5]];portConstraint=eastwest;" parent="HR5rdaaua7dhn80-lfWI-24" vertex="1">
          <mxGeometry y="130" width="160" height="26" as="geometry" />
        </mxCell>
        <mxCell id="HR5rdaaua7dhn80-lfWI-30" value="" style="line;strokeWidth=1;fillColor=none;align=left;verticalAlign=middle;spacingTop=-1;spacingLeft=3;spacingRight=3;rotatable=0;labelPosition=right;points=[];portConstraint=eastwest;strokeColor=inherit;" parent="HR5rdaaua7dhn80-lfWI-24" vertex="1">
          <mxGeometry y="156" width="160" height="8" as="geometry" />
        </mxCell>
        <mxCell id="HR5rdaaua7dhn80-lfWI-31" value="+ method(type): type" style="text;strokeColor=none;fillColor=none;align=left;verticalAlign=top;spacingLeft=4;spacingRight=4;overflow=hidden;rotatable=0;points=[[0,0.5],[1,0.5]];portConstraint=eastwest;" parent="HR5rdaaua7dhn80-lfWI-24" vertex="1">
          <mxGeometry y="164" width="160" height="26" as="geometry" />
        </mxCell>
        <mxCell id="HR5rdaaua7dhn80-lfWI-32" value="Login" style="swimlane;fontStyle=1;align=center;verticalAlign=top;childLayout=stackLayout;horizontal=1;startSize=26;horizontalStack=0;resizeParent=1;resizeParentMax=0;resizeLast=0;collapsible=1;marginBottom=0;" parent="1" vertex="1">
          <mxGeometry x="1370" y="640" width="160" height="216" as="geometry" />
        </mxCell>
        <mxCell id="HR5rdaaua7dhn80-lfWI-36" value="+memId : String" style="text;strokeColor=none;fillColor=none;align=left;verticalAlign=top;spacingLeft=4;spacingRight=4;overflow=hidden;rotatable=0;points=[[0,0.5],[1,0.5]];portConstraint=eastwest;" parent="HR5rdaaua7dhn80-lfWI-32" vertex="1">
          <mxGeometry y="26" width="160" height="26" as="geometry" />
        </mxCell>
        <mxCell id="HR5rdaaua7dhn80-lfWI-37" value="+pwd : String" style="text;strokeColor=none;fillColor=none;align=left;verticalAlign=top;spacingLeft=4;spacingRight=4;overflow=hidden;rotatable=0;points=[[0,0.5],[1,0.5]];portConstraint=eastwest;" parent="HR5rdaaua7dhn80-lfWI-32" vertex="1">
          <mxGeometry y="52" width="160" height="26" as="geometry" />
        </mxCell>
        <mxCell id="HR5rdaaua7dhn80-lfWI-35" value="+Salt : String" style="text;strokeColor=none;fillColor=none;align=left;verticalAlign=top;spacingLeft=4;spacingRight=4;overflow=hidden;rotatable=0;points=[[0,0.5],[1,0.5]];portConstraint=eastwest;" parent="HR5rdaaua7dhn80-lfWI-32" vertex="1">
          <mxGeometry y="78" width="160" height="26" as="geometry" />
        </mxCell>
        <mxCell id="HR5rdaaua7dhn80-lfWI-38" value="" style="line;strokeWidth=1;fillColor=none;align=left;verticalAlign=middle;spacingTop=-1;spacingLeft=3;spacingRight=3;rotatable=0;labelPosition=right;points=[];portConstraint=eastwest;strokeColor=inherit;" parent="HR5rdaaua7dhn80-lfWI-32" vertex="1">
          <mxGeometry y="104" width="160" height="8" as="geometry" />
        </mxCell>
        <mxCell id="HR5rdaaua7dhn80-lfWI-39" value="+Google() : void" style="text;strokeColor=none;fillColor=none;align=left;verticalAlign=top;spacingLeft=4;spacingRight=4;overflow=hidden;rotatable=0;points=[[0,0.5],[1,0.5]];portConstraint=eastwest;" parent="HR5rdaaua7dhn80-lfWI-32" vertex="1">
          <mxGeometry y="112" width="160" height="26" as="geometry" />
        </mxCell>
        <mxCell id="HR5rdaaua7dhn80-lfWI-40" value="+Apple() : void" style="text;strokeColor=none;fillColor=none;align=left;verticalAlign=top;spacingLeft=4;spacingRight=4;overflow=hidden;rotatable=0;points=[[0,0.5],[1,0.5]];portConstraint=eastwest;" parent="HR5rdaaua7dhn80-lfWI-32" vertex="1">
          <mxGeometry y="138" width="160" height="26" as="geometry" />
        </mxCell>
        <mxCell id="HR5rdaaua7dhn80-lfWI-41" value="+Facebook() : void" style="text;strokeColor=none;fillColor=none;align=left;verticalAlign=top;spacingLeft=4;spacingRight=4;overflow=hidden;rotatable=0;points=[[0,0.5],[1,0.5]];portConstraint=eastwest;" parent="HR5rdaaua7dhn80-lfWI-32" vertex="1">
          <mxGeometry y="164" width="160" height="26" as="geometry" />
        </mxCell>
        <mxCell id="HR5rdaaua7dhn80-lfWI-42" value="+E-mail() : void" style="text;strokeColor=none;fillColor=none;align=left;verticalAlign=top;spacingLeft=4;spacingRight=4;overflow=hidden;rotatable=0;points=[[0,0.5],[1,0.5]];portConstraint=eastwest;" parent="HR5rdaaua7dhn80-lfWI-32" vertex="1">
          <mxGeometry y="190" width="160" height="26" as="geometry" />
        </mxCell>
        <mxCell id="HR5rdaaua7dhn80-lfWI-43" value="Owner" style="swimlane;fontStyle=1;align=center;verticalAlign=top;childLayout=stackLayout;horizontal=1;startSize=26;horizontalStack=0;resizeParent=1;resizeParentMax=0;resizeLast=0;collapsible=1;marginBottom=0;" parent="1" vertex="1">
          <mxGeometry x="460" y="40" width="160" height="242" as="geometry" />
        </mxCell>
        <mxCell id="tYDExsxgHDnbJgKsAJQZ-1" value="+ownerId : String" style="text;strokeColor=none;fillColor=none;align=left;verticalAlign=top;spacingLeft=4;spacingRight=4;overflow=hidden;rotatable=0;points=[[0,0.5],[1,0.5]];portConstraint=eastwest;" vertex="1" parent="HR5rdaaua7dhn80-lfWI-43">
          <mxGeometry y="26" width="160" height="26" as="geometry" />
        </mxCell>
        <mxCell id="HR5rdaaua7dhn80-lfWI-44" value="+hotelId : String" style="text;strokeColor=none;fillColor=none;align=left;verticalAlign=top;spacingLeft=4;spacingRight=4;overflow=hidden;rotatable=0;points=[[0,0.5],[1,0.5]];portConstraint=eastwest;" parent="HR5rdaaua7dhn80-lfWI-43" vertex="1">
          <mxGeometry y="52" width="160" height="26" as="geometry" />
        </mxCell>
        <mxCell id="HR5rdaaua7dhn80-lfWI-45" value="+hotelName : String" style="text;strokeColor=none;fillColor=none;align=left;verticalAlign=top;spacingLeft=4;spacingRight=4;overflow=hidden;rotatable=0;points=[[0,0.5],[1,0.5]];portConstraint=eastwest;" parent="HR5rdaaua7dhn80-lfWI-43" vertex="1">
          <mxGeometry y="78" width="160" height="26" as="geometry" />
        </mxCell>
        <mxCell id="HR5rdaaua7dhn80-lfWI-46" value="+isReserve : boolean" style="text;strokeColor=none;fillColor=none;align=left;verticalAlign=top;spacingLeft=4;spacingRight=4;overflow=hidden;rotatable=0;points=[[0,0.5],[1,0.5]];portConstraint=eastwest;" parent="HR5rdaaua7dhn80-lfWI-43" vertex="1">
          <mxGeometry y="104" width="160" height="26" as="geometry" />
        </mxCell>
        <mxCell id="HR5rdaaua7dhn80-lfWI-47" value="" style="line;strokeWidth=1;fillColor=none;align=left;verticalAlign=middle;spacingTop=-1;spacingLeft=3;spacingRight=3;rotatable=0;labelPosition=right;points=[];portConstraint=eastwest;strokeColor=inherit;" parent="HR5rdaaua7dhn80-lfWI-43" vertex="1">
          <mxGeometry y="130" width="160" height="8" as="geometry" />
        </mxCell>
        <mxCell id="HR5rdaaua7dhn80-lfWI-48" value="+ RegisterHotel(): boolean" style="text;strokeColor=none;fillColor=none;align=left;verticalAlign=top;spacingLeft=4;spacingRight=4;overflow=hidden;rotatable=0;points=[[0,0.5],[1,0.5]];portConstraint=eastwest;" parent="HR5rdaaua7dhn80-lfWI-43" vertex="1">
          <mxGeometry y="138" width="160" height="26" as="geometry" />
        </mxCell>
        <mxCell id="HR5rdaaua7dhn80-lfWI-49" value="+ ChangePrice() : boolean" style="text;strokeColor=none;fillColor=none;align=left;verticalAlign=top;spacingLeft=4;spacingRight=4;overflow=hidden;rotatable=0;points=[[0,0.5],[1,0.5]];portConstraint=eastwest;" parent="HR5rdaaua7dhn80-lfWI-43" vertex="1">
          <mxGeometry y="164" width="160" height="26" as="geometry" />
        </mxCell>
        <mxCell id="HR5rdaaua7dhn80-lfWI-50" value="+ ModifyDate : boolean" style="text;strokeColor=none;fillColor=none;align=left;verticalAlign=top;spacingLeft=4;spacingRight=4;overflow=hidden;rotatable=0;points=[[0,0.5],[1,0.5]];portConstraint=eastwest;" parent="HR5rdaaua7dhn80-lfWI-43" vertex="1">
          <mxGeometry y="190" width="160" height="26" as="geometry" />
        </mxCell>
        <mxCell id="HR5rdaaua7dhn80-lfWI-51" value="+ UnregisterHotel() : boolean" style="text;strokeColor=none;fillColor=none;align=left;verticalAlign=top;spacingLeft=4;spacingRight=4;overflow=hidden;rotatable=0;points=[[0,0.5],[1,0.5]];portConstraint=eastwest;" parent="HR5rdaaua7dhn80-lfWI-43" vertex="1">
          <mxGeometry y="216" width="160" height="26" as="geometry" />
        </mxCell>
        <mxCell id="HR5rdaaua7dhn80-lfWI-52" value="Payment" style="swimlane;fontStyle=1;align=center;verticalAlign=top;childLayout=stackLayout;horizontal=1;startSize=26;horizontalStack=0;resizeParent=1;resizeParentMax=0;resizeLast=0;collapsible=1;marginBottom=0;" parent="1" vertex="1">
          <mxGeometry x="726" y="670" width="160" height="138" as="geometry" />
        </mxCell>
        <mxCell id="HR5rdaaua7dhn80-lfWI-53" value="+payId : int" style="text;strokeColor=none;fillColor=none;align=left;verticalAlign=top;spacingLeft=4;spacingRight=4;overflow=hidden;rotatable=0;points=[[0,0.5],[1,0.5]];portConstraint=eastwest;" parent="HR5rdaaua7dhn80-lfWI-52" vertex="1">
          <mxGeometry y="26" width="160" height="26" as="geometry" />
        </mxCell>
        <mxCell id="HR5rdaaua7dhn80-lfWI-55" value="+userid : String" style="text;strokeColor=none;fillColor=none;align=left;verticalAlign=top;spacingLeft=4;spacingRight=4;overflow=hidden;rotatable=0;points=[[0,0.5],[1,0.5]];portConstraint=eastwest;" parent="HR5rdaaua7dhn80-lfWI-52" vertex="1">
          <mxGeometry y="52" width="160" height="26" as="geometry" />
        </mxCell>
        <mxCell id="HR5rdaaua7dhn80-lfWI-54" value="+Price : int" style="text;strokeColor=none;fillColor=none;align=left;verticalAlign=top;spacingLeft=4;spacingRight=4;overflow=hidden;rotatable=0;points=[[0,0.5],[1,0.5]];portConstraint=eastwest;" parent="HR5rdaaua7dhn80-lfWI-52" vertex="1">
          <mxGeometry y="78" width="160" height="26" as="geometry" />
        </mxCell>
        <mxCell id="HR5rdaaua7dhn80-lfWI-56" value="" style="line;strokeWidth=1;fillColor=none;align=left;verticalAlign=middle;spacingTop=-1;spacingLeft=3;spacingRight=3;rotatable=0;labelPosition=right;points=[];portConstraint=eastwest;strokeColor=inherit;" parent="HR5rdaaua7dhn80-lfWI-52" vertex="1">
          <mxGeometry y="104" width="160" height="8" as="geometry" />
        </mxCell>
        <mxCell id="HR5rdaaua7dhn80-lfWI-57" value="+ method(type): type" style="text;strokeColor=none;fillColor=none;align=left;verticalAlign=top;spacingLeft=4;spacingRight=4;overflow=hidden;rotatable=0;points=[[0,0.5],[1,0.5]];portConstraint=eastwest;" parent="HR5rdaaua7dhn80-lfWI-52" vertex="1">
          <mxGeometry y="112" width="160" height="26" as="geometry" />
        </mxCell>
        <mxCell id="HR5rdaaua7dhn80-lfWI-58" value="Cash" style="swimlane;fontStyle=1;align=center;verticalAlign=top;childLayout=stackLayout;horizontal=1;startSize=26;horizontalStack=0;resizeParent=1;resizeParentMax=0;resizeLast=0;collapsible=1;marginBottom=0;" parent="1" vertex="1">
          <mxGeometry x="600" y="908" width="160" height="34" as="geometry" />
        </mxCell>
        <mxCell id="HR5rdaaua7dhn80-lfWI-59" value="" style="line;strokeWidth=1;fillColor=none;align=left;verticalAlign=middle;spacingTop=-1;spacingLeft=3;spacingRight=3;rotatable=0;labelPosition=right;points=[];portConstraint=eastwest;strokeColor=inherit;" parent="HR5rdaaua7dhn80-lfWI-58" vertex="1">
          <mxGeometry y="26" width="160" height="8" as="geometry" />
        </mxCell>
        <mxCell id="HR5rdaaua7dhn80-lfWI-60" value="Credit_card" style="swimlane;fontStyle=1;align=center;verticalAlign=top;childLayout=stackLayout;horizontal=1;startSize=26;horizontalStack=0;resizeParent=1;resizeParentMax=0;resizeLast=0;collapsible=1;marginBottom=0;" parent="1" vertex="1">
          <mxGeometry x="810" y="908" width="160" height="34" as="geometry" />
        </mxCell>
        <mxCell id="HR5rdaaua7dhn80-lfWI-61" value="" style="line;strokeWidth=1;fillColor=none;align=left;verticalAlign=middle;spacingTop=-1;spacingLeft=3;spacingRight=3;rotatable=0;labelPosition=right;points=[];portConstraint=eastwest;strokeColor=inherit;" parent="HR5rdaaua7dhn80-lfWI-60" vertex="1">
          <mxGeometry y="26" width="160" height="8" as="geometry" />
        </mxCell>
        <mxCell id="HR5rdaaua7dhn80-lfWI-62" value="" style="endArrow=diamond;html=1;rounded=0;fontSize=15;startSize=15;endSize=15;exitX=0.5;exitY=0;exitDx=0;exitDy=0;endFill=0;entryX=0.438;entryY=1.077;entryDx=0;entryDy=0;entryPerimeter=0;" parent="1" source="HR5rdaaua7dhn80-lfWI-58" target="HR5rdaaua7dhn80-lfWI-57" edge="1">
          <mxGeometry width="50" height="50" relative="1" as="geometry">
            <mxPoint x="706" y="489" as="sourcePoint" />
            <mxPoint x="776" y="810" as="targetPoint" />
          </mxGeometry>
        </mxCell>
        <mxCell id="HR5rdaaua7dhn80-lfWI-63" value="" style="endArrow=diamond;html=1;rounded=0;fontSize=15;startSize=15;endSize=15;exitX=0.5;exitY=0;exitDx=0;exitDy=0;endFill=0;entryX=0.5;entryY=1.077;entryDx=0;entryDy=0;entryPerimeter=0;" parent="1" source="HR5rdaaua7dhn80-lfWI-60" target="HR5rdaaua7dhn80-lfWI-57" edge="1">
          <mxGeometry width="50" height="50" relative="1" as="geometry">
            <mxPoint x="676" y="918" as="sourcePoint" />
            <mxPoint x="816" y="810" as="targetPoint" />
          </mxGeometry>
        </mxCell>
        <mxCell id="HR5rdaaua7dhn80-lfWI-64" value="Admin" style="swimlane;fontStyle=1;align=center;verticalAlign=top;childLayout=stackLayout;horizontal=1;startSize=26;horizontalStack=0;resizeParent=1;resizeParentMax=0;resizeLast=0;collapsible=1;marginBottom=0;" parent="1" vertex="1">
          <mxGeometry x="460" y="540" width="160" height="86" as="geometry" />
        </mxCell>
        <mxCell id="HR5rdaaua7dhn80-lfWI-65" value="+ name : String" style="text;strokeColor=none;fillColor=none;align=left;verticalAlign=top;spacingLeft=4;spacingRight=4;overflow=hidden;rotatable=0;points=[[0,0.5],[1,0.5]];portConstraint=eastwest;" parent="HR5rdaaua7dhn80-lfWI-64" vertex="1">
          <mxGeometry y="26" width="160" height="26" as="geometry" />
        </mxCell>
        <mxCell id="HR5rdaaua7dhn80-lfWI-66" value="" style="line;strokeWidth=1;fillColor=none;align=left;verticalAlign=middle;spacingTop=-1;spacingLeft=3;spacingRight=3;rotatable=0;labelPosition=right;points=[];portConstraint=eastwest;strokeColor=inherit;" parent="HR5rdaaua7dhn80-lfWI-64" vertex="1">
          <mxGeometry y="52" width="160" height="8" as="geometry" />
        </mxCell>
        <mxCell id="HR5rdaaua7dhn80-lfWI-67" value="+ method(type): type" style="text;strokeColor=none;fillColor=none;align=left;verticalAlign=top;spacingLeft=4;spacingRight=4;overflow=hidden;rotatable=0;points=[[0,0.5],[1,0.5]];portConstraint=eastwest;" parent="HR5rdaaua7dhn80-lfWI-64" vertex="1">
          <mxGeometry y="60" width="160" height="26" as="geometry" />
        </mxCell>
        <mxCell id="HR5rdaaua7dhn80-lfWI-68" value="Register" style="swimlane;fontStyle=1;align=center;verticalAlign=top;childLayout=stackLayout;horizontal=1;startSize=26;horizontalStack=0;resizeParent=1;resizeParentMax=0;resizeLast=0;collapsible=1;marginBottom=0;" parent="1" vertex="1">
          <mxGeometry x="760" y="40" width="160" height="190" as="geometry" />
        </mxCell>
        <mxCell id="HR5rdaaua7dhn80-lfWI-69" value="+hotelId : String" style="text;strokeColor=none;fillColor=none;align=left;verticalAlign=top;spacingLeft=4;spacingRight=4;overflow=hidden;rotatable=0;points=[[0,0.5],[1,0.5]];portConstraint=eastwest;" parent="HR5rdaaua7dhn80-lfWI-68" vertex="1">
          <mxGeometry y="26" width="160" height="26" as="geometry" />
        </mxCell>
        <mxCell id="tYDExsxgHDnbJgKsAJQZ-2" value="+ownerId : String" style="text;strokeColor=none;fillColor=none;align=left;verticalAlign=top;spacingLeft=4;spacingRight=4;overflow=hidden;rotatable=0;points=[[0,0.5],[1,0.5]];portConstraint=eastwest;" vertex="1" parent="HR5rdaaua7dhn80-lfWI-68">
          <mxGeometry y="52" width="160" height="26" as="geometry" />
        </mxCell>
        <mxCell id="HR5rdaaua7dhn80-lfWI-70" value="+hotelName : String" style="text;strokeColor=none;fillColor=none;align=left;verticalAlign=top;spacingLeft=4;spacingRight=4;overflow=hidden;rotatable=0;points=[[0,0.5],[1,0.5]];portConstraint=eastwest;" parent="HR5rdaaua7dhn80-lfWI-68" vertex="1">
          <mxGeometry y="78" width="160" height="26" as="geometry" />
        </mxCell>
        <mxCell id="HR5rdaaua7dhn80-lfWI-71" value="+isReserve : boolean" style="text;strokeColor=none;fillColor=none;align=left;verticalAlign=top;spacingLeft=4;spacingRight=4;overflow=hidden;rotatable=0;points=[[0,0.5],[1,0.5]];portConstraint=eastwest;" parent="HR5rdaaua7dhn80-lfWI-68" vertex="1">
          <mxGeometry y="104" width="160" height="26" as="geometry" />
        </mxCell>
        <mxCell id="HR5rdaaua7dhn80-lfWI-72" value="+price : int" style="text;strokeColor=none;fillColor=none;align=left;verticalAlign=top;spacingLeft=4;spacingRight=4;overflow=hidden;rotatable=0;points=[[0,0.5],[1,0.5]];portConstraint=eastwest;" parent="HR5rdaaua7dhn80-lfWI-68" vertex="1">
          <mxGeometry y="130" width="160" height="26" as="geometry" />
        </mxCell>
        <mxCell id="HR5rdaaua7dhn80-lfWI-73" value="" style="line;strokeWidth=1;fillColor=none;align=left;verticalAlign=middle;spacingTop=-1;spacingLeft=3;spacingRight=3;rotatable=0;labelPosition=right;points=[];portConstraint=eastwest;strokeColor=inherit;" parent="HR5rdaaua7dhn80-lfWI-68" vertex="1">
          <mxGeometry y="156" width="160" height="8" as="geometry" />
        </mxCell>
        <mxCell id="HR5rdaaua7dhn80-lfWI-74" value="+ method(type): type" style="text;strokeColor=none;fillColor=none;align=left;verticalAlign=top;spacingLeft=4;spacingRight=4;overflow=hidden;rotatable=0;points=[[0,0.5],[1,0.5]];portConstraint=eastwest;" parent="HR5rdaaua7dhn80-lfWI-68" vertex="1">
          <mxGeometry y="164" width="160" height="26" as="geometry" />
        </mxCell>
        <mxCell id="HR5rdaaua7dhn80-lfWI-75" value="등록하다" style="endArrow=none;html=1;rounded=0;exitX=1;exitY=0.5;exitDx=0;exitDy=0;entryX=0;entryY=0.5;entryDx=0;entryDy=0;" parent="1" source="HR5rdaaua7dhn80-lfWI-46" target="HR5rdaaua7dhn80-lfWI-71" edge="1">
          <mxGeometry width="50" height="50" relative="1" as="geometry">
            <mxPoint x="730" y="350" as="sourcePoint" />
            <mxPoint x="780" y="300" as="targetPoint" />
          </mxGeometry>
        </mxCell>
        <mxCell id="HR5rdaaua7dhn80-lfWI-76" value="1" style="text;html=1;align=center;verticalAlign=middle;resizable=0;points=[];autosize=1;strokeColor=none;fillColor=none;" parent="1" vertex="1">
          <mxGeometry x="620" y="133" width="30" height="30" as="geometry" />
        </mxCell>
        <mxCell id="HR5rdaaua7dhn80-lfWI-77" value="0..*" style="text;html=1;align=center;verticalAlign=middle;resizable=0;points=[];autosize=1;strokeColor=none;fillColor=none;" parent="1" vertex="1">
          <mxGeometry x="720" y="133" width="40" height="30" as="geometry" />
        </mxCell>
        <mxCell id="HR5rdaaua7dhn80-lfWI-78" value="등록받다" style="endArrow=none;html=1;rounded=0;exitX=1;exitY=0.5;exitDx=0;exitDy=0;entryX=0;entryY=0.5;entryDx=0;entryDy=0;" parent="1" source="HR5rdaaua7dhn80-lfWI-70" target="HR5rdaaua7dhn80-lfWI-20" edge="1">
          <mxGeometry width="50" height="50" relative="1" as="geometry">
            <mxPoint x="630" y="141" as="sourcePoint" />
            <mxPoint x="770" y="141" as="targetPoint" />
          </mxGeometry>
        </mxCell>
        <mxCell id="HR5rdaaua7dhn80-lfWI-80" value="1" style="text;html=1;align=center;verticalAlign=middle;resizable=0;points=[];autosize=1;strokeColor=none;fillColor=none;fontSize=10;" parent="1" vertex="1">
          <mxGeometry x="920" y="133" width="30" height="30" as="geometry" />
        </mxCell>
        <mxCell id="HR5rdaaua7dhn80-lfWI-81" value="1" style="text;html=1;align=center;verticalAlign=middle;resizable=0;points=[];autosize=1;strokeColor=none;fillColor=none;fontSize=10;" parent="1" vertex="1">
          <mxGeometry x="1030" y="133" width="30" height="30" as="geometry" />
        </mxCell>
        <mxCell id="HR5rdaaua7dhn80-lfWI-82" value="에약받다" style="endArrow=none;html=1;rounded=0;exitX=0.5;exitY=0;exitDx=0;exitDy=0;entryX=0.5;entryY=1.115;entryDx=0;entryDy=0;entryPerimeter=0;" parent="1" source="HR5rdaaua7dhn80-lfWI-24" target="HR5rdaaua7dhn80-lfWI-23" edge="1">
          <mxGeometry width="50" height="50" relative="1" as="geometry">
            <mxPoint x="930" y="141" as="sourcePoint" />
            <mxPoint x="1070" y="141" as="targetPoint" />
          </mxGeometry>
        </mxCell>
        <mxCell id="HR5rdaaua7dhn80-lfWI-85" value="0..*" style="text;html=1;align=center;verticalAlign=middle;resizable=0;points=[];autosize=1;strokeColor=none;fillColor=none;fontSize=10;" parent="1" vertex="1">
          <mxGeometry x="1140" y="205" width="40" height="30" as="geometry" />
        </mxCell>
        <mxCell id="HR5rdaaua7dhn80-lfWI-86" value="0..*" style="text;html=1;align=center;verticalAlign=middle;resizable=0;points=[];autosize=1;strokeColor=none;fillColor=none;fontSize=10;" parent="1" vertex="1">
          <mxGeometry x="1140" y="280" width="40" height="30" as="geometry" />
        </mxCell>
        <mxCell id="HR5rdaaua7dhn80-lfWI-87" value="예약하다" style="endArrow=none;html=1;rounded=0;exitX=0.5;exitY=0;exitDx=0;exitDy=0;entryX=0.5;entryY=1.115;entryDx=0;entryDy=0;entryPerimeter=0;" parent="1" source="HR5rdaaua7dhn80-lfWI-1" target="HR5rdaaua7dhn80-lfWI-31" edge="1">
          <mxGeometry width="50" height="50" relative="1" as="geometry">
            <mxPoint x="1150" y="320" as="sourcePoint" />
            <mxPoint x="1150" y="216.99" as="targetPoint" />
          </mxGeometry>
        </mxCell>
        <mxCell id="HR5rdaaua7dhn80-lfWI-88" value="0..*" style="text;html=1;align=center;verticalAlign=middle;resizable=0;points=[];autosize=1;strokeColor=none;fillColor=none;fontSize=10;" parent="1" vertex="1">
          <mxGeometry x="1140" y="495" width="40" height="30" as="geometry" />
        </mxCell>
        <mxCell id="HR5rdaaua7dhn80-lfWI-89" value="0..*" style="text;html=1;align=center;verticalAlign=middle;resizable=0;points=[];autosize=1;strokeColor=none;fillColor=none;fontSize=10;" parent="1" vertex="1">
          <mxGeometry x="1140" y="560" width="40" height="30" as="geometry" />
        </mxCell>
        <mxCell id="HR5rdaaua7dhn80-lfWI-90" value="로그인하다" style="endArrow=none;html=1;rounded=0;exitX=1;exitY=0.5;exitDx=0;exitDy=0;entryX=1.033;entryY=0.867;entryDx=0;entryDy=0;entryPerimeter=0;" parent="1" source="HR5rdaaua7dhn80-lfWI-6" target="HR5rdaaua7dhn80-lfWI-92" edge="1">
          <mxGeometry width="50" height="50" relative="1" as="geometry">
            <mxPoint x="1150" y="600" as="sourcePoint" />
            <mxPoint x="1150" y="512.99" as="targetPoint" />
          </mxGeometry>
        </mxCell>
        <mxCell id="HR5rdaaua7dhn80-lfWI-91" value="1" style="text;html=1;align=center;verticalAlign=middle;resizable=0;points=[];autosize=1;strokeColor=none;fillColor=none;fontSize=10;" parent="1" vertex="1">
          <mxGeometry x="1215" y="705" width="30" height="30" as="geometry" />
        </mxCell>
        <mxCell id="HR5rdaaua7dhn80-lfWI-92" value="1" style="text;html=1;align=center;verticalAlign=middle;resizable=0;points=[];autosize=1;strokeColor=none;fillColor=none;fontSize=10;" parent="1" vertex="1">
          <mxGeometry x="1340" y="705" width="30" height="30" as="geometry" />
        </mxCell>
        <mxCell id="HR5rdaaua7dhn80-lfWI-93" value="결제하다" style="endArrow=diamond;html=1;rounded=0;entryX=1;entryY=0.5;entryDx=0;entryDy=0;exitX=0;exitY=0.5;exitDx=0;exitDy=0;endFill=0;endSize=15;" parent="1" source="HR5rdaaua7dhn80-lfWI-6" target="HR5rdaaua7dhn80-lfWI-55" edge="1">
          <mxGeometry width="50" height="50" relative="1" as="geometry">
            <mxPoint x="1130" y="990" as="sourcePoint" />
            <mxPoint x="1380" y="743" as="targetPoint" />
          </mxGeometry>
        </mxCell>
        <mxCell id="HR5rdaaua7dhn80-lfWI-94" value="1" style="text;html=1;align=center;verticalAlign=middle;resizable=0;points=[];autosize=1;strokeColor=none;fillColor=none;fontSize=10;" parent="1" vertex="1">
          <mxGeometry x="1030" y="695" width="30" height="30" as="geometry" />
        </mxCell>
        <mxCell id="HR5rdaaua7dhn80-lfWI-95" value="0..*" style="text;html=1;align=center;verticalAlign=middle;resizable=0;points=[];autosize=1;strokeColor=none;fillColor=none;fontSize=10;" parent="1" vertex="1">
          <mxGeometry x="880" y="695" width="40" height="30" as="geometry" />
        </mxCell>
        <mxCell id="HR5rdaaua7dhn80-lfWI-96" value="// Owner와 Htoel, Member에 대한 CRUD가 각각 있어야함." style="text;html=1;align=center;verticalAlign=middle;resizable=0;points=[];autosize=1;strokeColor=none;fillColor=none;fontSize=10;" parent="1" vertex="1">
          <mxGeometry x="400" y="640" width="280" height="30" as="geometry" />
        </mxCell>
        <mxCell id="HR5rdaaua7dhn80-lfWI-97" value="관리&lt;br&gt;CRUD" style="endArrow=none;html=1;rounded=0;exitX=0.5;exitY=0;exitDx=0;exitDy=0;entryX=0.503;entryY=1;entryDx=0;entryDy=0;entryPerimeter=0;" parent="1" source="HR5rdaaua7dhn80-lfWI-64" target="HR5rdaaua7dhn80-lfWI-51" edge="1">
          <mxGeometry width="50" height="50" relative="1" as="geometry">
            <mxPoint x="630" y="141" as="sourcePoint" />
            <mxPoint x="770" y="141" as="targetPoint" />
          </mxGeometry>
        </mxCell>
        <mxCell id="HR5rdaaua7dhn80-lfWI-98" value="관리&lt;br&gt;CRUD" style="endArrow=none;html=1;rounded=0;exitX=1;exitY=0;exitDx=0;exitDy=0;entryX=0;entryY=1.231;entryDx=0;entryDy=0;entryPerimeter=0;" parent="1" source="HR5rdaaua7dhn80-lfWI-64" target="HR5rdaaua7dhn80-lfWI-23" edge="1">
          <mxGeometry width="50" height="50" relative="1" as="geometry">
            <mxPoint x="550" y="550" as="sourcePoint" />
            <mxPoint x="550.48" y="266" as="targetPoint" />
          </mxGeometry>
        </mxCell>
        <mxCell id="HR5rdaaua7dhn80-lfWI-99" value="관리&lt;br&gt;CRUD" style="endArrow=none;html=1;rounded=0;exitX=1;exitY=0.5;exitDx=0;exitDy=0;entryX=0;entryY=0.5;entryDx=0;entryDy=0;" parent="1" source="HR5rdaaua7dhn80-lfWI-65" target="HR5rdaaua7dhn80-lfWI-3" edge="1">
          <mxGeometry width="50" height="50" relative="1" as="geometry">
            <mxPoint x="630" y="550" as="sourcePoint" />
            <mxPoint x="1070" y="220.00600000000009" as="targetPoint" />
          </mxGeometry>
        </mxCell>
        <mxCell id="HR5rdaaua7dhn80-lfWI-100" value="1" style="text;html=1;align=center;verticalAlign=middle;resizable=0;points=[];autosize=1;strokeColor=none;fillColor=none;fontSize=10;" parent="1" vertex="1">
          <mxGeometry x="505" y="515" width="30" height="30" as="geometry" />
        </mxCell>
        <mxCell id="HR5rdaaua7dhn80-lfWI-101" value="0..*" style="text;html=1;align=center;verticalAlign=middle;resizable=0;points=[];autosize=1;strokeColor=none;fillColor=none;fontSize=10;" parent="1" vertex="1">
          <mxGeometry x="500" y="282" width="40" height="30" as="geometry" />
        </mxCell>
        <mxCell id="HR5rdaaua7dhn80-lfWI-102" value="1" style="text;html=1;align=center;verticalAlign=middle;resizable=0;points=[];autosize=1;strokeColor=none;fillColor=none;fontSize=10;" parent="1" vertex="1">
          <mxGeometry x="595" y="505" width="30" height="30" as="geometry" />
        </mxCell>
        <mxCell id="HR5rdaaua7dhn80-lfWI-103" value="0..*" style="text;html=1;align=center;verticalAlign=middle;resizable=0;points=[];autosize=1;strokeColor=none;fillColor=none;fontSize=10;" parent="1" vertex="1">
          <mxGeometry x="1010" y="195" width="40" height="30" as="geometry" />
        </mxCell>
        <mxCell id="HR5rdaaua7dhn80-lfWI-104" value="1" style="text;html=1;align=center;verticalAlign=middle;resizable=0;points=[];autosize=1;strokeColor=none;fillColor=none;fontSize=10;" parent="1" vertex="1">
          <mxGeometry x="635" y="555" width="30" height="30" as="geometry" />
        </mxCell>
        <mxCell id="HR5rdaaua7dhn80-lfWI-105" value="0..*" style="text;html=1;align=center;verticalAlign=middle;resizable=0;points=[];autosize=1;strokeColor=none;fillColor=none;fontSize=10;" parent="1" vertex="1">
          <mxGeometry x="1019" y="617" width="40" height="30" as="geometry" />
        </mxCell>
        <mxCell id="tYDExsxgHDnbJgKsAJQZ-3" value="hotelId : PK, FK&lt;br&gt;ownerId : FK" style="text;html=1;align=center;verticalAlign=middle;resizable=0;points=[];autosize=1;strokeColor=none;fillColor=none;" vertex="1" parent="1">
          <mxGeometry x="776" y="252" width="110" height="40" as="geometry" />
        </mxCell>
        <mxCell id="tYDExsxgHDnbJgKsAJQZ-4" value="ownerId : PK" style="text;html=1;align=center;verticalAlign=middle;resizable=0;points=[];autosize=1;strokeColor=none;fillColor=none;" vertex="1" parent="1">
          <mxGeometry x="415" y="292" width="90" height="30" as="geometry" />
        </mxCell>
        <mxCell id="tYDExsxgHDnbJgKsAJQZ-5" value="hotelId : PK" style="text;html=1;align=center;verticalAlign=middle;resizable=0;points=[];autosize=1;strokeColor=none;fillColor=none;" vertex="1" parent="1">
          <mxGeometry x="1180" y="205" width="90" height="30" as="geometry" />
        </mxCell>
        <mxCell id="tYDExsxgHDnbJgKsAJQZ-6" value="rId : PK&lt;br&gt;hotelId : FK&lt;br&gt;userId : FK" style="text;html=1;align=center;verticalAlign=middle;resizable=0;points=[];autosize=1;strokeColor=none;fillColor=none;" vertex="1" parent="1">
          <mxGeometry x="1225" y="390" width="80" height="60" as="geometry" />
        </mxCell>
        <mxCell id="eyDfGFlNQc-YaOSWLqAH-1" value="userid : PK" style="text;html=1;align=center;verticalAlign=middle;resizable=0;points=[];autosize=1;strokeColor=none;fillColor=none;" vertex="1" parent="1">
          <mxGeometry x="1225" y="617" width="80" height="30" as="geometry" />
        </mxCell>
        <mxCell id="eyDfGFlNQc-YaOSWLqAH-2" value="payId : PK&lt;br&gt;userid : FK" style="text;html=1;align=center;verticalAlign=middle;resizable=0;points=[];autosize=1;strokeColor=none;fillColor=none;" vertex="1" parent="1">
          <mxGeometry x="635" y="725" width="80" height="40" as="geometry" />
        </mxCell>
      </root>
    </mxGraphModel>
  </diagram>
  <diagram id="Z5ojsEFI04XgelQWrxfU" name="SEQUENCE DIAGRAM">
    <mxGraphModel dx="1673" dy="934" grid="1" gridSize="10" guides="1" tooltips="1" connect="1" arrows="1" fold="1" page="1" pageScale="1" pageWidth="3300" pageHeight="4681" math="0" shadow="0">
      <root>
        <mxCell id="0" />
        <mxCell id="1" parent="0" />
        <mxCell id="sCHBTDxSvjzaxHsWSlHN-1" value="" style="shape=umlLifeline;participant=umlActor;perimeter=lifelinePerimeter;whiteSpace=wrap;html=1;container=1;collapsible=0;recursiveResize=0;verticalAlign=top;spacingTop=36;outlineConnect=0;" parent="1" vertex="1">
          <mxGeometry x="230" y="950" width="20" height="420" as="geometry" />
        </mxCell>
        <mxCell id="sCHBTDxSvjzaxHsWSlHN-2" value="owner" style="text;html=1;align=center;verticalAlign=middle;resizable=0;points=[];autosize=1;strokeColor=none;fillColor=none;" parent="1" vertex="1">
          <mxGeometry x="210" y="920" width="60" height="30" as="geometry" />
        </mxCell>
        <mxCell id="sCHBTDxSvjzaxHsWSlHN-3" value="멤버예약관리" style="shape=umlLifeline;perimeter=lifelinePerimeter;whiteSpace=wrap;html=1;container=1;collapsible=0;recursiveResize=0;outlineConnect=0;" parent="1" vertex="1">
          <mxGeometry x="480" y="950" width="100" height="420" as="geometry" />
        </mxCell>
        <mxCell id="sCHBTDxSvjzaxHsWSlHN-4" value="숙소등록 요청" style="html=1;verticalAlign=bottom;endArrow=block;rounded=0;" parent="sCHBTDxSvjzaxHsWSlHN-3" edge="1">
          <mxGeometry width="80" relative="1" as="geometry">
            <mxPoint x="-240" y="106" as="sourcePoint" />
            <mxPoint x="200" y="106" as="targetPoint" />
          </mxGeometry>
        </mxCell>
        <mxCell id="sCHBTDxSvjzaxHsWSlHN-5" value="숙소등록" style="shape=umlLifeline;perimeter=lifelinePerimeter;whiteSpace=wrap;html=1;container=1;collapsible=0;recursiveResize=0;outlineConnect=0;" parent="1" vertex="1">
          <mxGeometry x="640" y="950" width="100" height="420" as="geometry" />
        </mxCell>
        <mxCell id="sCHBTDxSvjzaxHsWSlHN-6" value="권한 여부 확인" style="html=1;verticalAlign=bottom;endArrow=block;rounded=0;" parent="sCHBTDxSvjzaxHsWSlHN-5" edge="1">
          <mxGeometry width="80" relative="1" as="geometry">
            <mxPoint x="39" y="132" as="sourcePoint" />
            <mxPoint x="-266" y="132" as="targetPoint" />
          </mxGeometry>
        </mxCell>
        <mxCell id="sCHBTDxSvjzaxHsWSlHN-7" value="" style="html=1;points=[];perimeter=orthogonalPerimeter;" parent="sCHBTDxSvjzaxHsWSlHN-5" vertex="1">
          <mxGeometry x="45" y="100" width="10" height="100" as="geometry" />
        </mxCell>
        <mxCell id="sCHBTDxSvjzaxHsWSlHN-8" value="인증" style="shape=umlLifeline;perimeter=lifelinePerimeter;whiteSpace=wrap;html=1;container=1;collapsible=0;recursiveResize=0;outlineConnect=0;" parent="1" vertex="1">
          <mxGeometry x="320" y="950" width="100" height="420" as="geometry" />
        </mxCell>
        <mxCell id="sCHBTDxSvjzaxHsWSlHN-9" value="" style="html=1;points=[];perimeter=orthogonalPerimeter;" parent="sCHBTDxSvjzaxHsWSlHN-8" vertex="1">
          <mxGeometry x="45.00000000000001" y="133" width="10" height="35" as="geometry" />
        </mxCell>
        <mxCell id="sCHBTDxSvjzaxHsWSlHN-10" value="권한 확인 결과 반환" style="html=1;verticalAlign=bottom;endArrow=open;dashed=1;endSize=8;rounded=0;" parent="1" edge="1">
          <mxGeometry relative="1" as="geometry">
            <mxPoint x="377.25" y="1121" as="sourcePoint" />
            <mxPoint x="680" y="1120" as="targetPoint" />
          </mxGeometry>
        </mxCell>
        <mxCell id="sCHBTDxSvjzaxHsWSlHN-11" value="숙소등록 결과 반환" style="html=1;verticalAlign=bottom;endArrow=open;dashed=1;endSize=8;rounded=0;" parent="1" edge="1">
          <mxGeometry relative="1" as="geometry">
            <mxPoint x="680.19" y="1149" as="sourcePoint" />
            <mxPoint x="239.5" y="1149" as="targetPoint" />
          </mxGeometry>
        </mxCell>
        <mxCell id="sCHBTDxSvjzaxHsWSlHN-12" value="" style="html=1;points=[];perimeter=orthogonalPerimeter;" parent="1" vertex="1">
          <mxGeometry x="366" y="1009" width="10" height="30" as="geometry" />
        </mxCell>
        <mxCell id="sCHBTDxSvjzaxHsWSlHN-13" value="로그인 결과 반환" style="html=1;verticalAlign=bottom;endArrow=open;dashed=1;endSize=8;rounded=0;" parent="1" edge="1">
          <mxGeometry relative="1" as="geometry">
            <mxPoint x="360" y="1038.31" as="sourcePoint" />
            <mxPoint x="239.81034482758628" y="1038.31" as="targetPoint" />
          </mxGeometry>
        </mxCell>
        <mxCell id="sCHBTDxSvjzaxHsWSlHN-14" value="로그인 시도" style="html=1;verticalAlign=bottom;endArrow=block;rounded=0;" parent="1" edge="1">
          <mxGeometry width="80" relative="1" as="geometry">
            <mxPoint x="240" y="1011" as="sourcePoint" />
            <mxPoint x="360" y="1011" as="targetPoint" />
          </mxGeometry>
        </mxCell>
        <mxCell id="sCHBTDxSvjzaxHsWSlHN-15" value="조회/수정/삭제" style="text;html=1;align=center;verticalAlign=middle;resizable=0;points=[];autosize=1;strokeColor=none;fillColor=none;" parent="1" vertex="1">
          <mxGeometry x="476" y="925" width="100" height="30" as="geometry" />
        </mxCell>
        <mxCell id="sCHBTDxSvjzaxHsWSlHN-16" value="권한 확인 결과 반환" style="html=1;verticalAlign=bottom;endArrow=open;dashed=1;endSize=8;rounded=0;" parent="1" edge="1">
          <mxGeometry relative="1" as="geometry">
            <mxPoint x="380" y="1277" as="sourcePoint" />
            <mxPoint x="520" y="1277" as="targetPoint" />
          </mxGeometry>
        </mxCell>
        <mxCell id="sCHBTDxSvjzaxHsWSlHN-17" value="" style="html=1;points=[];perimeter=orthogonalPerimeter;" parent="1" vertex="1">
          <mxGeometry x="365" y="1236" width="10" height="35" as="geometry" />
        </mxCell>
        <mxCell id="sCHBTDxSvjzaxHsWSlHN-18" value="예약관리 결과 반환" style="html=1;verticalAlign=bottom;endArrow=open;dashed=1;endSize=8;rounded=0;" parent="1" edge="1">
          <mxGeometry relative="1" as="geometry">
            <mxPoint x="524" y="1315" as="sourcePoint" />
            <mxPoint x="238.81034482758628" y="1315" as="targetPoint" />
          </mxGeometry>
        </mxCell>
        <mxCell id="sCHBTDxSvjzaxHsWSlHN-19" value="" style="html=1;points=[];perimeter=orthogonalPerimeter;" parent="1" vertex="1">
          <mxGeometry x="524" y="1197" width="10" height="123" as="geometry" />
        </mxCell>
        <mxCell id="sCHBTDxSvjzaxHsWSlHN-20" value="멤버 예약관리 요청" style="html=1;verticalAlign=bottom;endArrow=block;rounded=0;" parent="1" edge="1">
          <mxGeometry width="80" relative="1" as="geometry">
            <mxPoint x="239" y="1207" as="sourcePoint" />
            <mxPoint x="519" y="1207" as="targetPoint" />
          </mxGeometry>
        </mxCell>
        <mxCell id="sCHBTDxSvjzaxHsWSlHN-21" value="권한 여부 확인" style="html=1;verticalAlign=bottom;endArrow=block;rounded=0;" parent="1" edge="1">
          <mxGeometry width="80" relative="1" as="geometry">
            <mxPoint x="525" y="1246" as="sourcePoint" />
            <mxPoint x="380" y="1246" as="targetPoint" />
          </mxGeometry>
        </mxCell>
        <mxCell id="NT14n01iSTHm4lyuT28p-1" value="" style="shape=umlLifeline;participant=umlActor;perimeter=lifelinePerimeter;whiteSpace=wrap;html=1;container=1;collapsible=0;recursiveResize=0;verticalAlign=top;spacingTop=36;outlineConnect=0;" vertex="1" parent="1">
          <mxGeometry x="235" y="110" width="20" height="760" as="geometry" />
        </mxCell>
        <mxCell id="NT14n01iSTHm4lyuT28p-2" value="회원" style="text;html=1;align=center;verticalAlign=middle;resizable=0;points=[];autosize=1;strokeColor=none;fillColor=none;" vertex="1" parent="1">
          <mxGeometry x="220" y="80" width="50" height="30" as="geometry" />
        </mxCell>
        <mxCell id="NT14n01iSTHm4lyuT28p-3" value="예약관리" style="shape=umlLifeline;perimeter=lifelinePerimeter;whiteSpace=wrap;html=1;container=1;collapsible=0;recursiveResize=0;outlineConnect=0;" vertex="1" parent="1">
          <mxGeometry x="485" y="110" width="100" height="760" as="geometry" />
        </mxCell>
        <mxCell id="NT14n01iSTHm4lyuT28p-4" value="" style="html=1;points=[];perimeter=orthogonalPerimeter;" vertex="1" parent="NT14n01iSTHm4lyuT28p-3">
          <mxGeometry x="47" y="456" width="7.17" height="84" as="geometry" />
        </mxCell>
        <mxCell id="NT14n01iSTHm4lyuT28p-5" value="로그인 상태 결과 반환" style="html=1;verticalAlign=bottom;endArrow=open;dashed=1;endSize=8;rounded=0;" edge="1" parent="NT14n01iSTHm4lyuT28p-3">
          <mxGeometry relative="1" as="geometry">
            <mxPoint x="-94" y="510" as="sourcePoint" />
            <mxPoint x="46" y="510" as="targetPoint" />
            <Array as="points">
              <mxPoint x="-23.5" y="510" />
            </Array>
          </mxGeometry>
        </mxCell>
        <mxCell id="NT14n01iSTHm4lyuT28p-6" value="로그인상태확인" style="text;html=1;align=center;verticalAlign=middle;resizable=0;points=[];autosize=1;strokeColor=none;fillColor=none;" vertex="1" parent="NT14n01iSTHm4lyuT28p-3">
          <mxGeometry x="-82" y="600" width="110" height="30" as="geometry" />
        </mxCell>
        <mxCell id="NT14n01iSTHm4lyuT28p-7" value="" style="html=1;points=[];perimeter=orthogonalPerimeter;" vertex="1" parent="NT14n01iSTHm4lyuT28p-3">
          <mxGeometry x="47" y="180" width="8.46" height="220" as="geometry" />
        </mxCell>
        <mxCell id="NT14n01iSTHm4lyuT28p-8" value="숙소 예약 요청" style="html=1;verticalAlign=bottom;endArrow=block;rounded=0;" edge="1" parent="NT14n01iSTHm4lyuT28p-3">
          <mxGeometry x="-0.0688" width="80" relative="1" as="geometry">
            <mxPoint x="-233.67647058823536" y="193" as="sourcePoint" />
            <mxPoint x="47" y="193" as="targetPoint" />
            <mxPoint as="offset" />
            <Array as="points">
              <mxPoint x="-43" y="193" />
            </Array>
          </mxGeometry>
        </mxCell>
        <mxCell id="NT14n01iSTHm4lyuT28p-9" value="로그인 상태 결과 반환" style="endArrow=none;html=1;rounded=0;startSize=10;endSize=10;dashed=1;startArrow=block;startFill=1;entryX=0.138;entryY=0.1;entryDx=0;entryDy=0;entryPerimeter=0;" edge="1" parent="NT14n01iSTHm4lyuT28p-3">
          <mxGeometry x="-0.0797" y="-10" width="50" height="50" relative="1" as="geometry">
            <mxPoint x="45.47000000000003" y="240" as="sourcePoint" />
            <mxPoint x="-69.52999999999997" y="240" as="targetPoint" />
            <Array as="points">
              <mxPoint x="-99.47000000000003" y="240" />
            </Array>
            <mxPoint as="offset" />
          </mxGeometry>
        </mxCell>
        <mxCell id="NT14n01iSTHm4lyuT28p-10" value="숙소 조회 결과 반환" style="endArrow=none;html=1;rounded=0;startSize=10;endSize=10;dashed=1;startArrow=block;startFill=1;endFill=0;" edge="1" parent="NT14n01iSTHm4lyuT28p-3">
          <mxGeometry x="-0.037" y="10" width="50" height="50" relative="1" as="geometry">
            <mxPoint x="60" y="285" as="sourcePoint" />
            <mxPoint x="195" y="285" as="targetPoint" />
            <Array as="points">
              <mxPoint x="155.76999999999998" y="285" />
            </Array>
            <mxPoint as="offset" />
          </mxGeometry>
        </mxCell>
        <mxCell id="NT14n01iSTHm4lyuT28p-11" value="결제 방식 요청" style="html=1;verticalAlign=bottom;endArrow=block;rounded=0;endSize=8;" edge="1" parent="NT14n01iSTHm4lyuT28p-3" target="NT14n01iSTHm4lyuT28p-1">
          <mxGeometry width="80" relative="1" as="geometry">
            <mxPoint x="47" y="300" as="sourcePoint" />
            <mxPoint x="-106.47350000000006" y="300.1600000000001" as="targetPoint" />
            <Array as="points">
              <mxPoint x="-73" y="300" />
            </Array>
          </mxGeometry>
        </mxCell>
        <mxCell id="NT14n01iSTHm4lyuT28p-12" value="로그인" style="shape=umlLifeline;perimeter=lifelinePerimeter;whiteSpace=wrap;html=1;container=1;collapsible=0;recursiveResize=0;outlineConnect=0;" vertex="1" parent="1">
          <mxGeometry x="325" y="110" width="100" height="760" as="geometry" />
        </mxCell>
        <mxCell id="NT14n01iSTHm4lyuT28p-13" value="로그인 상태 확인" style="html=1;verticalAlign=bottom;endArrow=block;rounded=0;entryX=1.098;entryY=0.229;entryDx=0;entryDy=0;entryPerimeter=0;" edge="1" parent="NT14n01iSTHm4lyuT28p-12" target="NT14n01iSTHm4lyuT28p-14">
          <mxGeometry width="80" relative="1" as="geometry">
            <mxPoint x="216" y="480" as="sourcePoint" />
            <mxPoint x="51" y="480" as="targetPoint" />
          </mxGeometry>
        </mxCell>
        <mxCell id="NT14n01iSTHm4lyuT28p-14" value="" style="html=1;points=[];perimeter=orthogonalPerimeter;" vertex="1" parent="NT14n01iSTHm4lyuT28p-12">
          <mxGeometry x="46.37" y="470" width="9.25" height="40" as="geometry" />
        </mxCell>
        <mxCell id="NT14n01iSTHm4lyuT28p-15" value="" style="html=1;points=[];perimeter=orthogonalPerimeter;" vertex="1" parent="NT14n01iSTHm4lyuT28p-12">
          <mxGeometry x="46.370000000000005" y="620" width="9.25" height="40" as="geometry" />
        </mxCell>
        <mxCell id="NT14n01iSTHm4lyuT28p-16" value="예약 취소 요청" style="text;html=1;align=center;verticalAlign=middle;resizable=0;points=[];autosize=1;strokeColor=none;fillColor=none;" vertex="1" parent="NT14n01iSTHm4lyuT28p-12">
          <mxGeometry x="1" y="570" width="100" height="30" as="geometry" />
        </mxCell>
        <mxCell id="NT14n01iSTHm4lyuT28p-17" value="로그인 결과" style="html=1;verticalAlign=bottom;endArrow=block;dashed=1;endSize=8;rounded=0;endFill=1;" edge="1" parent="NT14n01iSTHm4lyuT28p-12">
          <mxGeometry x="-0.0073" relative="1" as="geometry">
            <mxPoint x="54.25" y="162" as="sourcePoint" />
            <mxPoint x="-80.67647058823536" y="162" as="targetPoint" />
            <Array as="points">
              <mxPoint x="-35.25" y="162" />
            </Array>
            <mxPoint as="offset" />
          </mxGeometry>
        </mxCell>
        <mxCell id="NT14n01iSTHm4lyuT28p-18" value="" style="html=1;points=[];perimeter=orthogonalPerimeter;" vertex="1" parent="NT14n01iSTHm4lyuT28p-12">
          <mxGeometry x="45.370000000000005" y="130" width="9.25" height="33" as="geometry" />
        </mxCell>
        <mxCell id="NT14n01iSTHm4lyuT28p-19" value="로그인 시도" style="html=1;verticalAlign=bottom;endArrow=block;rounded=0;" edge="1" parent="NT14n01iSTHm4lyuT28p-12">
          <mxGeometry x="0.0056" width="80" relative="1" as="geometry">
            <mxPoint x="-80.67647058823536" y="132" as="sourcePoint" />
            <mxPoint x="40" y="132" as="targetPoint" />
            <mxPoint as="offset" />
          </mxGeometry>
        </mxCell>
        <mxCell id="NT14n01iSTHm4lyuT28p-20" value="" style="html=1;points=[];perimeter=orthogonalPerimeter;" vertex="1" parent="NT14n01iSTHm4lyuT28p-12">
          <mxGeometry x="46.370000000000005" y="210" width="9.25" height="40" as="geometry" />
        </mxCell>
        <mxCell id="NT14n01iSTHm4lyuT28p-21" value="숙소조회" style="shape=umlLifeline;perimeter=lifelinePerimeter;whiteSpace=wrap;html=1;container=1;collapsible=0;recursiveResize=0;outlineConnect=0;" vertex="1" parent="1">
          <mxGeometry x="635" y="110" width="100" height="760" as="geometry" />
        </mxCell>
        <mxCell id="NT14n01iSTHm4lyuT28p-22" value="이용가능 숙소 조회 요청" style="html=1;verticalAlign=bottom;endArrow=classicThin;endSize=8;rounded=0;endFill=1;" edge="1" parent="NT14n01iSTHm4lyuT28p-21">
          <mxGeometry relative="1" as="geometry">
            <mxPoint x="-95" y="260" as="sourcePoint" />
            <mxPoint x="40" y="260" as="targetPoint" />
            <Array as="points">
              <mxPoint x="-60" y="260" />
              <mxPoint x="-30" y="260" />
            </Array>
          </mxGeometry>
        </mxCell>
        <mxCell id="NT14n01iSTHm4lyuT28p-23" value="" style="html=1;points=[];perimeter=orthogonalPerimeter;" vertex="1" parent="NT14n01iSTHm4lyuT28p-21">
          <mxGeometry x="45.77" y="250" width="8.46" height="40" as="geometry" />
        </mxCell>
        <mxCell id="NT14n01iSTHm4lyuT28p-24" value="예약조회 요청" style="html=1;verticalAlign=bottom;endArrow=block;rounded=0;" edge="1" parent="1">
          <mxGeometry x="-0.0688" width="80" relative="1" as="geometry">
            <mxPoint x="245.32352941176464" y="569.9999999999998" as="sourcePoint" />
            <mxPoint x="526" y="569.9999999999998" as="targetPoint" />
            <mxPoint as="offset" />
            <Array as="points">
              <mxPoint x="436" y="570" />
            </Array>
          </mxGeometry>
        </mxCell>
        <mxCell id="NT14n01iSTHm4lyuT28p-25" value="예약조회 결과반환" style="html=1;verticalAlign=bottom;endArrow=open;dashed=1;endSize=8;rounded=0;" edge="1" parent="1">
          <mxGeometry x="0.0688" relative="1" as="geometry">
            <mxPoint x="526" y="649.9999999999998" as="sourcePoint" />
            <mxPoint x="245.32352941176464" y="649.9999999999998" as="targetPoint" />
            <Array as="points">
              <mxPoint x="436" y="650" />
              <mxPoint x="416" y="650" />
            </Array>
            <mxPoint x="-1" as="offset" />
          </mxGeometry>
        </mxCell>
        <mxCell id="NT14n01iSTHm4lyuT28p-26" value="조회/예약/취소" style="text;html=1;align=center;verticalAlign=middle;resizable=0;points=[];autosize=1;strokeColor=none;fillColor=none;" vertex="1" parent="1">
          <mxGeometry x="485" y="80" width="100" height="30" as="geometry" />
        </mxCell>
        <mxCell id="NT14n01iSTHm4lyuT28p-27" value="" style="endArrow=classic;html=1;rounded=0;" edge="1" parent="1">
          <mxGeometry width="50" height="50" relative="1" as="geometry">
            <mxPoint x="526" y="732" as="sourcePoint" />
            <mxPoint x="386" y="732" as="targetPoint" />
          </mxGeometry>
        </mxCell>
        <mxCell id="NT14n01iSTHm4lyuT28p-28" value="" style="endArrow=classic;html=1;rounded=0;" edge="1" parent="1">
          <mxGeometry width="50" height="50" relative="1" as="geometry">
            <mxPoint x="256" y="709.9999999999998" as="sourcePoint" />
            <mxPoint x="537.085" y="709.9999999999998" as="targetPoint" />
          </mxGeometry>
        </mxCell>
        <mxCell id="NT14n01iSTHm4lyuT28p-29" value="로그인상태걀과반환" style="html=1;verticalAlign=bottom;endArrow=open;dashed=1;endSize=8;rounded=0;" edge="1" parent="1" source="NT14n01iSTHm4lyuT28p-15">
          <mxGeometry x="0.0688" relative="1" as="geometry">
            <mxPoint x="533" y="820" as="sourcePoint" />
            <mxPoint x="526" y="769.9999999999998" as="targetPoint" />
            <Array as="points">
              <mxPoint x="406" y="770" />
              <mxPoint x="476" y="770" />
            </Array>
            <mxPoint x="-1" as="offset" />
          </mxGeometry>
        </mxCell>
        <mxCell id="NT14n01iSTHm4lyuT28p-30" value="예약 취소 결과 반환" style="html=1;verticalAlign=bottom;endArrow=open;dashed=1;endSize=8;rounded=0;" edge="1" parent="1">
          <mxGeometry x="0.0688" relative="1" as="geometry">
            <mxPoint x="536.6799999999998" y="799.9999999999998" as="sourcePoint" />
            <mxPoint x="245.32352941176464" y="799.9999999999998" as="targetPoint" />
            <Array as="points">
              <mxPoint x="446.68" y="800" />
              <mxPoint x="426.68" y="800" />
            </Array>
            <mxPoint x="-1" as="offset" />
          </mxGeometry>
        </mxCell>
        <mxCell id="NT14n01iSTHm4lyuT28p-31" value="" style="endArrow=classic;html=1;rounded=0;" edge="1" parent="1" source="NT14n01iSTHm4lyuT28p-1" target="NT14n01iSTHm4lyuT28p-21">
          <mxGeometry width="50" height="50" relative="1" as="geometry">
            <mxPoint x="254.32352941176464" y="294.50800000000004" as="sourcePoint" />
            <mxPoint x="842.2928000000002" y="294.50800000000004" as="targetPoint" />
            <Array as="points">
              <mxPoint x="575" y="180" />
            </Array>
          </mxGeometry>
        </mxCell>
        <mxCell id="NT14n01iSTHm4lyuT28p-32" value="숙소 조회 결과 반환" style="html=1;verticalAlign=bottom;endArrow=block;dashed=1;endSize=8;rounded=0;endFill=1;" edge="1" parent="1" source="NT14n01iSTHm4lyuT28p-21" target="NT14n01iSTHm4lyuT28p-1">
          <mxGeometry x="-0.0481" relative="1" as="geometry">
            <mxPoint x="535" y="696" as="sourcePoint" />
            <mxPoint x="254.32352941176464" y="696" as="targetPoint" />
            <Array as="points">
              <mxPoint x="535" y="210" />
              <mxPoint x="435" y="210" />
              <mxPoint x="345" y="210" />
            </Array>
            <mxPoint as="offset" />
          </mxGeometry>
        </mxCell>
        <mxCell id="NT14n01iSTHm4lyuT28p-33" value="숙소 조회 요청" style="text;html=1;align=center;verticalAlign=middle;resizable=0;points=[];autosize=1;strokeColor=none;fillColor=none;" vertex="1" parent="1">
          <mxGeometry x="415" y="155" width="100" height="30" as="geometry" />
        </mxCell>
        <mxCell id="NT14n01iSTHm4lyuT28p-34" value="로그인 상태 확인" style="html=1;verticalAlign=bottom;endArrow=block;rounded=0;entryX=1.098;entryY=0.229;entryDx=0;entryDy=0;entryPerimeter=0;" edge="1" parent="1" target="NT14n01iSTHm4lyuT28p-20">
          <mxGeometry width="80" relative="1" as="geometry">
            <mxPoint x="530" y="329" as="sourcePoint" />
            <mxPoint x="86" y="220" as="targetPoint" />
            <Array as="points">
              <mxPoint x="415" y="329" />
            </Array>
          </mxGeometry>
        </mxCell>
        <mxCell id="NT14n01iSTHm4lyuT28p-41" value="" style="shape=umlLifeline;participant=umlActor;perimeter=lifelinePerimeter;whiteSpace=wrap;html=1;container=1;collapsible=0;recursiveResize=0;verticalAlign=top;spacingTop=36;outlineConnect=0;" vertex="1" parent="1">
          <mxGeometry x="874" y="115" width="20" height="760" as="geometry" />
        </mxCell>
        <mxCell id="NT14n01iSTHm4lyuT28p-42" value="결제 시스템" style="text;html=1;align=center;verticalAlign=middle;resizable=0;points=[];autosize=1;strokeColor=none;fillColor=none;" vertex="1" parent="1">
          <mxGeometry x="835" y="75" width="90" height="30" as="geometry" />
        </mxCell>
        <mxCell id="NT14n01iSTHm4lyuT28p-43" value="결제 승인 요청" style="endArrow=classic;html=1;rounded=0;" edge="1" parent="1" target="NT14n01iSTHm4lyuT28p-41">
          <mxGeometry x="0.034" y="10" width="50" height="50" relative="1" as="geometry">
            <mxPoint x="545" y="459.9999999999998" as="sourcePoint" />
            <mxPoint x="665" y="460" as="targetPoint" />
            <Array as="points" />
            <mxPoint as="offset" />
          </mxGeometry>
        </mxCell>
        <mxCell id="NT14n01iSTHm4lyuT28p-44" value="결제방식 결과 응답" style="endArrow=none;html=1;rounded=0;startSize=10;endSize=10;dashed=1;startArrow=block;startFill=1;entryX=0.138;entryY=0.1;entryDx=0;entryDy=0;entryPerimeter=0;" edge="1" parent="1">
          <mxGeometry x="-0.0017" y="-10" width="50" height="50" relative="1" as="geometry">
            <mxPoint x="530" y="441" as="sourcePoint" />
            <mxPoint x="245" y="440.9999999999998" as="targetPoint" />
            <Array as="points" />
            <mxPoint as="offset" />
          </mxGeometry>
        </mxCell>
        <mxCell id="NT14n01iSTHm4lyuT28p-45" value="조회/등록/수정/삭제" style="text;html=1;align=center;verticalAlign=middle;resizable=0;points=[];autosize=1;strokeColor=none;fillColor=none;" vertex="1" parent="1">
          <mxGeometry x="615" y="75" width="130" height="30" as="geometry" />
        </mxCell>
        <mxCell id="NT14n01iSTHm4lyuT28p-46" value="결제 승인 결과 응답" style="endArrow=none;html=1;rounded=0;startSize=10;endSize=10;dashed=1;startArrow=block;startFill=1;" edge="1" parent="1">
          <mxGeometry x="-0.0251" y="10" width="50" height="50" relative="1" as="geometry">
            <mxPoint x="545" y="483.9999999999998" as="sourcePoint" />
            <mxPoint x="883.5" y="484" as="targetPoint" />
            <Array as="points">
              <mxPoint x="640.77" y="484" />
            </Array>
            <mxPoint as="offset" />
          </mxGeometry>
        </mxCell>
        <mxCell id="NT14n01iSTHm4lyuT28p-47" value="숙소 예약 결과 반환" style="endArrow=none;html=1;rounded=0;startSize=10;endSize=10;dashed=1;startArrow=block;startFill=1;" edge="1" parent="1">
          <mxGeometry x="-0.0528" y="10" width="50" height="50" relative="1" as="geometry">
            <mxPoint x="245" y="499.5" as="sourcePoint" />
            <mxPoint x="530" y="500" as="targetPoint" />
            <Array as="points">
              <mxPoint x="340.77" y="499.5" />
            </Array>
            <mxPoint as="offset" />
          </mxGeometry>
        </mxCell>
        <mxCell id="FUILbuaNVeQA_zwxL68_-1" value="" style="shape=umlLifeline;participant=umlActor;perimeter=lifelinePerimeter;whiteSpace=wrap;html=1;container=1;collapsible=0;recursiveResize=0;verticalAlign=top;spacingTop=36;outlineConnect=0;" vertex="1" parent="1">
          <mxGeometry x="1030" y="975" width="20" height="770" as="geometry" />
        </mxCell>
        <mxCell id="FUILbuaNVeQA_zwxL68_-2" value="owner" style="text;html=1;align=center;verticalAlign=middle;resizable=0;points=[];autosize=1;strokeColor=none;fillColor=none;" vertex="1" parent="1">
          <mxGeometry x="1010" y="945" width="60" height="30" as="geometry" />
        </mxCell>
        <mxCell id="FUILbuaNVeQA_zwxL68_-3" value="멤버예약관리" style="shape=umlLifeline;perimeter=lifelinePerimeter;whiteSpace=wrap;html=1;container=1;collapsible=0;recursiveResize=0;outlineConnect=0;" vertex="1" parent="1">
          <mxGeometry x="1280" y="975" width="100" height="760" as="geometry" />
        </mxCell>
        <mxCell id="FUILbuaNVeQA_zwxL68_-4" value="숙소등록 요청" style="html=1;verticalAlign=bottom;endArrow=block;rounded=0;endSize=8;" edge="1" parent="FUILbuaNVeQA_zwxL68_-3">
          <mxGeometry width="80" relative="1" as="geometry">
            <mxPoint x="-240" y="106" as="sourcePoint" />
            <mxPoint x="200" y="106" as="targetPoint" />
          </mxGeometry>
        </mxCell>
        <mxCell id="FUILbuaNVeQA_zwxL68_-5" value="숙소관리" style="shape=umlLifeline;perimeter=lifelinePerimeter;whiteSpace=wrap;html=1;container=1;collapsible=0;recursiveResize=0;outlineConnect=0;" vertex="1" parent="1">
          <mxGeometry x="1440" y="975" width="100" height="760" as="geometry" />
        </mxCell>
        <mxCell id="FUILbuaNVeQA_zwxL68_-6" value="권한 여부 확인" style="html=1;verticalAlign=bottom;endArrow=block;rounded=0;endSize=8;" edge="1" parent="FUILbuaNVeQA_zwxL68_-5">
          <mxGeometry width="80" relative="1" as="geometry">
            <mxPoint x="39" y="132" as="sourcePoint" />
            <mxPoint x="-266" y="132" as="targetPoint" />
          </mxGeometry>
        </mxCell>
        <mxCell id="FUILbuaNVeQA_zwxL68_-7" value="" style="html=1;points=[];perimeter=orthogonalPerimeter;" vertex="1" parent="FUILbuaNVeQA_zwxL68_-5">
          <mxGeometry x="45" y="100" width="10" height="400" as="geometry" />
        </mxCell>
        <mxCell id="FUILbuaNVeQA_zwxL68_-8" value="인증" style="shape=umlLifeline;perimeter=lifelinePerimeter;whiteSpace=wrap;html=1;container=1;collapsible=0;recursiveResize=0;outlineConnect=0;" vertex="1" parent="1">
          <mxGeometry x="1120" y="975" width="100" height="760" as="geometry" />
        </mxCell>
        <mxCell id="FUILbuaNVeQA_zwxL68_-9" value="" style="html=1;points=[];perimeter=orthogonalPerimeter;" vertex="1" parent="FUILbuaNVeQA_zwxL68_-8">
          <mxGeometry x="45.00000000000001" y="133" width="10" height="35" as="geometry" />
        </mxCell>
        <mxCell id="FUILbuaNVeQA_zwxL68_-10" value="권한 확인 결과 반환" style="html=1;verticalAlign=bottom;endArrow=block;dashed=1;endSize=8;rounded=0;endFill=1;" edge="1" parent="1">
          <mxGeometry relative="1" as="geometry">
            <mxPoint x="1177.25" y="1146" as="sourcePoint" />
            <mxPoint x="1480" y="1145" as="targetPoint" />
          </mxGeometry>
        </mxCell>
        <mxCell id="FUILbuaNVeQA_zwxL68_-11" value="숙소등록 결과 반환" style="html=1;verticalAlign=bottom;endArrow=block;dashed=1;endSize=8;rounded=0;endFill=1;" edge="1" parent="1">
          <mxGeometry relative="1" as="geometry">
            <mxPoint x="1480.19" y="1174" as="sourcePoint" />
            <mxPoint x="1039.5" y="1174" as="targetPoint" />
          </mxGeometry>
        </mxCell>
        <mxCell id="FUILbuaNVeQA_zwxL68_-12" value="" style="html=1;points=[];perimeter=orthogonalPerimeter;" vertex="1" parent="1">
          <mxGeometry x="1166" y="1034" width="10" height="30" as="geometry" />
        </mxCell>
        <mxCell id="FUILbuaNVeQA_zwxL68_-13" value="로그인 결과 반환" style="html=1;verticalAlign=bottom;endArrow=block;dashed=1;endSize=8;rounded=0;endFill=1;" edge="1" parent="1">
          <mxGeometry relative="1" as="geometry">
            <mxPoint x="1160" y="1063.31" as="sourcePoint" />
            <mxPoint x="1039.810344827586" y="1063.31" as="targetPoint" />
          </mxGeometry>
        </mxCell>
        <mxCell id="FUILbuaNVeQA_zwxL68_-14" value="로그인 시도" style="html=1;verticalAlign=bottom;endArrow=block;rounded=0;" edge="1" parent="1">
          <mxGeometry width="80" relative="1" as="geometry">
            <mxPoint x="1040" y="1036" as="sourcePoint" />
            <mxPoint x="1160" y="1036" as="targetPoint" />
          </mxGeometry>
        </mxCell>
        <mxCell id="FUILbuaNVeQA_zwxL68_-15" value="예약조회" style="text;html=1;align=center;verticalAlign=middle;resizable=0;points=[];autosize=1;strokeColor=none;fillColor=none;" vertex="1" parent="1">
          <mxGeometry x="1291" y="950" width="70" height="30" as="geometry" />
        </mxCell>
        <mxCell id="FUILbuaNVeQA_zwxL68_-16" value="권한 확인 결과 반환" style="html=1;verticalAlign=bottom;endArrow=block;dashed=1;endSize=8;rounded=0;endFill=1;" edge="1" parent="1">
          <mxGeometry relative="1" as="geometry">
            <mxPoint x="1180" y="1584" as="sourcePoint" />
            <mxPoint x="1320" y="1584" as="targetPoint" />
          </mxGeometry>
        </mxCell>
        <mxCell id="FUILbuaNVeQA_zwxL68_-17" value="" style="html=1;points=[];perimeter=orthogonalPerimeter;" vertex="1" parent="1">
          <mxGeometry x="1165" y="1543" width="10" height="35" as="geometry" />
        </mxCell>
        <mxCell id="FUILbuaNVeQA_zwxL68_-18" value="예약관리 결과 반환" style="html=1;verticalAlign=bottom;endArrow=block;dashed=1;endSize=8;rounded=0;endFill=1;" edge="1" parent="1">
          <mxGeometry relative="1" as="geometry">
            <mxPoint x="1324" y="1622" as="sourcePoint" />
            <mxPoint x="1038.810344827586" y="1622" as="targetPoint" />
          </mxGeometry>
        </mxCell>
        <mxCell id="FUILbuaNVeQA_zwxL68_-19" value="" style="html=1;points=[];perimeter=orthogonalPerimeter;" vertex="1" parent="1">
          <mxGeometry x="1324" y="1504" width="10" height="123" as="geometry" />
        </mxCell>
        <mxCell id="FUILbuaNVeQA_zwxL68_-20" value="멤버 예약관리 요청" style="html=1;verticalAlign=bottom;endArrow=block;rounded=0;endSize=8;" edge="1" parent="1">
          <mxGeometry width="80" relative="1" as="geometry">
            <mxPoint x="1039" y="1514" as="sourcePoint" />
            <mxPoint x="1319" y="1514" as="targetPoint" />
          </mxGeometry>
        </mxCell>
        <mxCell id="FUILbuaNVeQA_zwxL68_-21" value="권한 여부 확인" style="html=1;verticalAlign=bottom;endArrow=block;rounded=0;endSize=8;" edge="1" parent="1">
          <mxGeometry width="80" relative="1" as="geometry">
            <mxPoint x="1325" y="1553" as="sourcePoint" />
            <mxPoint x="1180" y="1553" as="targetPoint" />
          </mxGeometry>
        </mxCell>
        <mxCell id="FUILbuaNVeQA_zwxL68_-22" value="" style="shape=umlLifeline;participant=umlActor;perimeter=lifelinePerimeter;whiteSpace=wrap;html=1;container=1;collapsible=0;recursiveResize=0;verticalAlign=top;spacingTop=36;outlineConnect=0;" vertex="1" parent="1">
          <mxGeometry x="1640" y="110" width="20" height="1275" as="geometry" />
        </mxCell>
        <mxCell id="FUILbuaNVeQA_zwxL68_-23" value="Admin" style="text;html=1;align=center;verticalAlign=middle;resizable=0;points=[];autosize=1;strokeColor=none;fillColor=none;" vertex="1" parent="1">
          <mxGeometry x="1620" y="80" width="60" height="30" as="geometry" />
        </mxCell>
        <mxCell id="FUILbuaNVeQA_zwxL68_-24" value="등록/수정/삭제" style="text;html=1;align=center;verticalAlign=middle;resizable=0;points=[];autosize=1;strokeColor=none;fillColor=none;" vertex="1" parent="1">
          <mxGeometry x="1440" y="950" width="100" height="30" as="geometry" />
        </mxCell>
        <mxCell id="FUILbuaNVeQA_zwxL68_-25" value="" style="html=1;points=[];perimeter=orthogonalPerimeter;" vertex="1" parent="1">
          <mxGeometry x="1166" y="1245" width="10" height="53" as="geometry" />
        </mxCell>
        <mxCell id="FUILbuaNVeQA_zwxL68_-26" value="권한 여부 확인" style="html=1;verticalAlign=bottom;endArrow=block;rounded=0;endSize=8;" edge="1" parent="1">
          <mxGeometry width="80" relative="1" as="geometry">
            <mxPoint x="1482" y="1254" as="sourcePoint" />
            <mxPoint x="1177" y="1254" as="targetPoint" />
          </mxGeometry>
        </mxCell>
        <mxCell id="FUILbuaNVeQA_zwxL68_-27" value="권한 확인 결과 반환" style="html=1;verticalAlign=bottom;endArrow=block;dashed=1;endSize=8;rounded=0;endFill=1;" edge="1" parent="1">
          <mxGeometry relative="1" as="geometry">
            <mxPoint x="1180.25" y="1287" as="sourcePoint" />
            <mxPoint x="1483" y="1286" as="targetPoint" />
          </mxGeometry>
        </mxCell>
        <mxCell id="FUILbuaNVeQA_zwxL68_-28" value="숙소수정 요청" style="html=1;verticalAlign=bottom;endArrow=block;rounded=0;endSize=8;" edge="1" parent="1">
          <mxGeometry width="80" relative="1" as="geometry">
            <mxPoint x="1045" y="1215" as="sourcePoint" />
            <mxPoint x="1485" y="1215" as="targetPoint" />
          </mxGeometry>
        </mxCell>
        <mxCell id="FUILbuaNVeQA_zwxL68_-29" value="" style="html=1;points=[];perimeter=orthogonalPerimeter;" vertex="1" parent="1">
          <mxGeometry x="1164" y="1397" width="10" height="53" as="geometry" />
        </mxCell>
        <mxCell id="FUILbuaNVeQA_zwxL68_-30" value="권한 여부 확인" style="html=1;verticalAlign=bottom;endArrow=block;rounded=0;endSize=8;" edge="1" parent="1">
          <mxGeometry width="80" relative="1" as="geometry">
            <mxPoint x="1480" y="1406" as="sourcePoint" />
            <mxPoint x="1175" y="1406" as="targetPoint" />
          </mxGeometry>
        </mxCell>
        <mxCell id="FUILbuaNVeQA_zwxL68_-31" value="권한 확인 결과 반환" style="html=1;verticalAlign=bottom;endArrow=block;dashed=1;endSize=8;rounded=0;endFill=1;" edge="1" parent="1">
          <mxGeometry relative="1" as="geometry">
            <mxPoint x="1178.25" y="1439" as="sourcePoint" />
            <mxPoint x="1481" y="1438" as="targetPoint" />
          </mxGeometry>
        </mxCell>
        <mxCell id="FUILbuaNVeQA_zwxL68_-32" value="숙소삭제 요청" style="html=1;verticalAlign=bottom;endArrow=block;rounded=0;endSize=8;" edge="1" parent="1">
          <mxGeometry width="80" relative="1" as="geometry">
            <mxPoint x="1043" y="1367" as="sourcePoint" />
            <mxPoint x="1483" y="1367" as="targetPoint" />
          </mxGeometry>
        </mxCell>
        <mxCell id="FUILbuaNVeQA_zwxL68_-33" value="숙소수정 결과 반환" style="html=1;verticalAlign=bottom;endArrow=block;dashed=1;endSize=8;rounded=0;endFill=1;" edge="1" parent="1">
          <mxGeometry relative="1" as="geometry">
            <mxPoint x="1481.19" y="1326" as="sourcePoint" />
            <mxPoint x="1040.5" y="1326" as="targetPoint" />
          </mxGeometry>
        </mxCell>
        <mxCell id="FUILbuaNVeQA_zwxL68_-34" value="숙소삭제 결과 반환" style="html=1;verticalAlign=bottom;endArrow=block;dashed=1;endSize=8;rounded=0;endFill=1;" edge="1" parent="1">
          <mxGeometry relative="1" as="geometry">
            <mxPoint x="1483.19" y="1465" as="sourcePoint" />
            <mxPoint x="1042.5" y="1465" as="targetPoint" />
          </mxGeometry>
        </mxCell>
        <mxCell id="FUILbuaNVeQA_zwxL68_-35" value="인증" style="shape=umlLifeline;perimeter=lifelinePerimeter;whiteSpace=wrap;html=1;container=1;collapsible=0;recursiveResize=0;outlineConnect=0;" vertex="1" parent="1">
          <mxGeometry x="1740" y="110" width="100" height="1275" as="geometry" />
        </mxCell>
        <mxCell id="FUILbuaNVeQA_zwxL68_-36" value="로그인 인증 결과 반환" style="endArrow=block;endSize=8;dashed=1;html=1;rounded=0;endFill=1;" edge="1" parent="FUILbuaNVeQA_zwxL68_-35" target="FUILbuaNVeQA_zwxL68_-22">
          <mxGeometry x="-0.0071" y="-10" width="160" relative="1" as="geometry">
            <mxPoint x="49.5" y="105" as="sourcePoint" />
            <mxPoint x="-90.5" y="105" as="targetPoint" />
            <Array as="points">
              <mxPoint x="10" y="105" />
            </Array>
            <mxPoint x="1" as="offset" />
          </mxGeometry>
        </mxCell>
        <mxCell id="FUILbuaNVeQA_zwxL68_-37" value="" style="html=1;points=[];perimeter=orthogonalPerimeter;" vertex="1" parent="FUILbuaNVeQA_zwxL68_-35">
          <mxGeometry x="45" y="65" width="10" height="40" as="geometry" />
        </mxCell>
        <mxCell id="FUILbuaNVeQA_zwxL68_-38" value="" style="html=1;points=[];perimeter=orthogonalPerimeter;" vertex="1" parent="FUILbuaNVeQA_zwxL68_-35">
          <mxGeometry x="45" y="175" width="10" height="50" as="geometry" />
        </mxCell>
        <mxCell id="FUILbuaNVeQA_zwxL68_-39" value="멤버관리" style="shape=umlLifeline;perimeter=lifelinePerimeter;whiteSpace=wrap;html=1;container=1;collapsible=0;recursiveResize=0;outlineConnect=0;" vertex="1" parent="1">
          <mxGeometry x="1900" y="115" width="100" height="1270" as="geometry" />
        </mxCell>
        <mxCell id="FUILbuaNVeQA_zwxL68_-40" value="" style="html=1;points=[];perimeter=orthogonalPerimeter;" vertex="1" parent="FUILbuaNVeQA_zwxL68_-39">
          <mxGeometry x="45" y="145" width="10" height="235" as="geometry" />
        </mxCell>
        <mxCell id="FUILbuaNVeQA_zwxL68_-41" value="예약 조회 요청" style="html=1;verticalAlign=bottom;endArrow=block;rounded=0;endSize=8;" edge="1" parent="FUILbuaNVeQA_zwxL68_-39">
          <mxGeometry width="80" relative="1" as="geometry">
            <mxPoint x="-250" y="547" as="sourcePoint" />
            <mxPoint x="190" y="547" as="targetPoint" />
          </mxGeometry>
        </mxCell>
        <mxCell id="FUILbuaNVeQA_zwxL68_-42" value="" style="html=1;points=[];perimeter=orthogonalPerimeter;" vertex="1" parent="FUILbuaNVeQA_zwxL68_-39">
          <mxGeometry x="-114.5" y="565" width="10" height="50" as="geometry" />
        </mxCell>
        <mxCell id="FUILbuaNVeQA_zwxL68_-43" value="권한 확인 요청" style="html=1;verticalAlign=bottom;endArrow=block;rounded=0;endSize=8;" edge="1" parent="FUILbuaNVeQA_zwxL68_-39">
          <mxGeometry width="80" relative="1" as="geometry">
            <mxPoint x="199.5" y="569" as="sourcePoint" />
            <mxPoint x="-100" y="569" as="targetPoint" />
          </mxGeometry>
        </mxCell>
        <mxCell id="FUILbuaNVeQA_zwxL68_-44" value="로그인 인증 결과 반환" style="endArrow=block;endSize=8;dashed=1;html=1;rounded=0;endFill=1;" edge="1" parent="FUILbuaNVeQA_zwxL68_-39">
          <mxGeometry x="0.0647" y="15" width="160" relative="1" as="geometry">
            <mxPoint x="-99" y="603" as="sourcePoint" />
            <mxPoint x="190" y="603" as="targetPoint" />
            <Array as="points">
              <mxPoint x="-109.5" y="603" />
            </Array>
            <mxPoint x="1" as="offset" />
          </mxGeometry>
        </mxCell>
        <mxCell id="FUILbuaNVeQA_zwxL68_-45" value="예약 조회 결과 반환" style="endArrow=block;endSize=8;dashed=1;html=1;rounded=0;endFill=1;" edge="1" parent="FUILbuaNVeQA_zwxL68_-39">
          <mxGeometry x="-0.0071" y="-10" width="160" relative="1" as="geometry">
            <mxPoint x="199.5" y="635" as="sourcePoint" />
            <mxPoint x="-250" y="635" as="targetPoint" />
            <Array as="points">
              <mxPoint x="1" y="635" />
            </Array>
            <mxPoint x="1" as="offset" />
          </mxGeometry>
        </mxCell>
        <mxCell id="FUILbuaNVeQA_zwxL68_-46" value="멤버예약관리" style="shape=umlLifeline;perimeter=lifelinePerimeter;whiteSpace=wrap;html=1;container=1;collapsible=0;recursiveResize=0;outlineConnect=0;" vertex="1" parent="1">
          <mxGeometry x="2050" y="110" width="100" height="1275" as="geometry" />
        </mxCell>
        <mxCell id="FUILbuaNVeQA_zwxL68_-47" value="" style="html=1;points=[];perimeter=orthogonalPerimeter;" vertex="1" parent="FUILbuaNVeQA_zwxL68_-46">
          <mxGeometry x="45" y="425" width="10" height="455" as="geometry" />
        </mxCell>
        <mxCell id="FUILbuaNVeQA_zwxL68_-48" value="멤버조회/삭제" style="text;html=1;align=center;verticalAlign=middle;resizable=0;points=[];autosize=1;strokeColor=none;fillColor=none;" vertex="1" parent="1">
          <mxGeometry x="1900" y="85" width="100" height="30" as="geometry" />
        </mxCell>
        <mxCell id="FUILbuaNVeQA_zwxL68_-49" value="예약승인/조회/수정/취소" style="text;html=1;align=center;verticalAlign=middle;resizable=0;points=[];autosize=1;strokeColor=none;fillColor=none;" vertex="1" parent="1">
          <mxGeometry x="2025" y="85" width="150" height="30" as="geometry" />
        </mxCell>
        <mxCell id="FUILbuaNVeQA_zwxL68_-50" value="로그인 인증 요청" style="html=1;verticalAlign=bottom;endArrow=block;rounded=0;endSize=8;" edge="1" parent="1" source="FUILbuaNVeQA_zwxL68_-22">
          <mxGeometry width="80" relative="1" as="geometry">
            <mxPoint x="1660" y="175" as="sourcePoint" />
            <mxPoint x="1780" y="177" as="targetPoint" />
          </mxGeometry>
        </mxCell>
        <mxCell id="FUILbuaNVeQA_zwxL68_-51" value="멤버 조회 요청" style="html=1;verticalAlign=bottom;endArrow=block;rounded=0;endSize=8;" edge="1" parent="1">
          <mxGeometry width="80" relative="1" as="geometry">
            <mxPoint x="1651.5" y="261.5" as="sourcePoint" />
            <mxPoint x="1940" y="262" as="targetPoint" />
          </mxGeometry>
        </mxCell>
        <mxCell id="FUILbuaNVeQA_zwxL68_-52" value="권한 확인 요청" style="html=1;verticalAlign=bottom;endArrow=block;rounded=0;endSize=8;" edge="1" parent="1">
          <mxGeometry width="80" relative="1" as="geometry">
            <mxPoint x="1949.5" y="289" as="sourcePoint" />
            <mxPoint x="1800" y="289" as="targetPoint" />
          </mxGeometry>
        </mxCell>
        <mxCell id="FUILbuaNVeQA_zwxL68_-53" value="로그인 인증 결과 반환" style="endArrow=block;endSize=8;dashed=1;html=1;rounded=0;endFill=1;" edge="1" parent="1">
          <mxGeometry x="0.0647" y="15" width="160" relative="1" as="geometry">
            <mxPoint x="1800.5" y="323" as="sourcePoint" />
            <mxPoint x="1940" y="323" as="targetPoint" />
            <Array as="points">
              <mxPoint x="1790" y="323" />
            </Array>
            <mxPoint x="1" as="offset" />
          </mxGeometry>
        </mxCell>
        <mxCell id="FUILbuaNVeQA_zwxL68_-54" value="멤버 조회 결과 반환" style="endArrow=block;endSize=8;dashed=1;html=1;rounded=0;endFill=1;" edge="1" parent="1" source="FUILbuaNVeQA_zwxL68_-39" target="FUILbuaNVeQA_zwxL68_-22">
          <mxGeometry x="-0.0071" y="-10" width="160" relative="1" as="geometry">
            <mxPoint x="1940" y="355" as="sourcePoint" />
            <mxPoint x="1800" y="355" as="targetPoint" />
            <Array as="points">
              <mxPoint x="1900.5" y="355" />
            </Array>
            <mxPoint x="1" as="offset" />
          </mxGeometry>
        </mxCell>
        <mxCell id="FUILbuaNVeQA_zwxL68_-55" value="" style="html=1;points=[];perimeter=orthogonalPerimeter;" vertex="1" parent="1">
          <mxGeometry x="1784" y="414" width="10" height="50" as="geometry" />
        </mxCell>
        <mxCell id="FUILbuaNVeQA_zwxL68_-56" value="멤버 삭제 요청" style="html=1;verticalAlign=bottom;endArrow=block;rounded=0;endSize=8;" edge="1" parent="1">
          <mxGeometry width="80" relative="1" as="geometry">
            <mxPoint x="1650.5" y="390.5" as="sourcePoint" />
            <mxPoint x="1940" y="391" as="targetPoint" />
          </mxGeometry>
        </mxCell>
        <mxCell id="FUILbuaNVeQA_zwxL68_-57" value="권한 확인 요청" style="html=1;verticalAlign=bottom;endArrow=block;rounded=0;endSize=8;" edge="1" parent="1">
          <mxGeometry width="80" relative="1" as="geometry">
            <mxPoint x="1948.4999999999995" y="418" as="sourcePoint" />
            <mxPoint x="1800" y="418" as="targetPoint" />
          </mxGeometry>
        </mxCell>
        <mxCell id="FUILbuaNVeQA_zwxL68_-58" value="로그인 인증 결과 반환" style="endArrow=block;endSize=8;dashed=1;html=1;rounded=0;endFill=1;" edge="1" parent="1">
          <mxGeometry x="0.0647" y="15" width="160" relative="1" as="geometry">
            <mxPoint x="1799.5" y="451.9999999999998" as="sourcePoint" />
            <mxPoint x="1940" y="452" as="targetPoint" />
            <Array as="points">
              <mxPoint x="1789" y="452" />
            </Array>
            <mxPoint x="1" as="offset" />
          </mxGeometry>
        </mxCell>
        <mxCell id="FUILbuaNVeQA_zwxL68_-59" value="멤버 삭제 결과 반환" style="endArrow=block;endSize=8;dashed=1;html=1;rounded=0;endFill=1;" edge="1" parent="1">
          <mxGeometry x="-0.0071" y="-10" width="160" relative="1" as="geometry">
            <mxPoint x="1948.4999999999995" y="484" as="sourcePoint" />
            <mxPoint x="1648.4999999999995" y="484" as="targetPoint" />
            <Array as="points">
              <mxPoint x="1899.5" y="484" />
            </Array>
            <mxPoint x="1" as="offset" />
          </mxGeometry>
        </mxCell>
        <mxCell id="FUILbuaNVeQA_zwxL68_-60" value="예약 승인 요청" style="html=1;verticalAlign=bottom;endArrow=block;rounded=0;endSize=8;" edge="1" parent="1">
          <mxGeometry width="80" relative="1" as="geometry">
            <mxPoint x="1650" y="536.9999999999998" as="sourcePoint" />
            <mxPoint x="2090" y="540" as="targetPoint" />
          </mxGeometry>
        </mxCell>
        <mxCell id="FUILbuaNVeQA_zwxL68_-61" value="" style="html=1;points=[];perimeter=orthogonalPerimeter;" vertex="1" parent="1">
          <mxGeometry x="1785.5" y="555" width="10" height="50" as="geometry" />
        </mxCell>
        <mxCell id="FUILbuaNVeQA_zwxL68_-62" value="권한 확인 요청" style="html=1;verticalAlign=bottom;endArrow=block;rounded=0;endSize=8;" edge="1" parent="1" source="FUILbuaNVeQA_zwxL68_-46">
          <mxGeometry width="80" relative="1" as="geometry">
            <mxPoint x="1950" y="559" as="sourcePoint" />
            <mxPoint x="1800" y="559" as="targetPoint" />
          </mxGeometry>
        </mxCell>
        <mxCell id="FUILbuaNVeQA_zwxL68_-63" value="로그인 인증 결과 반환" style="endArrow=block;endSize=8;dashed=1;html=1;rounded=0;endFill=1;" edge="1" parent="1">
          <mxGeometry x="0.0647" y="15" width="160" relative="1" as="geometry">
            <mxPoint x="1800.9999999999995" y="593" as="sourcePoint" />
            <mxPoint x="2090" y="593" as="targetPoint" />
            <Array as="points">
              <mxPoint x="1790.5" y="593" />
            </Array>
            <mxPoint x="1" as="offset" />
          </mxGeometry>
        </mxCell>
        <mxCell id="FUILbuaNVeQA_zwxL68_-64" value="예약 승인 결과 반환" style="endArrow=block;endSize=8;dashed=1;html=1;rounded=0;endFill=1;" edge="1" parent="1" source="FUILbuaNVeQA_zwxL68_-46">
          <mxGeometry x="-0.0071" y="-10" width="160" relative="1" as="geometry">
            <mxPoint x="1950" y="625" as="sourcePoint" />
            <mxPoint x="1650" y="625" as="targetPoint" />
            <Array as="points">
              <mxPoint x="1901" y="625" />
            </Array>
            <mxPoint x="1" as="offset" />
          </mxGeometry>
        </mxCell>
        <mxCell id="FUILbuaNVeQA_zwxL68_-65" value="예약 수정 요청" style="html=1;verticalAlign=bottom;endArrow=block;rounded=0;endSize=8;" edge="1" parent="1">
          <mxGeometry width="80" relative="1" as="geometry">
            <mxPoint x="1650.9999999999995" y="775" as="sourcePoint" />
            <mxPoint x="2090" y="775" as="targetPoint" />
          </mxGeometry>
        </mxCell>
        <mxCell id="FUILbuaNVeQA_zwxL68_-66" value="" style="html=1;points=[];perimeter=orthogonalPerimeter;" vertex="1" parent="1">
          <mxGeometry x="1786.5" y="793" width="10" height="50" as="geometry" />
        </mxCell>
        <mxCell id="FUILbuaNVeQA_zwxL68_-67" value="권한 확인 요청" style="html=1;verticalAlign=bottom;endArrow=block;rounded=0;endSize=8;" edge="1" parent="1">
          <mxGeometry width="80" relative="1" as="geometry">
            <mxPoint x="2100.5" y="796.9999999999998" as="sourcePoint" />
            <mxPoint x="1800" y="797" as="targetPoint" />
          </mxGeometry>
        </mxCell>
        <mxCell id="FUILbuaNVeQA_zwxL68_-68" value="로그인 인증 결과 반환" style="endArrow=block;endSize=8;dashed=1;html=1;rounded=0;endFill=1;" edge="1" parent="1">
          <mxGeometry x="0.0647" y="15" width="160" relative="1" as="geometry">
            <mxPoint x="1802" y="831.0000000000002" as="sourcePoint" />
            <mxPoint x="2090" y="831" as="targetPoint" />
            <Array as="points">
              <mxPoint x="1791.5" y="831" />
            </Array>
            <mxPoint x="1" as="offset" />
          </mxGeometry>
        </mxCell>
        <mxCell id="FUILbuaNVeQA_zwxL68_-69" value="예약 수정 결과 반환" style="endArrow=block;endSize=8;dashed=1;html=1;rounded=0;endFill=1;" edge="1" parent="1">
          <mxGeometry x="-0.0071" y="-10" width="160" relative="1" as="geometry">
            <mxPoint x="2100.5" y="863" as="sourcePoint" />
            <mxPoint x="1650.9999999999995" y="863" as="targetPoint" />
            <Array as="points">
              <mxPoint x="1902" y="863" />
            </Array>
            <mxPoint x="1" as="offset" />
          </mxGeometry>
        </mxCell>
        <mxCell id="FUILbuaNVeQA_zwxL68_-70" value="예약 취소 요청" style="html=1;verticalAlign=bottom;endArrow=block;rounded=0;endSize=8;" edge="1" parent="1">
          <mxGeometry width="80" relative="1" as="geometry">
            <mxPoint x="1652" y="891.9999999999998" as="sourcePoint" />
            <mxPoint x="2090" y="892" as="targetPoint" />
          </mxGeometry>
        </mxCell>
        <mxCell id="FUILbuaNVeQA_zwxL68_-71" value="" style="html=1;points=[];perimeter=orthogonalPerimeter;" vertex="1" parent="1">
          <mxGeometry x="1787.5" y="910" width="10" height="50" as="geometry" />
        </mxCell>
        <mxCell id="FUILbuaNVeQA_zwxL68_-72" value="권한 확인 요청" style="html=1;verticalAlign=bottom;endArrow=block;rounded=0;endSize=8;" edge="1" parent="1">
          <mxGeometry width="80" relative="1" as="geometry">
            <mxPoint x="2101.5000000000005" y="914" as="sourcePoint" />
            <mxPoint x="1800" y="914" as="targetPoint" />
          </mxGeometry>
        </mxCell>
        <mxCell id="FUILbuaNVeQA_zwxL68_-73" value="로그인 인증 결과 반환" style="endArrow=block;endSize=8;dashed=1;html=1;rounded=0;endFill=1;" edge="1" parent="1">
          <mxGeometry x="0.0647" y="15" width="160" relative="1" as="geometry">
            <mxPoint x="1803" y="948" as="sourcePoint" />
            <mxPoint x="2090" y="948" as="targetPoint" />
            <Array as="points">
              <mxPoint x="1792.5" y="948" />
            </Array>
            <mxPoint x="1" as="offset" />
          </mxGeometry>
        </mxCell>
        <mxCell id="FUILbuaNVeQA_zwxL68_-74" value="예약 취소 결과 반환" style="endArrow=block;endSize=8;dashed=1;html=1;rounded=0;endFill=1;" edge="1" parent="1">
          <mxGeometry x="-0.0071" y="-10" width="160" relative="1" as="geometry">
            <mxPoint x="2101.5000000000005" y="980" as="sourcePoint" />
            <mxPoint x="1652" y="980" as="targetPoint" />
            <Array as="points">
              <mxPoint x="1903" y="980" />
            </Array>
            <mxPoint x="1" as="offset" />
          </mxGeometry>
        </mxCell>
        <mxCell id="P4a1sSQNRqSieqrDUod_-1" value="// 트랜젝션을 이용한 rollback() 처리 필요" style="text;html=1;align=center;verticalAlign=middle;resizable=0;points=[];autosize=1;strokeColor=none;fillColor=none;" vertex="1" parent="1">
          <mxGeometry x="2175" y="115" width="240" height="30" as="geometry" />
        </mxCell>
      </root>
    </mxGraphModel>
  </diagram>
  <diagram id="rHDML0yDIhVtFvTkTkMH" name="MVC2 PATTERN">
    <mxGraphModel dx="2031" dy="1134" grid="1" gridSize="10" guides="1" tooltips="1" connect="1" arrows="1" fold="1" page="1" pageScale="1" pageWidth="3300" pageHeight="4681" math="0" shadow="0">
      <root>
        <mxCell id="0" />
        <mxCell id="1" parent="0" />
        <mxCell id="eOiGzOsUeNQQlfrfY7rF-2" value="frame" style="shape=umlFrame;whiteSpace=wrap;html=1;" parent="1" vertex="1">
          <mxGeometry x="270" y="40" width="1270" height="780" as="geometry" />
        </mxCell>
        <mxCell id="sifr1CEmJYWEq-jvvATn-7" value="Model" style="shape=umlFrame;whiteSpace=wrap;html=1;fontSize=12;" parent="1" vertex="1">
          <mxGeometry x="1410" y="915" width="450" height="597" as="geometry" />
        </mxCell>
        <mxCell id="sifr1CEmJYWEq-jvvATn-8" value="Model" style="shape=umlFrame;whiteSpace=wrap;html=1;fontSize=12;" parent="1" vertex="1">
          <mxGeometry x="1005" y="915" width="395" height="445" as="geometry" />
        </mxCell>
        <mxCell id="sifr1CEmJYWEq-jvvATn-6" value="Model" style="shape=umlFrame;whiteSpace=wrap;html=1;fontSize=12;" parent="1" vertex="1">
          <mxGeometry x="520" y="915" width="470" height="525" as="geometry" />
        </mxCell>
        <mxCell id="sifr1CEmJYWEq-jvvATn-5" value="Model" style="shape=umlFrame;whiteSpace=wrap;html=1;fontSize=12;" parent="1" vertex="1">
          <mxGeometry x="40" y="910" width="455" height="525" as="geometry" />
        </mxCell>
        <mxCell id="eOiGzOsUeNQQlfrfY7rF-3" value="FrontController" style="swimlane;fontStyle=1;align=center;verticalAlign=top;childLayout=stackLayout;horizontal=1;startSize=26;horizontalStack=0;resizeParent=1;resizeParentMax=0;resizeLast=0;collapsible=1;marginBottom=0;" parent="1" vertex="1">
          <mxGeometry x="770" y="110" width="260" height="112" as="geometry" />
        </mxCell>
        <mxCell id="eOiGzOsUeNQQlfrfY7rF-4" value="+ field: type" style="text;strokeColor=none;fillColor=none;align=left;verticalAlign=top;spacingLeft=4;spacingRight=4;overflow=hidden;rotatable=0;points=[[0,0.5],[1,0.5]];portConstraint=eastwest;" parent="eOiGzOsUeNQQlfrfY7rF-3" vertex="1">
          <mxGeometry y="26" width="260" height="26" as="geometry" />
        </mxCell>
        <mxCell id="eOiGzOsUeNQQlfrfY7rF-5" value="" style="line;strokeWidth=1;fillColor=none;align=left;verticalAlign=middle;spacingTop=-1;spacingLeft=3;spacingRight=3;rotatable=0;labelPosition=right;points=[];portConstraint=eastwest;strokeColor=inherit;" parent="eOiGzOsUeNQQlfrfY7rF-3" vertex="1">
          <mxGeometry y="52" width="260" height="8" as="geometry" />
        </mxCell>
        <mxCell id="eOiGzOsUeNQQlfrfY7rF-6" value="+init() : void" style="text;strokeColor=none;fillColor=none;align=left;verticalAlign=top;spacingLeft=4;spacingRight=4;overflow=hidden;rotatable=0;points=[[0,0.5],[1,0.5]];portConstraint=eastwest;" parent="eOiGzOsUeNQQlfrfY7rF-3" vertex="1">
          <mxGeometry y="60" width="260" height="26" as="geometry" />
        </mxCell>
        <mxCell id="eOiGzOsUeNQQlfrfY7rF-7" value="+ExSubController(String menu,int SN : Object" style="text;strokeColor=none;fillColor=none;align=left;verticalAlign=top;spacingLeft=4;spacingRight=4;overflow=hidden;rotatable=0;points=[[0,0.5],[1,0.5]];portConstraint=eastwest;" parent="eOiGzOsUeNQQlfrfY7rF-3" vertex="1">
          <mxGeometry y="86" width="260" height="26" as="geometry" />
        </mxCell>
        <mxCell id="eOiGzOsUeNQQlfrfY7rF-12" value="&lt;p style=&quot;margin:0px;margin-top:4px;text-align:center;&quot;&gt;&lt;i&gt;&amp;lt;&amp;lt;Interface&amp;gt;&amp;gt;&lt;/i&gt;&lt;br&gt;&lt;b&gt;SubController&lt;/b&gt;&lt;/p&gt;&lt;hr size=&quot;1&quot;&gt;&lt;p style=&quot;margin:0px;margin-left:4px;&quot;&gt;-&lt;/p&gt;&lt;hr size=&quot;1&quot;&gt;&lt;p style=&quot;margin:0px;margin-left:4px;&quot;&gt;+ execute() : void&lt;/p&gt;" style="verticalAlign=top;align=left;overflow=fill;fontSize=12;fontFamily=Helvetica;html=1;" parent="1" vertex="1">
          <mxGeometry x="805" y="310" width="190" height="100" as="geometry" />
        </mxCell>
        <mxCell id="eOiGzOsUeNQQlfrfY7rF-13" value="" style="endArrow=diamondThin;html=1;rounded=0;endSize=15;entryX=0.5;entryY=0;entryDx=0;entryDy=0;exitX=0.501;exitY=1.176;exitDx=0;exitDy=0;exitPerimeter=0;endFill=1;" parent="1" source="eOiGzOsUeNQQlfrfY7rF-7" target="eOiGzOsUeNQQlfrfY7rF-12" edge="1">
          <mxGeometry width="50" height="50" relative="1" as="geometry">
            <mxPoint x="1090" y="450" as="sourcePoint" />
            <mxPoint x="1140" y="400" as="targetPoint" />
          </mxGeometry>
        </mxCell>
        <mxCell id="eOiGzOsUeNQQlfrfY7rF-14" value="MemberController" style="swimlane;fontStyle=1;align=center;verticalAlign=top;childLayout=stackLayout;horizontal=1;startSize=26;horizontalStack=0;resizeParent=1;resizeParentMax=0;resizeLast=0;collapsible=1;marginBottom=0;" parent="1" vertex="1">
          <mxGeometry x="400" y="650" width="160" height="86" as="geometry" />
        </mxCell>
        <mxCell id="eOiGzOsUeNQQlfrfY7rF-15" value="-service : MemberService" style="text;strokeColor=none;fillColor=none;align=left;verticalAlign=top;spacingLeft=4;spacingRight=4;overflow=hidden;rotatable=0;points=[[0,0.5],[1,0.5]];portConstraint=eastwest;" parent="eOiGzOsUeNQQlfrfY7rF-14" vertex="1">
          <mxGeometry y="26" width="160" height="26" as="geometry" />
        </mxCell>
        <mxCell id="eOiGzOsUeNQQlfrfY7rF-16" value="" style="line;strokeWidth=1;fillColor=none;align=left;verticalAlign=middle;spacingTop=-1;spacingLeft=3;spacingRight=3;rotatable=0;labelPosition=right;points=[];portConstraint=eastwest;strokeColor=inherit;" parent="eOiGzOsUeNQQlfrfY7rF-14" vertex="1">
          <mxGeometry y="52" width="160" height="8" as="geometry" />
        </mxCell>
        <mxCell id="eOiGzOsUeNQQlfrfY7rF-17" value="+execute() : void" style="text;strokeColor=none;fillColor=none;align=left;verticalAlign=top;spacingLeft=4;spacingRight=4;overflow=hidden;rotatable=0;points=[[0,0.5],[1,0.5]];portConstraint=eastwest;" parent="eOiGzOsUeNQQlfrfY7rF-14" vertex="1">
          <mxGeometry y="60" width="160" height="26" as="geometry" />
        </mxCell>
        <mxCell id="eOiGzOsUeNQQlfrfY7rF-22" value="HotelController" style="swimlane;fontStyle=1;align=center;verticalAlign=top;childLayout=stackLayout;horizontal=1;startSize=26;horizontalStack=0;resizeParent=1;resizeParentMax=0;resizeLast=0;collapsible=1;marginBottom=0;" parent="1" vertex="1">
          <mxGeometry x="680" y="650" width="160" height="86" as="geometry" />
        </mxCell>
        <mxCell id="eOiGzOsUeNQQlfrfY7rF-23" value="-service : HotelService" style="text;strokeColor=none;fillColor=none;align=left;verticalAlign=top;spacingLeft=4;spacingRight=4;overflow=hidden;rotatable=0;points=[[0,0.5],[1,0.5]];portConstraint=eastwest;" parent="eOiGzOsUeNQQlfrfY7rF-22" vertex="1">
          <mxGeometry y="26" width="160" height="26" as="geometry" />
        </mxCell>
        <mxCell id="eOiGzOsUeNQQlfrfY7rF-24" value="" style="line;strokeWidth=1;fillColor=none;align=left;verticalAlign=middle;spacingTop=-1;spacingLeft=3;spacingRight=3;rotatable=0;labelPosition=right;points=[];portConstraint=eastwest;strokeColor=inherit;" parent="eOiGzOsUeNQQlfrfY7rF-22" vertex="1">
          <mxGeometry y="52" width="160" height="8" as="geometry" />
        </mxCell>
        <mxCell id="eOiGzOsUeNQQlfrfY7rF-25" value="+execute() : void" style="text;strokeColor=none;fillColor=none;align=left;verticalAlign=top;spacingLeft=4;spacingRight=4;overflow=hidden;rotatable=0;points=[[0,0.5],[1,0.5]];portConstraint=eastwest;" parent="eOiGzOsUeNQQlfrfY7rF-22" vertex="1">
          <mxGeometry y="60" width="160" height="26" as="geometry" />
        </mxCell>
        <mxCell id="eOiGzOsUeNQQlfrfY7rF-26" value="AuthController" style="swimlane;fontStyle=1;align=center;verticalAlign=top;childLayout=stackLayout;horizontal=1;startSize=26;horizontalStack=0;resizeParent=1;resizeParentMax=0;resizeLast=0;collapsible=1;marginBottom=0;" parent="1" vertex="1">
          <mxGeometry x="990" y="650" width="160" height="86" as="geometry" />
        </mxCell>
        <mxCell id="eOiGzOsUeNQQlfrfY7rF-27" value="-service : AuthService" style="text;strokeColor=none;fillColor=none;align=left;verticalAlign=top;spacingLeft=4;spacingRight=4;overflow=hidden;rotatable=0;points=[[0,0.5],[1,0.5]];portConstraint=eastwest;" parent="eOiGzOsUeNQQlfrfY7rF-26" vertex="1">
          <mxGeometry y="26" width="160" height="26" as="geometry" />
        </mxCell>
        <mxCell id="eOiGzOsUeNQQlfrfY7rF-28" value="" style="line;strokeWidth=1;fillColor=none;align=left;verticalAlign=middle;spacingTop=-1;spacingLeft=3;spacingRight=3;rotatable=0;labelPosition=right;points=[];portConstraint=eastwest;strokeColor=inherit;" parent="eOiGzOsUeNQQlfrfY7rF-26" vertex="1">
          <mxGeometry y="52" width="160" height="8" as="geometry" />
        </mxCell>
        <mxCell id="eOiGzOsUeNQQlfrfY7rF-29" value="+execute() : void" style="text;strokeColor=none;fillColor=none;align=left;verticalAlign=top;spacingLeft=4;spacingRight=4;overflow=hidden;rotatable=0;points=[[0,0.5],[1,0.5]];portConstraint=eastwest;" parent="eOiGzOsUeNQQlfrfY7rF-26" vertex="1">
          <mxGeometry y="60" width="160" height="26" as="geometry" />
        </mxCell>
        <mxCell id="eOiGzOsUeNQQlfrfY7rF-30" value="ReserveController" style="swimlane;fontStyle=1;align=center;verticalAlign=top;childLayout=stackLayout;horizontal=1;startSize=26;horizontalStack=0;resizeParent=1;resizeParentMax=0;resizeLast=0;collapsible=1;marginBottom=0;" parent="1" vertex="1">
          <mxGeometry x="1290" y="650" width="160" height="86" as="geometry" />
        </mxCell>
        <mxCell id="eOiGzOsUeNQQlfrfY7rF-31" value="-service : ReserveService" style="text;strokeColor=none;fillColor=none;align=left;verticalAlign=top;spacingLeft=4;spacingRight=4;overflow=hidden;rotatable=0;points=[[0,0.5],[1,0.5]];portConstraint=eastwest;" parent="eOiGzOsUeNQQlfrfY7rF-30" vertex="1">
          <mxGeometry y="26" width="160" height="26" as="geometry" />
        </mxCell>
        <mxCell id="eOiGzOsUeNQQlfrfY7rF-32" value="" style="line;strokeWidth=1;fillColor=none;align=left;verticalAlign=middle;spacingTop=-1;spacingLeft=3;spacingRight=3;rotatable=0;labelPosition=right;points=[];portConstraint=eastwest;strokeColor=inherit;" parent="eOiGzOsUeNQQlfrfY7rF-30" vertex="1">
          <mxGeometry y="52" width="160" height="8" as="geometry" />
        </mxCell>
        <mxCell id="eOiGzOsUeNQQlfrfY7rF-33" value="+execute() : void" style="text;strokeColor=none;fillColor=none;align=left;verticalAlign=top;spacingLeft=4;spacingRight=4;overflow=hidden;rotatable=0;points=[[0,0.5],[1,0.5]];portConstraint=eastwest;" parent="eOiGzOsUeNQQlfrfY7rF-30" vertex="1">
          <mxGeometry y="60" width="160" height="26" as="geometry" />
        </mxCell>
        <mxCell id="eOiGzOsUeNQQlfrfY7rF-35" value="" style="endArrow=none;html=1;rounded=0;endSize=15;entryX=0.5;entryY=0;entryDx=0;entryDy=0;exitX=0.25;exitY=1;exitDx=0;exitDy=0;endFill=0;startArrow=block;startFill=0;startSize=15;dashed=1;" parent="1" source="eOiGzOsUeNQQlfrfY7rF-12" target="eOiGzOsUeNQQlfrfY7rF-14" edge="1">
          <mxGeometry width="50" height="50" relative="1" as="geometry">
            <mxPoint x="910.2600000000002" y="236.57600000000002" as="sourcePoint" />
            <mxPoint x="910" y="320" as="targetPoint" />
          </mxGeometry>
        </mxCell>
        <mxCell id="eOiGzOsUeNQQlfrfY7rF-36" value="" style="endArrow=none;html=1;rounded=0;endSize=15;entryX=0.5;entryY=0;entryDx=0;entryDy=0;exitX=0.409;exitY=1.025;exitDx=0;exitDy=0;endFill=0;startArrow=block;startFill=0;startSize=15;exitPerimeter=0;dashed=1;" parent="1" source="eOiGzOsUeNQQlfrfY7rF-12" target="eOiGzOsUeNQQlfrfY7rF-22" edge="1">
          <mxGeometry width="50" height="50" relative="1" as="geometry">
            <mxPoint x="910.2600000000002" y="236.57600000000002" as="sourcePoint" />
            <mxPoint x="910" y="320" as="targetPoint" />
          </mxGeometry>
        </mxCell>
        <mxCell id="eOiGzOsUeNQQlfrfY7rF-37" value="" style="endArrow=none;html=1;rounded=0;endSize=15;entryX=0.5;entryY=0;entryDx=0;entryDy=0;exitX=0.625;exitY=1.036;exitDx=0;exitDy=0;endFill=0;startArrow=block;startFill=0;startSize=15;exitPerimeter=0;dashed=1;" parent="1" source="eOiGzOsUeNQQlfrfY7rF-12" target="eOiGzOsUeNQQlfrfY7rF-26" edge="1">
          <mxGeometry width="50" height="50" relative="1" as="geometry">
            <mxPoint x="910" y="420" as="sourcePoint" />
            <mxPoint x="770" y="660" as="targetPoint" />
          </mxGeometry>
        </mxCell>
        <mxCell id="eOiGzOsUeNQQlfrfY7rF-38" value="" style="endArrow=none;html=1;rounded=0;endSize=15;entryX=0.5;entryY=0;entryDx=0;entryDy=0;exitX=0.861;exitY=1.048;exitDx=0;exitDy=0;endFill=0;exitPerimeter=0;startArrow=block;startFill=0;startSize=15;dashed=1;" parent="1" source="eOiGzOsUeNQQlfrfY7rF-12" target="eOiGzOsUeNQQlfrfY7rF-30" edge="1">
          <mxGeometry width="50" height="50" relative="1" as="geometry">
            <mxPoint x="957.5" y="420" as="sourcePoint" />
            <mxPoint x="1080" y="660" as="targetPoint" />
          </mxGeometry>
        </mxCell>
        <mxCell id="eOiGzOsUeNQQlfrfY7rF-39" value="MemberService" style="swimlane;fontStyle=1;align=center;verticalAlign=top;childLayout=stackLayout;horizontal=1;startSize=26;horizontalStack=0;resizeParent=1;resizeParentMax=0;resizeLast=0;collapsible=1;marginBottom=0;" parent="1" vertex="1">
          <mxGeometry x="200" y="950" width="160" height="112" as="geometry" />
        </mxCell>
        <mxCell id="eOiGzOsUeNQQlfrfY7rF-40" value="-dao : MemberDAO" style="text;strokeColor=none;fillColor=none;align=left;verticalAlign=top;spacingLeft=4;spacingRight=4;overflow=hidden;rotatable=0;points=[[0,0.5],[1,0.5]];portConstraint=eastwest;" parent="eOiGzOsUeNQQlfrfY7rF-39" vertex="1">
          <mxGeometry y="26" width="160" height="26" as="geometry" />
        </mxCell>
        <mxCell id="eOiGzOsUeNQQlfrfY7rF-41" value="" style="line;strokeWidth=1;fillColor=none;align=left;verticalAlign=middle;spacingTop=-1;spacingLeft=3;spacingRight=3;rotatable=0;labelPosition=right;points=[];portConstraint=eastwest;strokeColor=inherit;" parent="eOiGzOsUeNQQlfrfY7rF-39" vertex="1">
          <mxGeometry y="52" width="160" height="8" as="geometry" />
        </mxCell>
        <mxCell id="dR6xjGNzrhwsLO6gVBsb-3" value="+UpdateAddress : boolean" style="text;strokeColor=none;fillColor=none;align=left;verticalAlign=top;spacingLeft=4;spacingRight=4;overflow=hidden;rotatable=0;points=[[0,0.5],[1,0.5]];portConstraint=eastwest;" parent="eOiGzOsUeNQQlfrfY7rF-39" vertex="1">
          <mxGeometry y="60" width="160" height="26" as="geometry" />
        </mxCell>
        <mxCell id="dR6xjGNzrhwsLO6gVBsb-4" value="+UnregisterMem : boolean" style="text;strokeColor=none;fillColor=none;align=left;verticalAlign=top;spacingLeft=4;spacingRight=4;overflow=hidden;rotatable=0;points=[[0,0.5],[1,0.5]];portConstraint=eastwest;" parent="eOiGzOsUeNQQlfrfY7rF-39" vertex="1">
          <mxGeometry y="86" width="160" height="26" as="geometry" />
        </mxCell>
        <mxCell id="eOiGzOsUeNQQlfrfY7rF-43" value="HotelService" style="swimlane;fontStyle=1;align=center;verticalAlign=top;childLayout=stackLayout;horizontal=1;startSize=26;horizontalStack=0;resizeParent=1;resizeParentMax=0;resizeLast=0;collapsible=1;marginBottom=0;" parent="1" vertex="1">
          <mxGeometry x="682.5" y="950" width="200" height="164" as="geometry" />
        </mxCell>
        <mxCell id="eOiGzOsUeNQQlfrfY7rF-44" value="-dao : HotelDAO" style="text;strokeColor=none;fillColor=none;align=left;verticalAlign=top;spacingLeft=4;spacingRight=4;overflow=hidden;rotatable=0;points=[[0,0.5],[1,0.5]];portConstraint=eastwest;" parent="eOiGzOsUeNQQlfrfY7rF-43" vertex="1">
          <mxGeometry y="26" width="200" height="26" as="geometry" />
        </mxCell>
        <mxCell id="eOiGzOsUeNQQlfrfY7rF-45" value="" style="line;strokeWidth=1;fillColor=none;align=left;verticalAlign=middle;spacingTop=-1;spacingLeft=3;spacingRight=3;rotatable=0;labelPosition=right;points=[];portConstraint=eastwest;strokeColor=inherit;" parent="eOiGzOsUeNQQlfrfY7rF-43" vertex="1">
          <mxGeometry y="52" width="200" height="8" as="geometry" />
        </mxCell>
        <mxCell id="eOiGzOsUeNQQlfrfY7rF-46" value="+ShowAllHotel() : ArrayList&lt;HotelDTO&gt;" style="text;strokeColor=none;fillColor=none;align=left;verticalAlign=top;spacingLeft=4;spacingRight=4;overflow=hidden;rotatable=0;points=[[0,0.5],[1,0.5]];portConstraint=eastwest;" parent="eOiGzOsUeNQQlfrfY7rF-43" vertex="1">
          <mxGeometry y="60" width="200" height="26" as="geometry" />
        </mxCell>
        <mxCell id="7xv6kCfOhznpgAo-O9X7-1" value="+RegisterHotel() : boolean" style="text;strokeColor=none;fillColor=none;align=left;verticalAlign=top;spacingLeft=4;spacingRight=4;overflow=hidden;rotatable=0;points=[[0,0.5],[1,0.5]];portConstraint=eastwest;" parent="eOiGzOsUeNQQlfrfY7rF-43" vertex="1">
          <mxGeometry y="86" width="200" height="26" as="geometry" />
        </mxCell>
        <mxCell id="dR6xjGNzrhwsLO6gVBsb-8" value="+ChangePrice() : boolean" style="text;strokeColor=none;fillColor=none;align=left;verticalAlign=top;spacingLeft=4;spacingRight=4;overflow=hidden;rotatable=0;points=[[0,0.5],[1,0.5]];portConstraint=eastwest;" parent="eOiGzOsUeNQQlfrfY7rF-43" vertex="1">
          <mxGeometry y="112" width="200" height="26" as="geometry" />
        </mxCell>
        <mxCell id="dR6xjGNzrhwsLO6gVBsb-9" value="+UnregisterHotel : boolean" style="text;strokeColor=none;fillColor=none;align=left;verticalAlign=top;spacingLeft=4;spacingRight=4;overflow=hidden;rotatable=0;points=[[0,0.5],[1,0.5]];portConstraint=eastwest;" parent="eOiGzOsUeNQQlfrfY7rF-43" vertex="1">
          <mxGeometry y="138" width="200" height="26" as="geometry" />
        </mxCell>
        <mxCell id="eOiGzOsUeNQQlfrfY7rF-47" value="AuthService" style="swimlane;fontStyle=1;align=center;verticalAlign=top;childLayout=stackLayout;horizontal=1;startSize=26;horizontalStack=0;resizeParent=1;resizeParentMax=0;resizeLast=0;collapsible=1;marginBottom=0;" parent="1" vertex="1">
          <mxGeometry x="1120" y="950" width="160" height="112" as="geometry" />
        </mxCell>
        <mxCell id="eOiGzOsUeNQQlfrfY7rF-48" value="+" style="text;strokeColor=none;fillColor=none;align=left;verticalAlign=top;spacingLeft=4;spacingRight=4;overflow=hidden;rotatable=0;points=[[0,0.5],[1,0.5]];portConstraint=eastwest;" parent="eOiGzOsUeNQQlfrfY7rF-47" vertex="1">
          <mxGeometry y="26" width="160" height="26" as="geometry" />
        </mxCell>
        <mxCell id="eOiGzOsUeNQQlfrfY7rF-49" value="" style="line;strokeWidth=1;fillColor=none;align=left;verticalAlign=middle;spacingTop=-1;spacingLeft=3;spacingRight=3;rotatable=0;labelPosition=right;points=[];portConstraint=eastwest;strokeColor=inherit;" parent="eOiGzOsUeNQQlfrfY7rF-47" vertex="1">
          <mxGeometry y="52" width="160" height="8" as="geometry" />
        </mxCell>
        <mxCell id="eOiGzOsUeNQQlfrfY7rF-50" value="+RegisterMem : String" style="text;strokeColor=none;fillColor=none;align=left;verticalAlign=top;spacingLeft=4;spacingRight=4;overflow=hidden;rotatable=0;points=[[0,0.5],[1,0.5]];portConstraint=eastwest;" parent="eOiGzOsUeNQQlfrfY7rF-47" vertex="1">
          <mxGeometry y="60" width="160" height="26" as="geometry" />
        </mxCell>
        <mxCell id="sifr1CEmJYWEq-jvvATn-9" value="+LoginCheck : Integer" style="text;strokeColor=none;fillColor=none;align=left;verticalAlign=top;spacingLeft=4;spacingRight=4;overflow=hidden;rotatable=0;points=[[0,0.5],[1,0.5]];portConstraint=eastwest;" parent="eOiGzOsUeNQQlfrfY7rF-47" vertex="1">
          <mxGeometry y="86" width="160" height="26" as="geometry" />
        </mxCell>
        <mxCell id="eOiGzOsUeNQQlfrfY7rF-51" value="ReserveService" style="swimlane;fontStyle=1;align=center;verticalAlign=top;childLayout=stackLayout;horizontal=1;startSize=26;horizontalStack=0;resizeParent=1;resizeParentMax=0;resizeLast=0;collapsible=1;marginBottom=0;" parent="1" vertex="1">
          <mxGeometry x="1490" y="950" width="160" height="190" as="geometry" />
        </mxCell>
        <mxCell id="eOiGzOsUeNQQlfrfY7rF-52" value="-rdao : ReserveDAO" style="text;strokeColor=none;fillColor=none;align=left;verticalAlign=top;spacingLeft=4;spacingRight=4;overflow=hidden;rotatable=0;points=[[0,0.5],[1,0.5]];portConstraint=eastwest;" parent="eOiGzOsUeNQQlfrfY7rF-51" vertex="1">
          <mxGeometry y="26" width="160" height="26" as="geometry" />
        </mxCell>
        <mxCell id="fgYKThW5b7NQrRNbKMVT-18" value="-hdao : HotelDAO" style="text;strokeColor=none;fillColor=none;align=left;verticalAlign=top;spacingLeft=4;spacingRight=4;overflow=hidden;rotatable=0;points=[[0,0.5],[1,0.5]];portConstraint=eastwest;" parent="eOiGzOsUeNQQlfrfY7rF-51" vertex="1">
          <mxGeometry y="52" width="160" height="26" as="geometry" />
        </mxCell>
        <mxCell id="eOiGzOsUeNQQlfrfY7rF-53" value="" style="line;strokeWidth=1;fillColor=none;align=left;verticalAlign=middle;spacingTop=-1;spacingLeft=3;spacingRight=3;rotatable=0;labelPosition=right;points=[];portConstraint=eastwest;strokeColor=inherit;" parent="eOiGzOsUeNQQlfrfY7rF-51" vertex="1">
          <mxGeometry y="78" width="160" height="8" as="geometry" />
        </mxCell>
        <mxCell id="eOiGzOsUeNQQlfrfY7rF-54" value="+ReserveHotel() : boolean" style="text;strokeColor=none;fillColor=none;align=left;verticalAlign=top;spacingLeft=4;spacingRight=4;overflow=hidden;rotatable=0;points=[[0,0.5],[1,0.5]];portConstraint=eastwest;" parent="eOiGzOsUeNQQlfrfY7rF-51" vertex="1">
          <mxGeometry y="86" width="160" height="26" as="geometry" />
        </mxCell>
        <mxCell id="ETNPjdYttXw3FvKZeaPJ-1" value="+SearchReserve() : boolean" style="text;strokeColor=none;fillColor=none;align=left;verticalAlign=top;spacingLeft=4;spacingRight=4;overflow=hidden;rotatable=0;points=[[0,0.5],[1,0.5]];portConstraint=eastwest;" parent="eOiGzOsUeNQQlfrfY7rF-51" vertex="1">
          <mxGeometry y="112" width="160" height="26" as="geometry" />
        </mxCell>
        <mxCell id="kz87xYJocO5j6UpRtubY-1" value="+CancelReserve() : boolean" style="text;strokeColor=none;fillColor=none;align=left;verticalAlign=top;spacingLeft=4;spacingRight=4;overflow=hidden;rotatable=0;points=[[0,0.5],[1,0.5]];portConstraint=eastwest;" parent="eOiGzOsUeNQQlfrfY7rF-51" vertex="1">
          <mxGeometry y="138" width="160" height="26" as="geometry" />
        </mxCell>
        <mxCell id="6WC2sSIEInhcjgZwDRZQ-1" value="+ModifyDate() : boolean" style="text;strokeColor=none;fillColor=none;align=left;verticalAlign=top;spacingLeft=4;spacingRight=4;overflow=hidden;rotatable=0;points=[[0,0.5],[1,0.5]];portConstraint=eastwest;" parent="eOiGzOsUeNQQlfrfY7rF-51" vertex="1">
          <mxGeometry y="164" width="160" height="26" as="geometry" />
        </mxCell>
        <mxCell id="eOiGzOsUeNQQlfrfY7rF-56" value="" style="endArrow=diamondThin;html=1;rounded=0;exitX=0.502;exitY=1.136;exitDx=0;exitDy=0;entryX=0.5;entryY=0;entryDx=0;entryDy=0;endFill=1;endSize=15;exitPerimeter=0;" parent="1" source="eOiGzOsUeNQQlfrfY7rF-17" target="eOiGzOsUeNQQlfrfY7rF-39" edge="1">
          <mxGeometry width="50" height="50" relative="1" as="geometry">
            <mxPoint x="435" y="900" as="sourcePoint" />
            <mxPoint x="525" y="900" as="targetPoint" />
          </mxGeometry>
        </mxCell>
        <mxCell id="eOiGzOsUeNQQlfrfY7rF-57" value="" style="endArrow=diamondThin;html=1;rounded=0;exitX=0.509;exitY=1.09;exitDx=0;exitDy=0;entryX=0.5;entryY=0;entryDx=0;entryDy=0;endFill=1;endSize=15;exitPerimeter=0;" parent="1" source="eOiGzOsUeNQQlfrfY7rF-25" target="eOiGzOsUeNQQlfrfY7rF-43" edge="1">
          <mxGeometry width="50" height="50" relative="1" as="geometry">
            <mxPoint x="490.31999999999994" y="749.5360000000001" as="sourcePoint" />
            <mxPoint x="490" y="1010" as="targetPoint" />
          </mxGeometry>
        </mxCell>
        <mxCell id="eOiGzOsUeNQQlfrfY7rF-58" value="" style="endArrow=diamondThin;html=1;rounded=0;exitX=0.483;exitY=1.045;exitDx=0;exitDy=0;entryX=0.5;entryY=0;entryDx=0;entryDy=0;endFill=1;endSize=15;exitPerimeter=0;" parent="1" source="eOiGzOsUeNQQlfrfY7rF-29" target="eOiGzOsUeNQQlfrfY7rF-47" edge="1">
          <mxGeometry width="50" height="50" relative="1" as="geometry">
            <mxPoint x="771.44" y="748.3400000000001" as="sourcePoint" />
            <mxPoint x="770" y="1010" as="targetPoint" />
          </mxGeometry>
        </mxCell>
        <mxCell id="eOiGzOsUeNQQlfrfY7rF-59" value="" style="endArrow=diamondThin;html=1;rounded=0;exitX=0.498;exitY=1.181;exitDx=0;exitDy=0;entryX=0.5;entryY=0;entryDx=0;entryDy=0;endFill=1;endSize=15;exitPerimeter=0;" parent="1" source="eOiGzOsUeNQQlfrfY7rF-33" target="eOiGzOsUeNQQlfrfY7rF-51" edge="1">
          <mxGeometry width="50" height="50" relative="1" as="geometry">
            <mxPoint x="1077.2800000000002" y="747.1700000000005" as="sourcePoint" />
            <mxPoint x="1080" y="1010" as="targetPoint" />
          </mxGeometry>
        </mxCell>
        <mxCell id="eOiGzOsUeNQQlfrfY7rF-99" value="MemberDAO" style="swimlane;fontStyle=1;align=center;verticalAlign=top;childLayout=stackLayout;horizontal=1;startSize=26;horizontalStack=0;resizeParent=1;resizeParentMax=0;resizeLast=0;collapsible=1;marginBottom=0;" parent="1" vertex="1">
          <mxGeometry x="305" y="1250" width="160" height="138" as="geometry" />
        </mxCell>
        <mxCell id="eOiGzOsUeNQQlfrfY7rF-100" value="-" style="text;strokeColor=none;fillColor=none;align=left;verticalAlign=top;spacingLeft=4;spacingRight=4;overflow=hidden;rotatable=0;points=[[0,0.5],[1,0.5]];portConstraint=eastwest;" parent="eOiGzOsUeNQQlfrfY7rF-99" vertex="1">
          <mxGeometry y="26" width="160" height="26" as="geometry" />
        </mxCell>
        <mxCell id="eOiGzOsUeNQQlfrfY7rF-101" value="" style="line;strokeWidth=1;fillColor=none;align=left;verticalAlign=middle;spacingTop=-1;spacingLeft=3;spacingRight=3;rotatable=0;labelPosition=right;points=[];portConstraint=eastwest;strokeColor=inherit;" parent="eOiGzOsUeNQQlfrfY7rF-99" vertex="1">
          <mxGeometry y="52" width="160" height="8" as="geometry" />
        </mxCell>
        <mxCell id="eOiGzOsUeNQQlfrfY7rF-102" value="+Insert() : int" style="text;strokeColor=none;fillColor=none;align=left;verticalAlign=top;spacingLeft=4;spacingRight=4;overflow=hidden;rotatable=0;points=[[0,0.5],[1,0.5]];portConstraint=eastwest;" parent="eOiGzOsUeNQQlfrfY7rF-99" vertex="1">
          <mxGeometry y="60" width="160" height="26" as="geometry" />
        </mxCell>
        <mxCell id="dR6xjGNzrhwsLO6gVBsb-1" value="+Update() : int" style="text;strokeColor=none;fillColor=none;align=left;verticalAlign=top;spacingLeft=4;spacingRight=4;overflow=hidden;rotatable=0;points=[[0,0.5],[1,0.5]];portConstraint=eastwest;" parent="eOiGzOsUeNQQlfrfY7rF-99" vertex="1">
          <mxGeometry y="86" width="160" height="26" as="geometry" />
        </mxCell>
        <mxCell id="dR6xjGNzrhwsLO6gVBsb-2" value="+Delete() : int" style="text;strokeColor=none;fillColor=none;align=left;verticalAlign=top;spacingLeft=4;spacingRight=4;overflow=hidden;rotatable=0;points=[[0,0.5],[1,0.5]];portConstraint=eastwest;" parent="eOiGzOsUeNQQlfrfY7rF-99" vertex="1">
          <mxGeometry y="112" width="160" height="26" as="geometry" />
        </mxCell>
        <mxCell id="eOiGzOsUeNQQlfrfY7rF-103" value="HotelDAO" style="swimlane;fontStyle=1;align=center;verticalAlign=top;childLayout=stackLayout;horizontal=1;startSize=26;horizontalStack=0;resizeParent=1;resizeParentMax=0;resizeLast=0;collapsible=1;marginBottom=0;" parent="1" vertex="1">
          <mxGeometry x="755" y="1250" width="195" height="164" as="geometry" />
        </mxCell>
        <mxCell id="eOiGzOsUeNQQlfrfY7rF-104" value="-" style="text;strokeColor=none;fillColor=none;align=left;verticalAlign=top;spacingLeft=4;spacingRight=4;overflow=hidden;rotatable=0;points=[[0,0.5],[1,0.5]];portConstraint=eastwest;" parent="eOiGzOsUeNQQlfrfY7rF-103" vertex="1">
          <mxGeometry y="26" width="195" height="26" as="geometry" />
        </mxCell>
        <mxCell id="eOiGzOsUeNQQlfrfY7rF-105" value="" style="line;strokeWidth=1;fillColor=none;align=left;verticalAlign=middle;spacingTop=-1;spacingLeft=3;spacingRight=3;rotatable=0;labelPosition=right;points=[];portConstraint=eastwest;strokeColor=inherit;" parent="eOiGzOsUeNQQlfrfY7rF-103" vertex="1">
          <mxGeometry y="52" width="195" height="8" as="geometry" />
        </mxCell>
        <mxCell id="eOiGzOsUeNQQlfrfY7rF-106" value="+ SelectAllHotel() : ArrayList&lt;HotelDTO&gt;" style="text;strokeColor=none;fillColor=none;align=left;verticalAlign=top;spacingLeft=4;spacingRight=4;overflow=hidden;rotatable=0;points=[[0,0.5],[1,0.5]];portConstraint=eastwest;" parent="eOiGzOsUeNQQlfrfY7rF-103" vertex="1">
          <mxGeometry y="60" width="195" height="26" as="geometry" />
        </mxCell>
        <mxCell id="sifr1CEmJYWEq-jvvATn-2" value="+ SelectHotel() : DTO" style="text;strokeColor=none;fillColor=none;align=left;verticalAlign=top;spacingLeft=4;spacingRight=4;overflow=hidden;rotatable=0;points=[[0,0.5],[1,0.5]];portConstraint=eastwest;" parent="eOiGzOsUeNQQlfrfY7rF-103" vertex="1">
          <mxGeometry y="86" width="195" height="26" as="geometry" />
        </mxCell>
        <mxCell id="dR6xjGNzrhwsLO6gVBsb-6" value="+ UpdateHotel() : int" style="text;strokeColor=none;fillColor=none;align=left;verticalAlign=top;spacingLeft=4;spacingRight=4;overflow=hidden;rotatable=0;points=[[0,0.5],[1,0.5]];portConstraint=eastwest;" parent="eOiGzOsUeNQQlfrfY7rF-103" vertex="1">
          <mxGeometry y="112" width="195" height="26" as="geometry" />
        </mxCell>
        <mxCell id="dR6xjGNzrhwsLO6gVBsb-7" value="+ DeleteHotel() : int" style="text;strokeColor=none;fillColor=none;align=left;verticalAlign=top;spacingLeft=4;spacingRight=4;overflow=hidden;rotatable=0;points=[[0,0.5],[1,0.5]];portConstraint=eastwest;" parent="eOiGzOsUeNQQlfrfY7rF-103" vertex="1">
          <mxGeometry y="138" width="195" height="26" as="geometry" />
        </mxCell>
        <mxCell id="eOiGzOsUeNQQlfrfY7rF-111" value="ReserveDAO" style="swimlane;fontStyle=1;align=center;verticalAlign=top;childLayout=stackLayout;horizontal=1;startSize=26;horizontalStack=0;resizeParent=1;resizeParentMax=0;resizeLast=0;collapsible=1;marginBottom=0;" parent="1" vertex="1">
          <mxGeometry x="1650" y="1250" width="160" height="164" as="geometry" />
        </mxCell>
        <mxCell id="eOiGzOsUeNQQlfrfY7rF-112" value="-" style="text;strokeColor=none;fillColor=none;align=left;verticalAlign=top;spacingLeft=4;spacingRight=4;overflow=hidden;rotatable=0;points=[[0,0.5],[1,0.5]];portConstraint=eastwest;" parent="eOiGzOsUeNQQlfrfY7rF-111" vertex="1">
          <mxGeometry y="26" width="160" height="26" as="geometry" />
        </mxCell>
        <mxCell id="eOiGzOsUeNQQlfrfY7rF-113" value="" style="line;strokeWidth=1;fillColor=none;align=left;verticalAlign=middle;spacingTop=-1;spacingLeft=3;spacingRight=3;rotatable=0;labelPosition=right;points=[];portConstraint=eastwest;strokeColor=inherit;" parent="eOiGzOsUeNQQlfrfY7rF-111" vertex="1">
          <mxGeometry y="52" width="160" height="8" as="geometry" />
        </mxCell>
        <mxCell id="eOiGzOsUeNQQlfrfY7rF-114" value="+ Insert() : int" style="text;strokeColor=none;fillColor=none;align=left;verticalAlign=top;spacingLeft=4;spacingRight=4;overflow=hidden;rotatable=0;points=[[0,0.5],[1,0.5]];portConstraint=eastwest;" parent="eOiGzOsUeNQQlfrfY7rF-111" vertex="1">
          <mxGeometry y="60" width="160" height="26" as="geometry" />
        </mxCell>
        <mxCell id="pNINDX2H5k_Th6R3ZK5y-7" value="+ Select() : DTO" style="text;strokeColor=none;fillColor=none;align=left;verticalAlign=top;spacingLeft=4;spacingRight=4;overflow=hidden;rotatable=0;points=[[0,0.5],[1,0.5]];portConstraint=eastwest;" parent="eOiGzOsUeNQQlfrfY7rF-111" vertex="1">
          <mxGeometry y="86" width="160" height="26" as="geometry" />
        </mxCell>
        <mxCell id="NwMqQ-BrLA3x6hU_8Vii-1" value="+ Delete() : int" style="text;strokeColor=none;fillColor=none;align=left;verticalAlign=top;spacingLeft=4;spacingRight=4;overflow=hidden;rotatable=0;points=[[0,0.5],[1,0.5]];portConstraint=eastwest;" parent="eOiGzOsUeNQQlfrfY7rF-111" vertex="1">
          <mxGeometry y="112" width="160" height="26" as="geometry" />
        </mxCell>
        <mxCell id="6WC2sSIEInhcjgZwDRZQ-2" value="+ DateUpdate() : int" style="text;strokeColor=none;fillColor=none;align=left;verticalAlign=top;spacingLeft=4;spacingRight=4;overflow=hidden;rotatable=0;points=[[0,0.5],[1,0.5]];portConstraint=eastwest;" parent="eOiGzOsUeNQQlfrfY7rF-111" vertex="1">
          <mxGeometry y="138" width="160" height="26" as="geometry" />
        </mxCell>
        <mxCell id="eOiGzOsUeNQQlfrfY7rF-115" value="" style="endArrow=diamondThin;html=1;rounded=0;entryX=0.5;entryY=0;entryDx=0;entryDy=0;endFill=1;endSize=15;exitX=0.515;exitY=1.128;exitDx=0;exitDy=0;exitPerimeter=0;" parent="1" source="dR6xjGNzrhwsLO6gVBsb-9" target="eOiGzOsUeNQQlfrfY7rF-103" edge="1">
          <mxGeometry width="50" height="50" relative="1" as="geometry">
            <mxPoint x="491.44000000000005" y="1098.938" as="sourcePoint" />
            <mxPoint x="415" y="1260" as="targetPoint" />
          </mxGeometry>
        </mxCell>
        <mxCell id="eOiGzOsUeNQQlfrfY7rF-117" value="" style="endArrow=diamondThin;html=1;rounded=0;entryX=0.5;entryY=0;entryDx=0;entryDy=0;endFill=1;endSize=15;exitX=0.542;exitY=1.371;exitDx=0;exitDy=0;exitPerimeter=0;" parent="1" source="6WC2sSIEInhcjgZwDRZQ-1" target="eOiGzOsUeNQQlfrfY7rF-111" edge="1">
          <mxGeometry width="50" height="50" relative="1" as="geometry">
            <mxPoint x="980.96" y="1090.1080000000002" as="sourcePoint" />
            <mxPoint x="1160" y="1250" as="targetPoint" />
          </mxGeometry>
        </mxCell>
        <mxCell id="eOiGzOsUeNQQlfrfY7rF-118" value="USE" style="endArrow=open;html=1;rounded=0;entryX=1;entryY=0.5;entryDx=0;entryDy=0;endFill=0;endSize=15;exitX=0;exitY=0.5;exitDx=0;exitDy=0;dashed=1;" parent="1" source="eOiGzOsUeNQQlfrfY7rF-100" target="gnR6rR7PjSKq4RjV0CRg-2" edge="1">
          <mxGeometry x="-0.2308" width="50" height="50" relative="1" as="geometry">
            <mxPoint x="471.44000000000005" y="1098.938" as="sourcePoint" />
            <mxPoint x="240" y="1289.0000000000005" as="targetPoint" />
            <mxPoint as="offset" />
          </mxGeometry>
        </mxCell>
        <mxCell id="eOiGzOsUeNQQlfrfY7rF-119" value="USE" style="endArrow=open;html=1;rounded=0;entryX=1;entryY=0.5;entryDx=0;entryDy=0;endFill=0;endSize=15;exitX=0;exitY=0.5;exitDx=0;exitDy=0;dashed=1;" parent="1" source="eOiGzOsUeNQQlfrfY7rF-104" target="jHRHlEoEZiG9crMeZuso-2" edge="1">
          <mxGeometry width="50" height="50" relative="1" as="geometry">
            <mxPoint x="335" y="1299.0000000000005" as="sourcePoint" />
            <mxPoint x="690" y="1289.0000000000005" as="targetPoint" />
          </mxGeometry>
        </mxCell>
        <mxCell id="eOiGzOsUeNQQlfrfY7rF-121" value="USE" style="endArrow=open;html=1;rounded=0;entryX=1;entryY=0.5;entryDx=0;entryDy=0;endFill=0;endSize=15;exitX=0;exitY=0.5;exitDx=0;exitDy=0;dashed=1;" parent="1" source="eOiGzOsUeNQQlfrfY7rF-112" target="fgYKThW5b7NQrRNbKMVT-2" edge="1">
          <mxGeometry width="50" height="50" relative="1" as="geometry">
            <mxPoint x="1265" y="1299.0000000000005" as="sourcePoint" />
            <mxPoint x="1600" y="1289.0000000000005" as="targetPoint" />
          </mxGeometry>
        </mxCell>
        <mxCell id="jHRHlEoEZiG9crMeZuso-1" value="HotelDTO" style="swimlane;fontStyle=1;align=center;verticalAlign=top;childLayout=stackLayout;horizontal=1;startSize=26;horizontalStack=0;resizeParent=1;resizeParentMax=0;resizeLast=0;collapsible=1;marginBottom=0;" parent="1" vertex="1">
          <mxGeometry x="530" y="1250" width="160" height="138" as="geometry" />
        </mxCell>
        <mxCell id="jHRHlEoEZiG9crMeZuso-2" value="+hotelId : String" style="text;strokeColor=none;fillColor=none;align=left;verticalAlign=top;spacingLeft=4;spacingRight=4;overflow=hidden;rotatable=0;points=[[0,0.5],[1,0.5]];portConstraint=eastwest;" parent="jHRHlEoEZiG9crMeZuso-1" vertex="1">
          <mxGeometry y="26" width="160" height="26" as="geometry" />
        </mxCell>
        <mxCell id="jHRHlEoEZiG9crMeZuso-3" value="+hotelName : String" style="text;strokeColor=none;fillColor=none;align=left;verticalAlign=top;spacingLeft=4;spacingRight=4;overflow=hidden;rotatable=0;points=[[0,0.5],[1,0.5]];portConstraint=eastwest;" parent="jHRHlEoEZiG9crMeZuso-1" vertex="1">
          <mxGeometry y="52" width="160" height="26" as="geometry" />
        </mxCell>
        <mxCell id="jHRHlEoEZiG9crMeZuso-4" value="+isReserve : boolean" style="text;strokeColor=none;fillColor=none;align=left;verticalAlign=top;spacingLeft=4;spacingRight=4;overflow=hidden;rotatable=0;points=[[0,0.5],[1,0.5]];portConstraint=eastwest;" parent="jHRHlEoEZiG9crMeZuso-1" vertex="1">
          <mxGeometry y="78" width="160" height="26" as="geometry" />
        </mxCell>
        <mxCell id="jHRHlEoEZiG9crMeZuso-5" value="" style="line;strokeWidth=1;fillColor=none;align=left;verticalAlign=middle;spacingTop=-1;spacingLeft=3;spacingRight=3;rotatable=0;labelPosition=right;points=[];portConstraint=eastwest;strokeColor=inherit;" parent="jHRHlEoEZiG9crMeZuso-1" vertex="1">
          <mxGeometry y="104" width="160" height="8" as="geometry" />
        </mxCell>
        <mxCell id="jHRHlEoEZiG9crMeZuso-6" value="+ method(type): type" style="text;strokeColor=none;fillColor=none;align=left;verticalAlign=top;spacingLeft=4;spacingRight=4;overflow=hidden;rotatable=0;points=[[0,0.5],[1,0.5]];portConstraint=eastwest;" parent="jHRHlEoEZiG9crMeZuso-1" vertex="1">
          <mxGeometry y="112" width="160" height="26" as="geometry" />
        </mxCell>
        <mxCell id="gnR6rR7PjSKq4RjV0CRg-1" value="MemberDTO" style="swimlane;fontStyle=1;align=center;verticalAlign=top;childLayout=stackLayout;horizontal=1;startSize=26;horizontalStack=0;resizeParent=1;resizeParentMax=0;resizeLast=0;collapsible=1;marginBottom=0;" parent="1" vertex="1">
          <mxGeometry x="80" y="1250" width="160" height="164" as="geometry" />
        </mxCell>
        <mxCell id="gnR6rR7PjSKq4RjV0CRg-2" value="+memId : String" style="text;strokeColor=none;fillColor=none;align=left;verticalAlign=top;spacingLeft=4;spacingRight=4;overflow=hidden;rotatable=0;points=[[0,0.5],[1,0.5]];portConstraint=eastwest;" parent="gnR6rR7PjSKq4RjV0CRg-1" vertex="1">
          <mxGeometry y="26" width="160" height="26" as="geometry" />
        </mxCell>
        <mxCell id="gnR6rR7PjSKq4RjV0CRg-3" value="+pwd : String" style="text;strokeColor=none;fillColor=none;align=left;verticalAlign=top;spacingLeft=4;spacingRight=4;overflow=hidden;rotatable=0;points=[[0,0.5],[1,0.5]];portConstraint=eastwest;" parent="gnR6rR7PjSKq4RjV0CRg-1" vertex="1">
          <mxGeometry y="52" width="160" height="26" as="geometry" />
        </mxCell>
        <mxCell id="gnR6rR7PjSKq4RjV0CRg-4" value="+name : String" style="text;strokeColor=none;fillColor=none;align=left;verticalAlign=top;spacingLeft=4;spacingRight=4;overflow=hidden;rotatable=0;points=[[0,0.5],[1,0.5]];portConstraint=eastwest;" parent="gnR6rR7PjSKq4RjV0CRg-1" vertex="1">
          <mxGeometry y="78" width="160" height="26" as="geometry" />
        </mxCell>
        <mxCell id="gnR6rR7PjSKq4RjV0CRg-5" value="+memCode : Integer" style="text;strokeColor=none;fillColor=none;align=left;verticalAlign=top;spacingLeft=4;spacingRight=4;overflow=hidden;rotatable=0;points=[[0,0.5],[1,0.5]];portConstraint=eastwest;" parent="gnR6rR7PjSKq4RjV0CRg-1" vertex="1">
          <mxGeometry y="104" width="160" height="26" as="geometry" />
        </mxCell>
        <mxCell id="gnR6rR7PjSKq4RjV0CRg-6" value="" style="line;strokeWidth=1;fillColor=none;align=left;verticalAlign=middle;spacingTop=-1;spacingLeft=3;spacingRight=3;rotatable=0;labelPosition=right;points=[];portConstraint=eastwest;strokeColor=inherit;" parent="gnR6rR7PjSKq4RjV0CRg-1" vertex="1">
          <mxGeometry y="130" width="160" height="8" as="geometry" />
        </mxCell>
        <mxCell id="gnR6rR7PjSKq4RjV0CRg-7" value="+ method(type): type" style="text;strokeColor=none;fillColor=none;align=left;verticalAlign=top;spacingLeft=4;spacingRight=4;overflow=hidden;rotatable=0;points=[[0,0.5],[1,0.5]];portConstraint=eastwest;" parent="gnR6rR7PjSKq4RjV0CRg-1" vertex="1">
          <mxGeometry y="138" width="160" height="26" as="geometry" />
        </mxCell>
        <mxCell id="fgYKThW5b7NQrRNbKMVT-1" value="ReserveDTO" style="swimlane;fontStyle=1;align=center;verticalAlign=top;childLayout=stackLayout;horizontal=1;startSize=26;horizontalStack=0;resizeParent=1;resizeParentMax=0;resizeLast=0;collapsible=1;marginBottom=0;" parent="1" vertex="1">
          <mxGeometry x="1440" y="1250" width="160" height="190" as="geometry" />
        </mxCell>
        <mxCell id="fgYKThW5b7NQrRNbKMVT-2" value="+rId : String" style="text;strokeColor=none;fillColor=none;align=left;verticalAlign=top;spacingLeft=4;spacingRight=4;overflow=hidden;rotatable=0;points=[[0,0.5],[1,0.5]];portConstraint=eastwest;" parent="fgYKThW5b7NQrRNbKMVT-1" vertex="1">
          <mxGeometry y="26" width="160" height="26" as="geometry" />
        </mxCell>
        <mxCell id="fgYKThW5b7NQrRNbKMVT-3" value="+memId : String" style="text;strokeColor=none;fillColor=none;align=left;verticalAlign=top;spacingLeft=4;spacingRight=4;overflow=hidden;rotatable=0;points=[[0,0.5],[1,0.5]];portConstraint=eastwest;" parent="fgYKThW5b7NQrRNbKMVT-1" vertex="1">
          <mxGeometry y="52" width="160" height="26" as="geometry" />
        </mxCell>
        <mxCell id="fgYKThW5b7NQrRNbKMVT-4" value="+hotelId : String" style="text;strokeColor=none;fillColor=none;align=left;verticalAlign=top;spacingLeft=4;spacingRight=4;overflow=hidden;rotatable=0;points=[[0,0.5],[1,0.5]];portConstraint=eastwest;" parent="fgYKThW5b7NQrRNbKMVT-1" vertex="1">
          <mxGeometry y="78" width="160" height="26" as="geometry" />
        </mxCell>
        <mxCell id="fgYKThW5b7NQrRNbKMVT-5" value="+startDate : Date" style="text;strokeColor=none;fillColor=none;align=left;verticalAlign=top;spacingLeft=4;spacingRight=4;overflow=hidden;rotatable=0;points=[[0,0.5],[1,0.5]];portConstraint=eastwest;" parent="fgYKThW5b7NQrRNbKMVT-1" vertex="1">
          <mxGeometry y="104" width="160" height="26" as="geometry" />
        </mxCell>
        <mxCell id="fgYKThW5b7NQrRNbKMVT-6" value="+endDate : Date" style="text;strokeColor=none;fillColor=none;align=left;verticalAlign=top;spacingLeft=4;spacingRight=4;overflow=hidden;rotatable=0;points=[[0,0.5],[1,0.5]];portConstraint=eastwest;" parent="fgYKThW5b7NQrRNbKMVT-1" vertex="1">
          <mxGeometry y="130" width="160" height="26" as="geometry" />
        </mxCell>
        <mxCell id="fgYKThW5b7NQrRNbKMVT-7" value="" style="line;strokeWidth=1;fillColor=none;align=left;verticalAlign=middle;spacingTop=-1;spacingLeft=3;spacingRight=3;rotatable=0;labelPosition=right;points=[];portConstraint=eastwest;strokeColor=inherit;" parent="fgYKThW5b7NQrRNbKMVT-1" vertex="1">
          <mxGeometry y="156" width="160" height="8" as="geometry" />
        </mxCell>
        <mxCell id="fgYKThW5b7NQrRNbKMVT-8" value="+ method(type): type" style="text;strokeColor=none;fillColor=none;align=left;verticalAlign=top;spacingLeft=4;spacingRight=4;overflow=hidden;rotatable=0;points=[[0,0.5],[1,0.5]];portConstraint=eastwest;" parent="fgYKThW5b7NQrRNbKMVT-1" vertex="1">
          <mxGeometry y="164" width="160" height="26" as="geometry" />
        </mxCell>
        <mxCell id="pNINDX2H5k_Th6R3ZK5y-1" value="tbl_mem" style="shape=cylinder3;whiteSpace=wrap;html=1;boundedLbl=1;backgroundOutline=1;size=15;" parent="1" vertex="1">
          <mxGeometry x="350" y="1570" width="60" height="80" as="geometry" />
        </mxCell>
        <mxCell id="pNINDX2H5k_Th6R3ZK5y-2" value="tbl_hotel" style="shape=cylinder3;whiteSpace=wrap;html=1;boundedLbl=1;backgroundOutline=1;size=15;" parent="1" vertex="1">
          <mxGeometry x="822.5" y="1570" width="60" height="80" as="geometry" />
        </mxCell>
        <mxCell id="pNINDX2H5k_Th6R3ZK5y-3" value="tbl_reserve" style="shape=cylinder3;whiteSpace=wrap;html=1;boundedLbl=1;backgroundOutline=1;size=15;" parent="1" vertex="1">
          <mxGeometry x="1700" y="1570" width="60" height="80" as="geometry" />
        </mxCell>
        <mxCell id="pNINDX2H5k_Th6R3ZK5y-4" value="" style="endArrow=none;html=1;rounded=0;startSize=15;endSize=15;exitX=0.5;exitY=0;exitDx=0;exitDy=0;exitPerimeter=0;" parent="1" source="pNINDX2H5k_Th6R3ZK5y-1" edge="1">
          <mxGeometry width="50" height="50" relative="1" as="geometry">
            <mxPoint x="870" y="1280" as="sourcePoint" />
            <mxPoint x="380" y="1390" as="targetPoint" />
          </mxGeometry>
        </mxCell>
        <mxCell id="pNINDX2H5k_Th6R3ZK5y-5" value="" style="endArrow=none;html=1;rounded=0;startSize=15;endSize=15;entryX=0.5;entryY=1;entryDx=0;entryDy=0;exitX=0.5;exitY=0;exitDx=0;exitDy=0;exitPerimeter=0;" parent="1" source="pNINDX2H5k_Th6R3ZK5y-2" target="eOiGzOsUeNQQlfrfY7rF-103" edge="1">
          <mxGeometry width="50" height="50" relative="1" as="geometry">
            <mxPoint x="835.53" y="1566.46" as="sourcePoint" />
            <mxPoint x="834.4100000000001" y="1335.996" as="targetPoint" />
          </mxGeometry>
        </mxCell>
        <mxCell id="pNINDX2H5k_Th6R3ZK5y-6" value="" style="endArrow=none;html=1;rounded=0;startSize=15;endSize=15;exitX=0.5;exitY=0;exitDx=0;exitDy=0;exitPerimeter=0;" parent="1" source="pNINDX2H5k_Th6R3ZK5y-3" edge="1">
          <mxGeometry width="50" height="50" relative="1" as="geometry">
            <mxPoint x="1640" y="1602.83" as="sourcePoint" />
            <mxPoint x="1730" y="1410" as="targetPoint" />
          </mxGeometry>
        </mxCell>
        <mxCell id="6WC2sSIEInhcjgZwDRZQ-3" value="" style="endArrow=diamondThin;html=1;rounded=0;entryX=0.945;entryY=0.648;entryDx=0;entryDy=0;endFill=1;endSize=15;entryPerimeter=0;exitX=0.523;exitY=1.138;exitDx=0;exitDy=0;exitPerimeter=0;" parent="1" source="sifr1CEmJYWEq-jvvATn-9" target="sifr1CEmJYWEq-jvvATn-5" edge="1">
          <mxGeometry width="50" height="50" relative="1" as="geometry">
            <mxPoint x="1200" y="1040" as="sourcePoint" />
            <mxPoint x="415" y="1260" as="targetPoint" />
          </mxGeometry>
        </mxCell>
        <mxCell id="6WC2sSIEInhcjgZwDRZQ-4" value="" style="endArrow=diamondThin;html=1;rounded=0;entryX=0.75;entryY=0;entryDx=0;entryDy=0;endFill=1;endSize=15;exitX=0;exitY=0.5;exitDx=0;exitDy=0;" parent="1" source="eOiGzOsUeNQQlfrfY7rF-54" target="eOiGzOsUeNQQlfrfY7rF-103" edge="1">
          <mxGeometry width="50" height="50" relative="1" as="geometry">
            <mxPoint x="1000" y="1049.0000000000005" as="sourcePoint" />
            <mxPoint x="455" y="1260" as="targetPoint" />
          </mxGeometry>
        </mxCell>
        <mxCell id="dR6xjGNzrhwsLO6gVBsb-5" value="" style="endArrow=diamondThin;html=1;rounded=0;entryX=0.5;entryY=0;entryDx=0;entryDy=0;endFill=1;endSize=15;exitX=0.499;exitY=1.128;exitDx=0;exitDy=0;exitPerimeter=0;" parent="1" source="dR6xjGNzrhwsLO6gVBsb-4" target="eOiGzOsUeNQQlfrfY7rF-99" edge="1">
          <mxGeometry width="50" height="50" relative="1" as="geometry">
            <mxPoint x="1000" y="1049" as="sourcePoint" />
            <mxPoint x="455" y="1260" as="targetPoint" />
          </mxGeometry>
        </mxCell>
        <mxCell id="Np3S4hEkyMLLUGmSWLs1-1" value="&lt;font size=&quot;1&quot;&gt;//owner의 기능&lt;/font&gt;" style="text;html=1;align=center;verticalAlign=middle;resizable=0;points=[];autosize=1;strokeColor=none;fillColor=none;fontSize=15;" parent="1" vertex="1">
          <mxGeometry x="1645" y="1114" width="90" height="30" as="geometry" />
        </mxCell>
        <mxCell id="sifr1CEmJYWEq-jvvATn-1" value="//owner의 기능" style="text;html=1;align=center;verticalAlign=middle;resizable=0;points=[];autosize=1;strokeColor=none;fillColor=none;fontSize=12;" parent="1" vertex="1">
          <mxGeometry x="890" y="1058" width="100" height="30" as="geometry" />
        </mxCell>
        <mxCell id="sifr1CEmJYWEq-jvvATn-3" value="//owner의 기능" style="text;html=1;align=center;verticalAlign=middle;resizable=0;points=[];autosize=1;strokeColor=none;fillColor=none;fontSize=12;" parent="1" vertex="1">
          <mxGeometry x="890" y="1084" width="100" height="30" as="geometry" />
        </mxCell>
        <mxCell id="sifr1CEmJYWEq-jvvATn-4" value="//owner의 기능" style="text;html=1;align=center;verticalAlign=middle;resizable=0;points=[];autosize=1;strokeColor=none;fillColor=none;fontSize=12;" parent="1" vertex="1">
          <mxGeometry x="890" y="1036" width="100" height="30" as="geometry" />
        </mxCell>
        <mxCell id="zrb_JGu_EQtk4fk5_rK4-1" value="// 회원과 Owner, Admin의 구분은 Member Service에서 다룰 예정" style="text;html=1;align=center;verticalAlign=middle;resizable=0;points=[];autosize=1;strokeColor=none;fillColor=none;" vertex="1" parent="1">
          <mxGeometry x="90" y="915" width="370" height="30" as="geometry" />
        </mxCell>
      </root>
    </mxGraphModel>
  </diagram>
  <diagram id="y33Z3P-XfyEfgi4tP2nB" name="ERD DIAGRAM">
    <mxGraphModel dx="1422" dy="794" grid="1" gridSize="10" guides="1" tooltips="1" connect="1" arrows="1" fold="1" page="1" pageScale="1" pageWidth="3300" pageHeight="4681" math="0" shadow="0">
      <root>
        <mxCell id="0" />
        <mxCell id="1" parent="0" />
      </root>
    </mxGraphModel>
  </diagram>
</mxfile>
